G75*
%MOIN*%
%OFA0B0*%
%FSLAX25Y25*%
%IPPOS*%
%LPD*%
%AMOC8*
5,1,8,0,0,1.08239X$1,22.5*
%
%ADD10C,0.01000*%
%ADD11C,0.00000*%
%ADD12C,0.05906*%
%ADD13C,0.01600*%
%ADD14C,0.03562*%
%ADD15C,0.01200*%
D10*
X0019300Y0001800D02*
X0157300Y0001800D01*
X0157723Y0001805D01*
X0158145Y0001820D01*
X0158568Y0001846D01*
X0158989Y0001882D01*
X0159409Y0001928D01*
X0159829Y0001984D01*
X0160246Y0002050D01*
X0160662Y0002126D01*
X0161076Y0002212D01*
X0161488Y0002309D01*
X0161897Y0002415D01*
X0162304Y0002531D01*
X0162708Y0002657D01*
X0163108Y0002792D01*
X0163506Y0002937D01*
X0163899Y0003092D01*
X0164289Y0003256D01*
X0164675Y0003430D01*
X0165056Y0003613D01*
X0165433Y0003805D01*
X0165805Y0004006D01*
X0166172Y0004216D01*
X0166534Y0004434D01*
X0166890Y0004662D01*
X0167241Y0004898D01*
X0167586Y0005142D01*
X0167925Y0005395D01*
X0168258Y0005656D01*
X0168585Y0005924D01*
X0168905Y0006201D01*
X0169218Y0006485D01*
X0169524Y0006777D01*
X0169823Y0007076D01*
X0170115Y0007382D01*
X0170399Y0007695D01*
X0170676Y0008015D01*
X0170944Y0008342D01*
X0171205Y0008675D01*
X0171458Y0009014D01*
X0171702Y0009359D01*
X0171938Y0009710D01*
X0172166Y0010066D01*
X0172384Y0010428D01*
X0172594Y0010795D01*
X0172795Y0011167D01*
X0172987Y0011544D01*
X0173170Y0011925D01*
X0173344Y0012311D01*
X0173508Y0012701D01*
X0173663Y0013094D01*
X0173808Y0013492D01*
X0173943Y0013892D01*
X0174069Y0014296D01*
X0174185Y0014703D01*
X0174291Y0015112D01*
X0174388Y0015524D01*
X0174474Y0015938D01*
X0174550Y0016354D01*
X0174616Y0016771D01*
X0174672Y0017191D01*
X0174718Y0017611D01*
X0174754Y0018032D01*
X0174780Y0018455D01*
X0174795Y0018877D01*
X0174800Y0019300D01*
X0174800Y0128300D01*
X0174795Y0128723D01*
X0174780Y0129145D01*
X0174754Y0129568D01*
X0174718Y0129989D01*
X0174672Y0130409D01*
X0174616Y0130829D01*
X0174550Y0131246D01*
X0174474Y0131662D01*
X0174388Y0132076D01*
X0174291Y0132488D01*
X0174185Y0132897D01*
X0174069Y0133304D01*
X0173943Y0133708D01*
X0173808Y0134108D01*
X0173663Y0134506D01*
X0173508Y0134899D01*
X0173344Y0135289D01*
X0173170Y0135675D01*
X0172987Y0136056D01*
X0172795Y0136433D01*
X0172594Y0136805D01*
X0172384Y0137172D01*
X0172166Y0137534D01*
X0171938Y0137890D01*
X0171702Y0138241D01*
X0171458Y0138586D01*
X0171205Y0138925D01*
X0170944Y0139258D01*
X0170676Y0139585D01*
X0170399Y0139905D01*
X0170115Y0140218D01*
X0169823Y0140524D01*
X0169524Y0140823D01*
X0169218Y0141115D01*
X0168905Y0141399D01*
X0168585Y0141676D01*
X0168258Y0141944D01*
X0167925Y0142205D01*
X0167586Y0142458D01*
X0167241Y0142702D01*
X0166890Y0142938D01*
X0166534Y0143166D01*
X0166172Y0143384D01*
X0165805Y0143594D01*
X0165433Y0143795D01*
X0165056Y0143987D01*
X0164675Y0144170D01*
X0164289Y0144344D01*
X0163899Y0144508D01*
X0163506Y0144663D01*
X0163108Y0144808D01*
X0162708Y0144943D01*
X0162304Y0145069D01*
X0161897Y0145185D01*
X0161488Y0145291D01*
X0161076Y0145388D01*
X0160662Y0145474D01*
X0160246Y0145550D01*
X0159829Y0145616D01*
X0159409Y0145672D01*
X0158989Y0145718D01*
X0158568Y0145754D01*
X0158145Y0145780D01*
X0157723Y0145795D01*
X0157300Y0145800D01*
X0019300Y0145800D01*
X0018877Y0145795D01*
X0018455Y0145780D01*
X0018032Y0145754D01*
X0017611Y0145718D01*
X0017191Y0145672D01*
X0016771Y0145616D01*
X0016354Y0145550D01*
X0015938Y0145474D01*
X0015524Y0145388D01*
X0015112Y0145291D01*
X0014703Y0145185D01*
X0014296Y0145069D01*
X0013892Y0144943D01*
X0013492Y0144808D01*
X0013094Y0144663D01*
X0012701Y0144508D01*
X0012311Y0144344D01*
X0011925Y0144170D01*
X0011544Y0143987D01*
X0011167Y0143795D01*
X0010795Y0143594D01*
X0010428Y0143384D01*
X0010066Y0143166D01*
X0009710Y0142938D01*
X0009359Y0142702D01*
X0009014Y0142458D01*
X0008675Y0142205D01*
X0008342Y0141944D01*
X0008015Y0141676D01*
X0007695Y0141399D01*
X0007382Y0141115D01*
X0007076Y0140823D01*
X0006777Y0140524D01*
X0006485Y0140218D01*
X0006201Y0139905D01*
X0005924Y0139585D01*
X0005656Y0139258D01*
X0005395Y0138925D01*
X0005142Y0138586D01*
X0004898Y0138241D01*
X0004662Y0137890D01*
X0004434Y0137534D01*
X0004216Y0137172D01*
X0004006Y0136805D01*
X0003805Y0136433D01*
X0003613Y0136056D01*
X0003430Y0135675D01*
X0003256Y0135289D01*
X0003092Y0134899D01*
X0002937Y0134506D01*
X0002792Y0134108D01*
X0002657Y0133708D01*
X0002531Y0133304D01*
X0002415Y0132897D01*
X0002309Y0132488D01*
X0002212Y0132076D01*
X0002126Y0131662D01*
X0002050Y0131246D01*
X0001984Y0130829D01*
X0001928Y0130409D01*
X0001882Y0129989D01*
X0001846Y0129568D01*
X0001820Y0129145D01*
X0001805Y0128723D01*
X0001800Y0128300D01*
X0001800Y0019300D01*
X0001805Y0018877D01*
X0001820Y0018455D01*
X0001846Y0018032D01*
X0001882Y0017611D01*
X0001928Y0017191D01*
X0001984Y0016771D01*
X0002050Y0016354D01*
X0002126Y0015938D01*
X0002212Y0015524D01*
X0002309Y0015112D01*
X0002415Y0014703D01*
X0002531Y0014296D01*
X0002657Y0013892D01*
X0002792Y0013492D01*
X0002937Y0013094D01*
X0003092Y0012701D01*
X0003256Y0012311D01*
X0003430Y0011925D01*
X0003613Y0011544D01*
X0003805Y0011167D01*
X0004006Y0010795D01*
X0004216Y0010428D01*
X0004434Y0010066D01*
X0004662Y0009710D01*
X0004898Y0009359D01*
X0005142Y0009014D01*
X0005395Y0008675D01*
X0005656Y0008342D01*
X0005924Y0008015D01*
X0006201Y0007695D01*
X0006485Y0007382D01*
X0006777Y0007076D01*
X0007076Y0006777D01*
X0007382Y0006485D01*
X0007695Y0006201D01*
X0008015Y0005924D01*
X0008342Y0005656D01*
X0008675Y0005395D01*
X0009014Y0005142D01*
X0009359Y0004898D01*
X0009710Y0004662D01*
X0010066Y0004434D01*
X0010428Y0004216D01*
X0010795Y0004006D01*
X0011167Y0003805D01*
X0011544Y0003613D01*
X0011925Y0003430D01*
X0012311Y0003256D01*
X0012701Y0003092D01*
X0013094Y0002937D01*
X0013492Y0002792D01*
X0013892Y0002657D01*
X0014296Y0002531D01*
X0014703Y0002415D01*
X0015112Y0002309D01*
X0015524Y0002212D01*
X0015938Y0002126D01*
X0016354Y0002050D01*
X0016771Y0001984D01*
X0017191Y0001928D01*
X0017611Y0001882D01*
X0018032Y0001846D01*
X0018455Y0001820D01*
X0018877Y0001805D01*
X0019300Y0001800D01*
D11*
X0012300Y0019800D02*
X0012302Y0019984D01*
X0012309Y0020168D01*
X0012320Y0020352D01*
X0012336Y0020535D01*
X0012356Y0020718D01*
X0012381Y0020900D01*
X0012410Y0021082D01*
X0012444Y0021263D01*
X0012482Y0021443D01*
X0012525Y0021622D01*
X0012572Y0021800D01*
X0012623Y0021977D01*
X0012679Y0022153D01*
X0012738Y0022327D01*
X0012803Y0022499D01*
X0012871Y0022670D01*
X0012943Y0022839D01*
X0013020Y0023007D01*
X0013101Y0023172D01*
X0013186Y0023335D01*
X0013274Y0023497D01*
X0013367Y0023656D01*
X0013464Y0023812D01*
X0013564Y0023967D01*
X0013668Y0024119D01*
X0013776Y0024268D01*
X0013887Y0024414D01*
X0014002Y0024558D01*
X0014121Y0024699D01*
X0014243Y0024837D01*
X0014368Y0024972D01*
X0014497Y0025103D01*
X0014628Y0025232D01*
X0014763Y0025357D01*
X0014901Y0025479D01*
X0015042Y0025598D01*
X0015186Y0025713D01*
X0015332Y0025824D01*
X0015481Y0025932D01*
X0015633Y0026036D01*
X0015788Y0026136D01*
X0015944Y0026233D01*
X0016103Y0026326D01*
X0016265Y0026414D01*
X0016428Y0026499D01*
X0016593Y0026580D01*
X0016761Y0026657D01*
X0016930Y0026729D01*
X0017101Y0026797D01*
X0017273Y0026862D01*
X0017447Y0026921D01*
X0017623Y0026977D01*
X0017800Y0027028D01*
X0017978Y0027075D01*
X0018157Y0027118D01*
X0018337Y0027156D01*
X0018518Y0027190D01*
X0018700Y0027219D01*
X0018882Y0027244D01*
X0019065Y0027264D01*
X0019248Y0027280D01*
X0019432Y0027291D01*
X0019616Y0027298D01*
X0019800Y0027300D01*
X0019984Y0027298D01*
X0020168Y0027291D01*
X0020352Y0027280D01*
X0020535Y0027264D01*
X0020718Y0027244D01*
X0020900Y0027219D01*
X0021082Y0027190D01*
X0021263Y0027156D01*
X0021443Y0027118D01*
X0021622Y0027075D01*
X0021800Y0027028D01*
X0021977Y0026977D01*
X0022153Y0026921D01*
X0022327Y0026862D01*
X0022499Y0026797D01*
X0022670Y0026729D01*
X0022839Y0026657D01*
X0023007Y0026580D01*
X0023172Y0026499D01*
X0023335Y0026414D01*
X0023497Y0026326D01*
X0023656Y0026233D01*
X0023812Y0026136D01*
X0023967Y0026036D01*
X0024119Y0025932D01*
X0024268Y0025824D01*
X0024414Y0025713D01*
X0024558Y0025598D01*
X0024699Y0025479D01*
X0024837Y0025357D01*
X0024972Y0025232D01*
X0025103Y0025103D01*
X0025232Y0024972D01*
X0025357Y0024837D01*
X0025479Y0024699D01*
X0025598Y0024558D01*
X0025713Y0024414D01*
X0025824Y0024268D01*
X0025932Y0024119D01*
X0026036Y0023967D01*
X0026136Y0023812D01*
X0026233Y0023656D01*
X0026326Y0023497D01*
X0026414Y0023335D01*
X0026499Y0023172D01*
X0026580Y0023007D01*
X0026657Y0022839D01*
X0026729Y0022670D01*
X0026797Y0022499D01*
X0026862Y0022327D01*
X0026921Y0022153D01*
X0026977Y0021977D01*
X0027028Y0021800D01*
X0027075Y0021622D01*
X0027118Y0021443D01*
X0027156Y0021263D01*
X0027190Y0021082D01*
X0027219Y0020900D01*
X0027244Y0020718D01*
X0027264Y0020535D01*
X0027280Y0020352D01*
X0027291Y0020168D01*
X0027298Y0019984D01*
X0027300Y0019800D01*
X0027298Y0019616D01*
X0027291Y0019432D01*
X0027280Y0019248D01*
X0027264Y0019065D01*
X0027244Y0018882D01*
X0027219Y0018700D01*
X0027190Y0018518D01*
X0027156Y0018337D01*
X0027118Y0018157D01*
X0027075Y0017978D01*
X0027028Y0017800D01*
X0026977Y0017623D01*
X0026921Y0017447D01*
X0026862Y0017273D01*
X0026797Y0017101D01*
X0026729Y0016930D01*
X0026657Y0016761D01*
X0026580Y0016593D01*
X0026499Y0016428D01*
X0026414Y0016265D01*
X0026326Y0016103D01*
X0026233Y0015944D01*
X0026136Y0015788D01*
X0026036Y0015633D01*
X0025932Y0015481D01*
X0025824Y0015332D01*
X0025713Y0015186D01*
X0025598Y0015042D01*
X0025479Y0014901D01*
X0025357Y0014763D01*
X0025232Y0014628D01*
X0025103Y0014497D01*
X0024972Y0014368D01*
X0024837Y0014243D01*
X0024699Y0014121D01*
X0024558Y0014002D01*
X0024414Y0013887D01*
X0024268Y0013776D01*
X0024119Y0013668D01*
X0023967Y0013564D01*
X0023812Y0013464D01*
X0023656Y0013367D01*
X0023497Y0013274D01*
X0023335Y0013186D01*
X0023172Y0013101D01*
X0023007Y0013020D01*
X0022839Y0012943D01*
X0022670Y0012871D01*
X0022499Y0012803D01*
X0022327Y0012738D01*
X0022153Y0012679D01*
X0021977Y0012623D01*
X0021800Y0012572D01*
X0021622Y0012525D01*
X0021443Y0012482D01*
X0021263Y0012444D01*
X0021082Y0012410D01*
X0020900Y0012381D01*
X0020718Y0012356D01*
X0020535Y0012336D01*
X0020352Y0012320D01*
X0020168Y0012309D01*
X0019984Y0012302D01*
X0019800Y0012300D01*
X0019616Y0012302D01*
X0019432Y0012309D01*
X0019248Y0012320D01*
X0019065Y0012336D01*
X0018882Y0012356D01*
X0018700Y0012381D01*
X0018518Y0012410D01*
X0018337Y0012444D01*
X0018157Y0012482D01*
X0017978Y0012525D01*
X0017800Y0012572D01*
X0017623Y0012623D01*
X0017447Y0012679D01*
X0017273Y0012738D01*
X0017101Y0012803D01*
X0016930Y0012871D01*
X0016761Y0012943D01*
X0016593Y0013020D01*
X0016428Y0013101D01*
X0016265Y0013186D01*
X0016103Y0013274D01*
X0015944Y0013367D01*
X0015788Y0013464D01*
X0015633Y0013564D01*
X0015481Y0013668D01*
X0015332Y0013776D01*
X0015186Y0013887D01*
X0015042Y0014002D01*
X0014901Y0014121D01*
X0014763Y0014243D01*
X0014628Y0014368D01*
X0014497Y0014497D01*
X0014368Y0014628D01*
X0014243Y0014763D01*
X0014121Y0014901D01*
X0014002Y0015042D01*
X0013887Y0015186D01*
X0013776Y0015332D01*
X0013668Y0015481D01*
X0013564Y0015633D01*
X0013464Y0015788D01*
X0013367Y0015944D01*
X0013274Y0016103D01*
X0013186Y0016265D01*
X0013101Y0016428D01*
X0013020Y0016593D01*
X0012943Y0016761D01*
X0012871Y0016930D01*
X0012803Y0017101D01*
X0012738Y0017273D01*
X0012679Y0017447D01*
X0012623Y0017623D01*
X0012572Y0017800D01*
X0012525Y0017978D01*
X0012482Y0018157D01*
X0012444Y0018337D01*
X0012410Y0018518D01*
X0012381Y0018700D01*
X0012356Y0018882D01*
X0012336Y0019065D01*
X0012320Y0019248D01*
X0012309Y0019432D01*
X0012302Y0019616D01*
X0012300Y0019800D01*
X0012300Y0127800D02*
X0012302Y0127984D01*
X0012309Y0128168D01*
X0012320Y0128352D01*
X0012336Y0128535D01*
X0012356Y0128718D01*
X0012381Y0128900D01*
X0012410Y0129082D01*
X0012444Y0129263D01*
X0012482Y0129443D01*
X0012525Y0129622D01*
X0012572Y0129800D01*
X0012623Y0129977D01*
X0012679Y0130153D01*
X0012738Y0130327D01*
X0012803Y0130499D01*
X0012871Y0130670D01*
X0012943Y0130839D01*
X0013020Y0131007D01*
X0013101Y0131172D01*
X0013186Y0131335D01*
X0013274Y0131497D01*
X0013367Y0131656D01*
X0013464Y0131812D01*
X0013564Y0131967D01*
X0013668Y0132119D01*
X0013776Y0132268D01*
X0013887Y0132414D01*
X0014002Y0132558D01*
X0014121Y0132699D01*
X0014243Y0132837D01*
X0014368Y0132972D01*
X0014497Y0133103D01*
X0014628Y0133232D01*
X0014763Y0133357D01*
X0014901Y0133479D01*
X0015042Y0133598D01*
X0015186Y0133713D01*
X0015332Y0133824D01*
X0015481Y0133932D01*
X0015633Y0134036D01*
X0015788Y0134136D01*
X0015944Y0134233D01*
X0016103Y0134326D01*
X0016265Y0134414D01*
X0016428Y0134499D01*
X0016593Y0134580D01*
X0016761Y0134657D01*
X0016930Y0134729D01*
X0017101Y0134797D01*
X0017273Y0134862D01*
X0017447Y0134921D01*
X0017623Y0134977D01*
X0017800Y0135028D01*
X0017978Y0135075D01*
X0018157Y0135118D01*
X0018337Y0135156D01*
X0018518Y0135190D01*
X0018700Y0135219D01*
X0018882Y0135244D01*
X0019065Y0135264D01*
X0019248Y0135280D01*
X0019432Y0135291D01*
X0019616Y0135298D01*
X0019800Y0135300D01*
X0019984Y0135298D01*
X0020168Y0135291D01*
X0020352Y0135280D01*
X0020535Y0135264D01*
X0020718Y0135244D01*
X0020900Y0135219D01*
X0021082Y0135190D01*
X0021263Y0135156D01*
X0021443Y0135118D01*
X0021622Y0135075D01*
X0021800Y0135028D01*
X0021977Y0134977D01*
X0022153Y0134921D01*
X0022327Y0134862D01*
X0022499Y0134797D01*
X0022670Y0134729D01*
X0022839Y0134657D01*
X0023007Y0134580D01*
X0023172Y0134499D01*
X0023335Y0134414D01*
X0023497Y0134326D01*
X0023656Y0134233D01*
X0023812Y0134136D01*
X0023967Y0134036D01*
X0024119Y0133932D01*
X0024268Y0133824D01*
X0024414Y0133713D01*
X0024558Y0133598D01*
X0024699Y0133479D01*
X0024837Y0133357D01*
X0024972Y0133232D01*
X0025103Y0133103D01*
X0025232Y0132972D01*
X0025357Y0132837D01*
X0025479Y0132699D01*
X0025598Y0132558D01*
X0025713Y0132414D01*
X0025824Y0132268D01*
X0025932Y0132119D01*
X0026036Y0131967D01*
X0026136Y0131812D01*
X0026233Y0131656D01*
X0026326Y0131497D01*
X0026414Y0131335D01*
X0026499Y0131172D01*
X0026580Y0131007D01*
X0026657Y0130839D01*
X0026729Y0130670D01*
X0026797Y0130499D01*
X0026862Y0130327D01*
X0026921Y0130153D01*
X0026977Y0129977D01*
X0027028Y0129800D01*
X0027075Y0129622D01*
X0027118Y0129443D01*
X0027156Y0129263D01*
X0027190Y0129082D01*
X0027219Y0128900D01*
X0027244Y0128718D01*
X0027264Y0128535D01*
X0027280Y0128352D01*
X0027291Y0128168D01*
X0027298Y0127984D01*
X0027300Y0127800D01*
X0027298Y0127616D01*
X0027291Y0127432D01*
X0027280Y0127248D01*
X0027264Y0127065D01*
X0027244Y0126882D01*
X0027219Y0126700D01*
X0027190Y0126518D01*
X0027156Y0126337D01*
X0027118Y0126157D01*
X0027075Y0125978D01*
X0027028Y0125800D01*
X0026977Y0125623D01*
X0026921Y0125447D01*
X0026862Y0125273D01*
X0026797Y0125101D01*
X0026729Y0124930D01*
X0026657Y0124761D01*
X0026580Y0124593D01*
X0026499Y0124428D01*
X0026414Y0124265D01*
X0026326Y0124103D01*
X0026233Y0123944D01*
X0026136Y0123788D01*
X0026036Y0123633D01*
X0025932Y0123481D01*
X0025824Y0123332D01*
X0025713Y0123186D01*
X0025598Y0123042D01*
X0025479Y0122901D01*
X0025357Y0122763D01*
X0025232Y0122628D01*
X0025103Y0122497D01*
X0024972Y0122368D01*
X0024837Y0122243D01*
X0024699Y0122121D01*
X0024558Y0122002D01*
X0024414Y0121887D01*
X0024268Y0121776D01*
X0024119Y0121668D01*
X0023967Y0121564D01*
X0023812Y0121464D01*
X0023656Y0121367D01*
X0023497Y0121274D01*
X0023335Y0121186D01*
X0023172Y0121101D01*
X0023007Y0121020D01*
X0022839Y0120943D01*
X0022670Y0120871D01*
X0022499Y0120803D01*
X0022327Y0120738D01*
X0022153Y0120679D01*
X0021977Y0120623D01*
X0021800Y0120572D01*
X0021622Y0120525D01*
X0021443Y0120482D01*
X0021263Y0120444D01*
X0021082Y0120410D01*
X0020900Y0120381D01*
X0020718Y0120356D01*
X0020535Y0120336D01*
X0020352Y0120320D01*
X0020168Y0120309D01*
X0019984Y0120302D01*
X0019800Y0120300D01*
X0019616Y0120302D01*
X0019432Y0120309D01*
X0019248Y0120320D01*
X0019065Y0120336D01*
X0018882Y0120356D01*
X0018700Y0120381D01*
X0018518Y0120410D01*
X0018337Y0120444D01*
X0018157Y0120482D01*
X0017978Y0120525D01*
X0017800Y0120572D01*
X0017623Y0120623D01*
X0017447Y0120679D01*
X0017273Y0120738D01*
X0017101Y0120803D01*
X0016930Y0120871D01*
X0016761Y0120943D01*
X0016593Y0121020D01*
X0016428Y0121101D01*
X0016265Y0121186D01*
X0016103Y0121274D01*
X0015944Y0121367D01*
X0015788Y0121464D01*
X0015633Y0121564D01*
X0015481Y0121668D01*
X0015332Y0121776D01*
X0015186Y0121887D01*
X0015042Y0122002D01*
X0014901Y0122121D01*
X0014763Y0122243D01*
X0014628Y0122368D01*
X0014497Y0122497D01*
X0014368Y0122628D01*
X0014243Y0122763D01*
X0014121Y0122901D01*
X0014002Y0123042D01*
X0013887Y0123186D01*
X0013776Y0123332D01*
X0013668Y0123481D01*
X0013564Y0123633D01*
X0013464Y0123788D01*
X0013367Y0123944D01*
X0013274Y0124103D01*
X0013186Y0124265D01*
X0013101Y0124428D01*
X0013020Y0124593D01*
X0012943Y0124761D01*
X0012871Y0124930D01*
X0012803Y0125101D01*
X0012738Y0125273D01*
X0012679Y0125447D01*
X0012623Y0125623D01*
X0012572Y0125800D01*
X0012525Y0125978D01*
X0012482Y0126157D01*
X0012444Y0126337D01*
X0012410Y0126518D01*
X0012381Y0126700D01*
X0012356Y0126882D01*
X0012336Y0127065D01*
X0012320Y0127248D01*
X0012309Y0127432D01*
X0012302Y0127616D01*
X0012300Y0127800D01*
X0149300Y0127800D02*
X0149302Y0127984D01*
X0149309Y0128168D01*
X0149320Y0128352D01*
X0149336Y0128535D01*
X0149356Y0128718D01*
X0149381Y0128900D01*
X0149410Y0129082D01*
X0149444Y0129263D01*
X0149482Y0129443D01*
X0149525Y0129622D01*
X0149572Y0129800D01*
X0149623Y0129977D01*
X0149679Y0130153D01*
X0149738Y0130327D01*
X0149803Y0130499D01*
X0149871Y0130670D01*
X0149943Y0130839D01*
X0150020Y0131007D01*
X0150101Y0131172D01*
X0150186Y0131335D01*
X0150274Y0131497D01*
X0150367Y0131656D01*
X0150464Y0131812D01*
X0150564Y0131967D01*
X0150668Y0132119D01*
X0150776Y0132268D01*
X0150887Y0132414D01*
X0151002Y0132558D01*
X0151121Y0132699D01*
X0151243Y0132837D01*
X0151368Y0132972D01*
X0151497Y0133103D01*
X0151628Y0133232D01*
X0151763Y0133357D01*
X0151901Y0133479D01*
X0152042Y0133598D01*
X0152186Y0133713D01*
X0152332Y0133824D01*
X0152481Y0133932D01*
X0152633Y0134036D01*
X0152788Y0134136D01*
X0152944Y0134233D01*
X0153103Y0134326D01*
X0153265Y0134414D01*
X0153428Y0134499D01*
X0153593Y0134580D01*
X0153761Y0134657D01*
X0153930Y0134729D01*
X0154101Y0134797D01*
X0154273Y0134862D01*
X0154447Y0134921D01*
X0154623Y0134977D01*
X0154800Y0135028D01*
X0154978Y0135075D01*
X0155157Y0135118D01*
X0155337Y0135156D01*
X0155518Y0135190D01*
X0155700Y0135219D01*
X0155882Y0135244D01*
X0156065Y0135264D01*
X0156248Y0135280D01*
X0156432Y0135291D01*
X0156616Y0135298D01*
X0156800Y0135300D01*
X0156984Y0135298D01*
X0157168Y0135291D01*
X0157352Y0135280D01*
X0157535Y0135264D01*
X0157718Y0135244D01*
X0157900Y0135219D01*
X0158082Y0135190D01*
X0158263Y0135156D01*
X0158443Y0135118D01*
X0158622Y0135075D01*
X0158800Y0135028D01*
X0158977Y0134977D01*
X0159153Y0134921D01*
X0159327Y0134862D01*
X0159499Y0134797D01*
X0159670Y0134729D01*
X0159839Y0134657D01*
X0160007Y0134580D01*
X0160172Y0134499D01*
X0160335Y0134414D01*
X0160497Y0134326D01*
X0160656Y0134233D01*
X0160812Y0134136D01*
X0160967Y0134036D01*
X0161119Y0133932D01*
X0161268Y0133824D01*
X0161414Y0133713D01*
X0161558Y0133598D01*
X0161699Y0133479D01*
X0161837Y0133357D01*
X0161972Y0133232D01*
X0162103Y0133103D01*
X0162232Y0132972D01*
X0162357Y0132837D01*
X0162479Y0132699D01*
X0162598Y0132558D01*
X0162713Y0132414D01*
X0162824Y0132268D01*
X0162932Y0132119D01*
X0163036Y0131967D01*
X0163136Y0131812D01*
X0163233Y0131656D01*
X0163326Y0131497D01*
X0163414Y0131335D01*
X0163499Y0131172D01*
X0163580Y0131007D01*
X0163657Y0130839D01*
X0163729Y0130670D01*
X0163797Y0130499D01*
X0163862Y0130327D01*
X0163921Y0130153D01*
X0163977Y0129977D01*
X0164028Y0129800D01*
X0164075Y0129622D01*
X0164118Y0129443D01*
X0164156Y0129263D01*
X0164190Y0129082D01*
X0164219Y0128900D01*
X0164244Y0128718D01*
X0164264Y0128535D01*
X0164280Y0128352D01*
X0164291Y0128168D01*
X0164298Y0127984D01*
X0164300Y0127800D01*
X0164298Y0127616D01*
X0164291Y0127432D01*
X0164280Y0127248D01*
X0164264Y0127065D01*
X0164244Y0126882D01*
X0164219Y0126700D01*
X0164190Y0126518D01*
X0164156Y0126337D01*
X0164118Y0126157D01*
X0164075Y0125978D01*
X0164028Y0125800D01*
X0163977Y0125623D01*
X0163921Y0125447D01*
X0163862Y0125273D01*
X0163797Y0125101D01*
X0163729Y0124930D01*
X0163657Y0124761D01*
X0163580Y0124593D01*
X0163499Y0124428D01*
X0163414Y0124265D01*
X0163326Y0124103D01*
X0163233Y0123944D01*
X0163136Y0123788D01*
X0163036Y0123633D01*
X0162932Y0123481D01*
X0162824Y0123332D01*
X0162713Y0123186D01*
X0162598Y0123042D01*
X0162479Y0122901D01*
X0162357Y0122763D01*
X0162232Y0122628D01*
X0162103Y0122497D01*
X0161972Y0122368D01*
X0161837Y0122243D01*
X0161699Y0122121D01*
X0161558Y0122002D01*
X0161414Y0121887D01*
X0161268Y0121776D01*
X0161119Y0121668D01*
X0160967Y0121564D01*
X0160812Y0121464D01*
X0160656Y0121367D01*
X0160497Y0121274D01*
X0160335Y0121186D01*
X0160172Y0121101D01*
X0160007Y0121020D01*
X0159839Y0120943D01*
X0159670Y0120871D01*
X0159499Y0120803D01*
X0159327Y0120738D01*
X0159153Y0120679D01*
X0158977Y0120623D01*
X0158800Y0120572D01*
X0158622Y0120525D01*
X0158443Y0120482D01*
X0158263Y0120444D01*
X0158082Y0120410D01*
X0157900Y0120381D01*
X0157718Y0120356D01*
X0157535Y0120336D01*
X0157352Y0120320D01*
X0157168Y0120309D01*
X0156984Y0120302D01*
X0156800Y0120300D01*
X0156616Y0120302D01*
X0156432Y0120309D01*
X0156248Y0120320D01*
X0156065Y0120336D01*
X0155882Y0120356D01*
X0155700Y0120381D01*
X0155518Y0120410D01*
X0155337Y0120444D01*
X0155157Y0120482D01*
X0154978Y0120525D01*
X0154800Y0120572D01*
X0154623Y0120623D01*
X0154447Y0120679D01*
X0154273Y0120738D01*
X0154101Y0120803D01*
X0153930Y0120871D01*
X0153761Y0120943D01*
X0153593Y0121020D01*
X0153428Y0121101D01*
X0153265Y0121186D01*
X0153103Y0121274D01*
X0152944Y0121367D01*
X0152788Y0121464D01*
X0152633Y0121564D01*
X0152481Y0121668D01*
X0152332Y0121776D01*
X0152186Y0121887D01*
X0152042Y0122002D01*
X0151901Y0122121D01*
X0151763Y0122243D01*
X0151628Y0122368D01*
X0151497Y0122497D01*
X0151368Y0122628D01*
X0151243Y0122763D01*
X0151121Y0122901D01*
X0151002Y0123042D01*
X0150887Y0123186D01*
X0150776Y0123332D01*
X0150668Y0123481D01*
X0150564Y0123633D01*
X0150464Y0123788D01*
X0150367Y0123944D01*
X0150274Y0124103D01*
X0150186Y0124265D01*
X0150101Y0124428D01*
X0150020Y0124593D01*
X0149943Y0124761D01*
X0149871Y0124930D01*
X0149803Y0125101D01*
X0149738Y0125273D01*
X0149679Y0125447D01*
X0149623Y0125623D01*
X0149572Y0125800D01*
X0149525Y0125978D01*
X0149482Y0126157D01*
X0149444Y0126337D01*
X0149410Y0126518D01*
X0149381Y0126700D01*
X0149356Y0126882D01*
X0149336Y0127065D01*
X0149320Y0127248D01*
X0149309Y0127432D01*
X0149302Y0127616D01*
X0149300Y0127800D01*
X0149300Y0019800D02*
X0149302Y0019984D01*
X0149309Y0020168D01*
X0149320Y0020352D01*
X0149336Y0020535D01*
X0149356Y0020718D01*
X0149381Y0020900D01*
X0149410Y0021082D01*
X0149444Y0021263D01*
X0149482Y0021443D01*
X0149525Y0021622D01*
X0149572Y0021800D01*
X0149623Y0021977D01*
X0149679Y0022153D01*
X0149738Y0022327D01*
X0149803Y0022499D01*
X0149871Y0022670D01*
X0149943Y0022839D01*
X0150020Y0023007D01*
X0150101Y0023172D01*
X0150186Y0023335D01*
X0150274Y0023497D01*
X0150367Y0023656D01*
X0150464Y0023812D01*
X0150564Y0023967D01*
X0150668Y0024119D01*
X0150776Y0024268D01*
X0150887Y0024414D01*
X0151002Y0024558D01*
X0151121Y0024699D01*
X0151243Y0024837D01*
X0151368Y0024972D01*
X0151497Y0025103D01*
X0151628Y0025232D01*
X0151763Y0025357D01*
X0151901Y0025479D01*
X0152042Y0025598D01*
X0152186Y0025713D01*
X0152332Y0025824D01*
X0152481Y0025932D01*
X0152633Y0026036D01*
X0152788Y0026136D01*
X0152944Y0026233D01*
X0153103Y0026326D01*
X0153265Y0026414D01*
X0153428Y0026499D01*
X0153593Y0026580D01*
X0153761Y0026657D01*
X0153930Y0026729D01*
X0154101Y0026797D01*
X0154273Y0026862D01*
X0154447Y0026921D01*
X0154623Y0026977D01*
X0154800Y0027028D01*
X0154978Y0027075D01*
X0155157Y0027118D01*
X0155337Y0027156D01*
X0155518Y0027190D01*
X0155700Y0027219D01*
X0155882Y0027244D01*
X0156065Y0027264D01*
X0156248Y0027280D01*
X0156432Y0027291D01*
X0156616Y0027298D01*
X0156800Y0027300D01*
X0156984Y0027298D01*
X0157168Y0027291D01*
X0157352Y0027280D01*
X0157535Y0027264D01*
X0157718Y0027244D01*
X0157900Y0027219D01*
X0158082Y0027190D01*
X0158263Y0027156D01*
X0158443Y0027118D01*
X0158622Y0027075D01*
X0158800Y0027028D01*
X0158977Y0026977D01*
X0159153Y0026921D01*
X0159327Y0026862D01*
X0159499Y0026797D01*
X0159670Y0026729D01*
X0159839Y0026657D01*
X0160007Y0026580D01*
X0160172Y0026499D01*
X0160335Y0026414D01*
X0160497Y0026326D01*
X0160656Y0026233D01*
X0160812Y0026136D01*
X0160967Y0026036D01*
X0161119Y0025932D01*
X0161268Y0025824D01*
X0161414Y0025713D01*
X0161558Y0025598D01*
X0161699Y0025479D01*
X0161837Y0025357D01*
X0161972Y0025232D01*
X0162103Y0025103D01*
X0162232Y0024972D01*
X0162357Y0024837D01*
X0162479Y0024699D01*
X0162598Y0024558D01*
X0162713Y0024414D01*
X0162824Y0024268D01*
X0162932Y0024119D01*
X0163036Y0023967D01*
X0163136Y0023812D01*
X0163233Y0023656D01*
X0163326Y0023497D01*
X0163414Y0023335D01*
X0163499Y0023172D01*
X0163580Y0023007D01*
X0163657Y0022839D01*
X0163729Y0022670D01*
X0163797Y0022499D01*
X0163862Y0022327D01*
X0163921Y0022153D01*
X0163977Y0021977D01*
X0164028Y0021800D01*
X0164075Y0021622D01*
X0164118Y0021443D01*
X0164156Y0021263D01*
X0164190Y0021082D01*
X0164219Y0020900D01*
X0164244Y0020718D01*
X0164264Y0020535D01*
X0164280Y0020352D01*
X0164291Y0020168D01*
X0164298Y0019984D01*
X0164300Y0019800D01*
X0164298Y0019616D01*
X0164291Y0019432D01*
X0164280Y0019248D01*
X0164264Y0019065D01*
X0164244Y0018882D01*
X0164219Y0018700D01*
X0164190Y0018518D01*
X0164156Y0018337D01*
X0164118Y0018157D01*
X0164075Y0017978D01*
X0164028Y0017800D01*
X0163977Y0017623D01*
X0163921Y0017447D01*
X0163862Y0017273D01*
X0163797Y0017101D01*
X0163729Y0016930D01*
X0163657Y0016761D01*
X0163580Y0016593D01*
X0163499Y0016428D01*
X0163414Y0016265D01*
X0163326Y0016103D01*
X0163233Y0015944D01*
X0163136Y0015788D01*
X0163036Y0015633D01*
X0162932Y0015481D01*
X0162824Y0015332D01*
X0162713Y0015186D01*
X0162598Y0015042D01*
X0162479Y0014901D01*
X0162357Y0014763D01*
X0162232Y0014628D01*
X0162103Y0014497D01*
X0161972Y0014368D01*
X0161837Y0014243D01*
X0161699Y0014121D01*
X0161558Y0014002D01*
X0161414Y0013887D01*
X0161268Y0013776D01*
X0161119Y0013668D01*
X0160967Y0013564D01*
X0160812Y0013464D01*
X0160656Y0013367D01*
X0160497Y0013274D01*
X0160335Y0013186D01*
X0160172Y0013101D01*
X0160007Y0013020D01*
X0159839Y0012943D01*
X0159670Y0012871D01*
X0159499Y0012803D01*
X0159327Y0012738D01*
X0159153Y0012679D01*
X0158977Y0012623D01*
X0158800Y0012572D01*
X0158622Y0012525D01*
X0158443Y0012482D01*
X0158263Y0012444D01*
X0158082Y0012410D01*
X0157900Y0012381D01*
X0157718Y0012356D01*
X0157535Y0012336D01*
X0157352Y0012320D01*
X0157168Y0012309D01*
X0156984Y0012302D01*
X0156800Y0012300D01*
X0156616Y0012302D01*
X0156432Y0012309D01*
X0156248Y0012320D01*
X0156065Y0012336D01*
X0155882Y0012356D01*
X0155700Y0012381D01*
X0155518Y0012410D01*
X0155337Y0012444D01*
X0155157Y0012482D01*
X0154978Y0012525D01*
X0154800Y0012572D01*
X0154623Y0012623D01*
X0154447Y0012679D01*
X0154273Y0012738D01*
X0154101Y0012803D01*
X0153930Y0012871D01*
X0153761Y0012943D01*
X0153593Y0013020D01*
X0153428Y0013101D01*
X0153265Y0013186D01*
X0153103Y0013274D01*
X0152944Y0013367D01*
X0152788Y0013464D01*
X0152633Y0013564D01*
X0152481Y0013668D01*
X0152332Y0013776D01*
X0152186Y0013887D01*
X0152042Y0014002D01*
X0151901Y0014121D01*
X0151763Y0014243D01*
X0151628Y0014368D01*
X0151497Y0014497D01*
X0151368Y0014628D01*
X0151243Y0014763D01*
X0151121Y0014901D01*
X0151002Y0015042D01*
X0150887Y0015186D01*
X0150776Y0015332D01*
X0150668Y0015481D01*
X0150564Y0015633D01*
X0150464Y0015788D01*
X0150367Y0015944D01*
X0150274Y0016103D01*
X0150186Y0016265D01*
X0150101Y0016428D01*
X0150020Y0016593D01*
X0149943Y0016761D01*
X0149871Y0016930D01*
X0149803Y0017101D01*
X0149738Y0017273D01*
X0149679Y0017447D01*
X0149623Y0017623D01*
X0149572Y0017800D01*
X0149525Y0017978D01*
X0149482Y0018157D01*
X0149444Y0018337D01*
X0149410Y0018518D01*
X0149381Y0018700D01*
X0149356Y0018882D01*
X0149336Y0019065D01*
X0149320Y0019248D01*
X0149309Y0019432D01*
X0149302Y0019616D01*
X0149300Y0019800D01*
D12*
X0156800Y0051800D03*
X0156800Y0061800D03*
X0156800Y0071800D03*
X0156800Y0081800D03*
X0128800Y0138800D03*
X0118800Y0138800D03*
X0011800Y0101800D03*
X0011800Y0091800D03*
X0011800Y0081800D03*
X0011800Y0071800D03*
X0011800Y0061800D03*
X0011800Y0051800D03*
D13*
X0015063Y0054551D02*
X0153537Y0054551D01*
X0153195Y0054209D02*
X0152547Y0052646D01*
X0152547Y0050954D01*
X0153195Y0049391D01*
X0154391Y0048195D01*
X0155954Y0047547D01*
X0157646Y0047547D01*
X0159209Y0048195D01*
X0160405Y0049391D01*
X0161053Y0050954D01*
X0161053Y0052646D01*
X0160405Y0054209D01*
X0159209Y0055405D01*
X0157646Y0056053D01*
X0155954Y0056053D01*
X0154391Y0055405D01*
X0153195Y0054209D01*
X0152674Y0052952D02*
X0015926Y0052952D01*
X0016053Y0052646D02*
X0015405Y0054209D01*
X0014209Y0055405D01*
X0012646Y0056053D01*
X0010954Y0056053D01*
X0009391Y0055405D01*
X0008195Y0054209D01*
X0007547Y0052646D01*
X0007547Y0050954D01*
X0008195Y0049391D01*
X0009391Y0048195D01*
X0010954Y0047547D01*
X0012646Y0047547D01*
X0014209Y0048195D01*
X0015405Y0049391D01*
X0016053Y0050954D01*
X0016053Y0052646D01*
X0016053Y0051354D02*
X0152547Y0051354D01*
X0153044Y0049755D02*
X0015556Y0049755D01*
X0014118Y0048157D02*
X0154482Y0048157D01*
X0159118Y0048157D02*
X0172500Y0048157D01*
X0172500Y0049755D02*
X0160556Y0049755D01*
X0161053Y0051354D02*
X0172500Y0051354D01*
X0172500Y0052952D02*
X0160926Y0052952D01*
X0160063Y0054551D02*
X0172500Y0054551D01*
X0172500Y0056149D02*
X0004100Y0056149D01*
X0004100Y0057748D02*
X0009291Y0057748D01*
X0009309Y0057735D02*
X0009976Y0057395D01*
X0010687Y0057164D01*
X0011426Y0057047D01*
X0011616Y0057047D01*
X0011616Y0061616D01*
X0007047Y0061616D01*
X0007047Y0061426D01*
X0007164Y0060687D01*
X0007395Y0059976D01*
X0007735Y0059309D01*
X0008175Y0058704D01*
X0008704Y0058175D01*
X0009309Y0057735D01*
X0007716Y0059346D02*
X0004100Y0059346D01*
X0004100Y0060945D02*
X0007123Y0060945D01*
X0007047Y0061984D02*
X0007047Y0062174D01*
X0007164Y0062913D01*
X0007395Y0063624D01*
X0007735Y0064291D01*
X0008175Y0064896D01*
X0008704Y0065425D01*
X0009309Y0065865D01*
X0009976Y0066205D01*
X0010687Y0066436D01*
X0011426Y0066553D01*
X0011616Y0066553D01*
X0011616Y0061984D01*
X0011616Y0061616D01*
X0011984Y0061616D01*
X0011984Y0057047D01*
X0012174Y0057047D01*
X0012913Y0057164D01*
X0013624Y0057395D01*
X0014291Y0057735D01*
X0014896Y0058175D01*
X0015425Y0058704D01*
X0015865Y0059309D01*
X0016205Y0059976D01*
X0016436Y0060687D01*
X0016553Y0061426D01*
X0016553Y0061616D01*
X0011984Y0061616D01*
X0011984Y0061984D01*
X0011616Y0061984D01*
X0007047Y0061984D01*
X0007106Y0062543D02*
X0004100Y0062543D01*
X0004100Y0064142D02*
X0007659Y0064142D01*
X0009138Y0065740D02*
X0004100Y0065740D01*
X0004100Y0067339D02*
X0172500Y0067339D01*
X0172500Y0068937D02*
X0159952Y0068937D01*
X0160405Y0069391D02*
X0159209Y0068195D01*
X0157646Y0067547D01*
X0155954Y0067547D01*
X0154391Y0068195D01*
X0153195Y0069391D01*
X0152547Y0070954D01*
X0152547Y0072646D01*
X0153195Y0074209D01*
X0154391Y0075405D01*
X0155954Y0076053D01*
X0157646Y0076053D01*
X0159209Y0075405D01*
X0160405Y0074209D01*
X0161053Y0072646D01*
X0161053Y0070954D01*
X0160405Y0069391D01*
X0160880Y0070536D02*
X0172500Y0070536D01*
X0172500Y0072134D02*
X0161053Y0072134D01*
X0160602Y0073733D02*
X0172500Y0073733D01*
X0172500Y0075332D02*
X0159283Y0075332D01*
X0157646Y0077547D02*
X0159209Y0078195D01*
X0160405Y0079391D01*
X0161053Y0080954D01*
X0161053Y0082646D01*
X0160405Y0084209D01*
X0159209Y0085405D01*
X0157646Y0086053D01*
X0155954Y0086053D01*
X0154391Y0085405D01*
X0153195Y0084209D01*
X0152547Y0082646D01*
X0152547Y0080954D01*
X0153195Y0079391D01*
X0154391Y0078195D01*
X0155954Y0077547D01*
X0157646Y0077547D01*
X0159543Y0078529D02*
X0172500Y0078529D01*
X0172500Y0080127D02*
X0160710Y0080127D01*
X0161053Y0081726D02*
X0172500Y0081726D01*
X0172500Y0083324D02*
X0160772Y0083324D01*
X0159692Y0084923D02*
X0172500Y0084923D01*
X0172500Y0086521D02*
X0004100Y0086521D01*
X0004100Y0084923D02*
X0008908Y0084923D01*
X0009391Y0085405D02*
X0008195Y0084209D01*
X0007547Y0082646D01*
X0007547Y0080954D01*
X0008195Y0079391D01*
X0009391Y0078195D01*
X0010954Y0077547D01*
X0012646Y0077547D01*
X0014209Y0078195D01*
X0015405Y0079391D01*
X0016053Y0080954D01*
X0016053Y0082646D01*
X0015405Y0084209D01*
X0014209Y0085405D01*
X0012646Y0086053D01*
X0010954Y0086053D01*
X0009391Y0085405D01*
X0007828Y0083324D02*
X0004100Y0083324D01*
X0004100Y0081726D02*
X0007547Y0081726D01*
X0007890Y0080127D02*
X0004100Y0080127D01*
X0004100Y0078529D02*
X0009057Y0078529D01*
X0010954Y0076053D02*
X0009391Y0075405D01*
X0008195Y0074209D01*
X0007547Y0072646D01*
X0007547Y0070954D01*
X0008195Y0069391D01*
X0009391Y0068195D01*
X0010954Y0067547D01*
X0012646Y0067547D01*
X0014209Y0068195D01*
X0015405Y0069391D01*
X0016053Y0070954D01*
X0016053Y0072646D01*
X0015405Y0074209D01*
X0014209Y0075405D01*
X0012646Y0076053D01*
X0010954Y0076053D01*
X0009317Y0075332D02*
X0004100Y0075332D01*
X0004100Y0076930D02*
X0172500Y0076930D01*
X0172500Y0088120D02*
X0014028Y0088120D01*
X0014209Y0088195D02*
X0012646Y0087547D01*
X0010954Y0087547D01*
X0009391Y0088195D01*
X0008195Y0089391D01*
X0007547Y0090954D01*
X0007547Y0092646D01*
X0008195Y0094209D01*
X0009391Y0095405D01*
X0010954Y0096053D01*
X0012646Y0096053D01*
X0014209Y0095405D01*
X0015405Y0094209D01*
X0016053Y0092646D01*
X0016053Y0090954D01*
X0015405Y0089391D01*
X0014209Y0088195D01*
X0015541Y0089718D02*
X0172500Y0089718D01*
X0172500Y0091317D02*
X0016053Y0091317D01*
X0015941Y0092915D02*
X0172500Y0092915D01*
X0172500Y0094514D02*
X0015101Y0094514D01*
X0014209Y0098195D02*
X0012646Y0097547D01*
X0010954Y0097547D01*
X0009391Y0098195D01*
X0008195Y0099391D01*
X0007547Y0100954D01*
X0007547Y0102646D01*
X0008195Y0104209D01*
X0009391Y0105405D01*
X0010954Y0106053D01*
X0012646Y0106053D01*
X0014209Y0105405D01*
X0015405Y0104209D01*
X0016053Y0102646D01*
X0016053Y0100954D01*
X0015405Y0099391D01*
X0014209Y0098195D01*
X0013040Y0097711D02*
X0172500Y0097711D01*
X0172500Y0099309D02*
X0015323Y0099309D01*
X0016034Y0100908D02*
X0172500Y0100908D01*
X0172500Y0102506D02*
X0016053Y0102506D01*
X0015448Y0104105D02*
X0172500Y0104105D01*
X0172500Y0105703D02*
X0013490Y0105703D01*
X0010110Y0105703D02*
X0004100Y0105703D01*
X0004100Y0104105D02*
X0008152Y0104105D01*
X0007547Y0102506D02*
X0004100Y0102506D01*
X0004100Y0100908D02*
X0007566Y0100908D01*
X0008277Y0099309D02*
X0004100Y0099309D01*
X0004100Y0097711D02*
X0010559Y0097711D01*
X0008499Y0094514D02*
X0004100Y0094514D01*
X0004100Y0096112D02*
X0172500Y0096112D01*
X0172500Y0107302D02*
X0004100Y0107302D01*
X0004100Y0108900D02*
X0017366Y0108900D01*
X0017313Y0108911D02*
X0017672Y0108839D01*
X0017738Y0108883D01*
X0019376Y0108776D01*
X0019435Y0108724D01*
X0019800Y0108748D01*
X0020165Y0108724D01*
X0020224Y0108776D01*
X0021862Y0108883D01*
X0021928Y0108839D01*
X0022287Y0108911D01*
X0022652Y0108935D01*
X0022704Y0108994D01*
X0024314Y0109314D01*
X0024384Y0109279D01*
X0024731Y0109397D01*
X0025090Y0109468D01*
X0025134Y0109534D01*
X0026688Y0110061D01*
X0026763Y0110036D01*
X0027091Y0110198D01*
X0027438Y0110316D01*
X0027472Y0110386D01*
X0028945Y0111112D01*
X0029022Y0111097D01*
X0029326Y0111300D01*
X0029654Y0111462D01*
X0029680Y0111537D01*
X0031045Y0112449D01*
X0031123Y0112443D01*
X0031398Y0112685D01*
X0031703Y0112888D01*
X0031718Y0112965D01*
X0032952Y0114048D01*
X0033031Y0114053D01*
X0033272Y0114328D01*
X0033547Y0114569D01*
X0033552Y0114648D01*
X0034635Y0115882D01*
X0034712Y0115897D01*
X0034915Y0116202D01*
X0035157Y0116477D01*
X0035151Y0116555D01*
X0036063Y0117920D01*
X0036138Y0117946D01*
X0036300Y0118274D01*
X0036503Y0118578D01*
X0036488Y0118655D01*
X0037214Y0120128D01*
X0037284Y0120162D01*
X0037402Y0120509D01*
X0037564Y0120837D01*
X0037539Y0120912D01*
X0038066Y0122466D01*
X0038132Y0122510D01*
X0038203Y0122869D01*
X0038321Y0123216D01*
X0038286Y0123286D01*
X0038606Y0124896D01*
X0038665Y0124948D01*
X0038689Y0125313D01*
X0038761Y0125672D01*
X0038717Y0125738D01*
X0038824Y0127376D01*
X0038876Y0127435D01*
X0038852Y0127800D01*
X0038876Y0128165D01*
X0038824Y0128224D01*
X0038717Y0129862D01*
X0038761Y0129928D01*
X0038689Y0130287D01*
X0038665Y0130652D01*
X0038606Y0130704D01*
X0038286Y0132314D01*
X0038321Y0132384D01*
X0038203Y0132731D01*
X0038132Y0133090D01*
X0038066Y0133134D01*
X0037539Y0134688D01*
X0037564Y0134763D01*
X0037402Y0135091D01*
X0037284Y0135438D01*
X0037214Y0135472D01*
X0036488Y0136945D01*
X0036503Y0137022D01*
X0036300Y0137326D01*
X0036138Y0137654D01*
X0036063Y0137680D01*
X0035151Y0139045D01*
X0035157Y0139123D01*
X0034915Y0139398D01*
X0034712Y0139703D01*
X0034635Y0139718D01*
X0033552Y0140952D01*
X0033547Y0141031D01*
X0033272Y0141272D01*
X0033031Y0141547D01*
X0032952Y0141552D01*
X0031718Y0142635D01*
X0031703Y0142712D01*
X0031398Y0142915D01*
X0031123Y0143157D01*
X0031045Y0143151D01*
X0030523Y0143500D01*
X0128093Y0143500D01*
X0127687Y0143436D01*
X0126976Y0143205D01*
X0126309Y0142865D01*
X0125704Y0142425D01*
X0125175Y0141896D01*
X0124735Y0141291D01*
X0124395Y0140624D01*
X0124164Y0139913D01*
X0124047Y0139174D01*
X0124047Y0138984D01*
X0128616Y0138984D01*
X0128616Y0138616D01*
X0124047Y0138616D01*
X0124047Y0138426D01*
X0124164Y0137687D01*
X0124395Y0136976D01*
X0124735Y0136309D01*
X0125175Y0135704D01*
X0125704Y0135175D01*
X0126309Y0134735D01*
X0126976Y0134395D01*
X0127687Y0134164D01*
X0128426Y0134047D01*
X0128616Y0134047D01*
X0128616Y0138616D01*
X0128984Y0138616D01*
X0128984Y0134047D01*
X0129174Y0134047D01*
X0129913Y0134164D01*
X0130624Y0134395D01*
X0131291Y0134735D01*
X0131896Y0135175D01*
X0132425Y0135704D01*
X0132865Y0136309D01*
X0133205Y0136976D01*
X0133436Y0137687D01*
X0133553Y0138426D01*
X0133553Y0138616D01*
X0128984Y0138616D01*
X0128984Y0138984D01*
X0133553Y0138984D01*
X0133553Y0139174D01*
X0133436Y0139913D01*
X0133205Y0140624D01*
X0132865Y0141291D01*
X0132425Y0141896D01*
X0131896Y0142425D01*
X0131291Y0142865D01*
X0130624Y0143205D01*
X0129913Y0143436D01*
X0129507Y0143500D01*
X0146077Y0143500D01*
X0145555Y0143151D01*
X0145477Y0143157D01*
X0145202Y0142915D01*
X0144897Y0142712D01*
X0144882Y0142635D01*
X0143648Y0141552D01*
X0143569Y0141547D01*
X0143328Y0141272D01*
X0143053Y0141031D01*
X0143048Y0140952D01*
X0141965Y0139718D01*
X0141888Y0139703D01*
X0141685Y0139398D01*
X0141443Y0139123D01*
X0141449Y0139045D01*
X0140537Y0137680D01*
X0140462Y0137654D01*
X0140300Y0137326D01*
X0140097Y0137022D01*
X0140112Y0136945D01*
X0139386Y0135472D01*
X0139316Y0135438D01*
X0139198Y0135091D01*
X0139036Y0134763D01*
X0139061Y0134688D01*
X0138534Y0133134D01*
X0138468Y0133090D01*
X0138397Y0132731D01*
X0138279Y0132384D01*
X0138314Y0132314D01*
X0137994Y0130704D01*
X0137935Y0130652D01*
X0137911Y0130287D01*
X0137839Y0129928D01*
X0137883Y0129862D01*
X0137776Y0128224D01*
X0137724Y0128165D01*
X0137748Y0127800D01*
X0137724Y0127435D01*
X0137776Y0127376D01*
X0137883Y0125738D01*
X0137839Y0125672D01*
X0137911Y0125313D01*
X0137935Y0124948D01*
X0137994Y0124896D01*
X0138314Y0123286D01*
X0138279Y0123216D01*
X0138397Y0122869D01*
X0138468Y0122510D01*
X0138534Y0122466D01*
X0139061Y0120912D01*
X0139036Y0120837D01*
X0139198Y0120509D01*
X0139316Y0120162D01*
X0139386Y0120128D01*
X0140112Y0118655D01*
X0140097Y0118578D01*
X0140300Y0118274D01*
X0140462Y0117946D01*
X0140537Y0117920D01*
X0141449Y0116555D01*
X0141443Y0116477D01*
X0141685Y0116202D01*
X0141888Y0115897D01*
X0141965Y0115882D01*
X0143048Y0114648D01*
X0143053Y0114569D01*
X0143328Y0114328D01*
X0143569Y0114053D01*
X0143648Y0114048D01*
X0144882Y0112965D01*
X0144897Y0112888D01*
X0145202Y0112685D01*
X0145477Y0112443D01*
X0145555Y0112449D01*
X0146920Y0111537D01*
X0146946Y0111462D01*
X0147274Y0111300D01*
X0147578Y0111097D01*
X0147655Y0111112D01*
X0149128Y0110386D01*
X0149162Y0110316D01*
X0149509Y0110198D01*
X0149837Y0110036D01*
X0149912Y0110061D01*
X0151466Y0109534D01*
X0151510Y0109468D01*
X0151869Y0109397D01*
X0152216Y0109279D01*
X0152286Y0109314D01*
X0153896Y0108994D01*
X0153948Y0108935D01*
X0154313Y0108911D01*
X0154672Y0108839D01*
X0154738Y0108883D01*
X0156376Y0108776D01*
X0156435Y0108724D01*
X0156800Y0108748D01*
X0157165Y0108724D01*
X0157224Y0108776D01*
X0158862Y0108883D01*
X0158928Y0108839D01*
X0159287Y0108911D01*
X0159652Y0108935D01*
X0159704Y0108994D01*
X0161314Y0109314D01*
X0161384Y0109279D01*
X0161731Y0109397D01*
X0162090Y0109468D01*
X0162134Y0109534D01*
X0163688Y0110061D01*
X0163763Y0110036D01*
X0164091Y0110198D01*
X0164438Y0110316D01*
X0164472Y0110386D01*
X0165945Y0111112D01*
X0166022Y0111097D01*
X0166326Y0111300D01*
X0166654Y0111462D01*
X0166680Y0111537D01*
X0168045Y0112449D01*
X0168123Y0112443D01*
X0168398Y0112685D01*
X0168703Y0112888D01*
X0168718Y0112965D01*
X0169952Y0114048D01*
X0170031Y0114053D01*
X0170272Y0114328D01*
X0170547Y0114569D01*
X0170552Y0114648D01*
X0171635Y0115882D01*
X0171712Y0115897D01*
X0171915Y0116202D01*
X0172157Y0116477D01*
X0172151Y0116555D01*
X0172500Y0117077D01*
X0172500Y0030523D01*
X0172151Y0031045D01*
X0172157Y0031123D01*
X0171915Y0031398D01*
X0171712Y0031703D01*
X0171635Y0031718D01*
X0170552Y0032952D01*
X0170547Y0033031D01*
X0170272Y0033272D01*
X0170031Y0033547D01*
X0169952Y0033552D01*
X0168718Y0034635D01*
X0168703Y0034712D01*
X0168398Y0034915D01*
X0168123Y0035157D01*
X0168045Y0035151D01*
X0166680Y0036063D01*
X0166654Y0036138D01*
X0166326Y0036300D01*
X0166022Y0036503D01*
X0165945Y0036488D01*
X0164472Y0037214D01*
X0164438Y0037284D01*
X0164091Y0037402D01*
X0163763Y0037564D01*
X0163688Y0037539D01*
X0162134Y0038066D01*
X0162090Y0038132D01*
X0161731Y0038203D01*
X0161384Y0038321D01*
X0161314Y0038286D01*
X0159704Y0038606D01*
X0159652Y0038665D01*
X0159287Y0038689D01*
X0158928Y0038761D01*
X0158862Y0038717D01*
X0157224Y0038824D01*
X0157165Y0038876D01*
X0156800Y0038852D01*
X0156435Y0038876D01*
X0156376Y0038824D01*
X0154738Y0038717D01*
X0154672Y0038761D01*
X0154313Y0038689D01*
X0153948Y0038665D01*
X0153896Y0038606D01*
X0152286Y0038286D01*
X0152216Y0038321D01*
X0151869Y0038203D01*
X0151510Y0038132D01*
X0151466Y0038066D01*
X0149912Y0037539D01*
X0149837Y0037564D01*
X0149509Y0037402D01*
X0149162Y0037284D01*
X0149128Y0037214D01*
X0147655Y0036488D01*
X0147578Y0036503D01*
X0147274Y0036300D01*
X0146946Y0036138D01*
X0146920Y0036063D01*
X0145555Y0035151D01*
X0145477Y0035157D01*
X0145202Y0034915D01*
X0144897Y0034712D01*
X0144882Y0034635D01*
X0143648Y0033552D01*
X0143569Y0033547D01*
X0143328Y0033272D01*
X0143053Y0033031D01*
X0143048Y0032952D01*
X0141965Y0031718D01*
X0141888Y0031703D01*
X0141685Y0031398D01*
X0141443Y0031123D01*
X0141449Y0031045D01*
X0140537Y0029680D01*
X0140462Y0029654D01*
X0140300Y0029326D01*
X0140097Y0029022D01*
X0140112Y0028945D01*
X0139386Y0027472D01*
X0139316Y0027438D01*
X0139198Y0027091D01*
X0139036Y0026763D01*
X0139061Y0026688D01*
X0138534Y0025134D01*
X0138468Y0025090D01*
X0138397Y0024731D01*
X0138279Y0024384D01*
X0138314Y0024314D01*
X0137994Y0022704D01*
X0137935Y0022652D01*
X0137911Y0022287D01*
X0137839Y0021928D01*
X0137883Y0021862D01*
X0137776Y0020224D01*
X0137724Y0020165D01*
X0137748Y0019800D01*
X0137724Y0019435D01*
X0137776Y0019376D01*
X0137883Y0017738D01*
X0137839Y0017672D01*
X0137911Y0017313D01*
X0137935Y0016948D01*
X0137994Y0016896D01*
X0138314Y0015286D01*
X0138279Y0015216D01*
X0138397Y0014869D01*
X0138468Y0014510D01*
X0138534Y0014466D01*
X0139061Y0012912D01*
X0139036Y0012837D01*
X0139198Y0012509D01*
X0139316Y0012162D01*
X0139386Y0012128D01*
X0140112Y0010655D01*
X0140097Y0010578D01*
X0140300Y0010274D01*
X0140462Y0009946D01*
X0140537Y0009920D01*
X0141449Y0008555D01*
X0141443Y0008477D01*
X0141685Y0008202D01*
X0141888Y0007897D01*
X0141965Y0007882D01*
X0143048Y0006648D01*
X0143053Y0006569D01*
X0143328Y0006328D01*
X0143569Y0006053D01*
X0143648Y0006048D01*
X0144882Y0004965D01*
X0144897Y0004888D01*
X0145202Y0004685D01*
X0145477Y0004443D01*
X0145555Y0004449D01*
X0146077Y0004100D01*
X0030523Y0004100D01*
X0031045Y0004449D01*
X0031123Y0004443D01*
X0031398Y0004685D01*
X0031703Y0004888D01*
X0031718Y0004965D01*
X0032952Y0006048D01*
X0033031Y0006053D01*
X0033272Y0006328D01*
X0033547Y0006569D01*
X0033552Y0006648D01*
X0034635Y0007882D01*
X0034712Y0007897D01*
X0034915Y0008202D01*
X0035157Y0008477D01*
X0035151Y0008555D01*
X0036063Y0009920D01*
X0036138Y0009946D01*
X0036300Y0010274D01*
X0036503Y0010578D01*
X0036488Y0010655D01*
X0037214Y0012128D01*
X0037284Y0012162D01*
X0037402Y0012509D01*
X0037564Y0012837D01*
X0037539Y0012912D01*
X0038066Y0014466D01*
X0038132Y0014510D01*
X0038203Y0014869D01*
X0038321Y0015216D01*
X0038286Y0015286D01*
X0038606Y0016896D01*
X0038665Y0016948D01*
X0038689Y0017313D01*
X0038761Y0017672D01*
X0038717Y0017738D01*
X0038824Y0019376D01*
X0038876Y0019435D01*
X0038852Y0019800D01*
X0038876Y0020165D01*
X0038824Y0020224D01*
X0038717Y0021862D01*
X0038761Y0021928D01*
X0038689Y0022287D01*
X0038665Y0022652D01*
X0038606Y0022704D01*
X0038286Y0024314D01*
X0038321Y0024384D01*
X0038203Y0024731D01*
X0038132Y0025090D01*
X0038066Y0025134D01*
X0037539Y0026688D01*
X0037564Y0026763D01*
X0037402Y0027091D01*
X0037284Y0027438D01*
X0037214Y0027472D01*
X0036488Y0028945D01*
X0036503Y0029022D01*
X0036300Y0029326D01*
X0036138Y0029654D01*
X0036063Y0029680D01*
X0035151Y0031045D01*
X0035157Y0031123D01*
X0034915Y0031398D01*
X0034712Y0031703D01*
X0034635Y0031718D01*
X0033552Y0032952D01*
X0033547Y0033031D01*
X0033272Y0033272D01*
X0033031Y0033547D01*
X0032952Y0033552D01*
X0031718Y0034635D01*
X0031703Y0034712D01*
X0031398Y0034915D01*
X0031123Y0035157D01*
X0031045Y0035151D01*
X0029680Y0036063D01*
X0029654Y0036138D01*
X0029326Y0036300D01*
X0029022Y0036503D01*
X0028945Y0036488D01*
X0027472Y0037214D01*
X0027438Y0037284D01*
X0027091Y0037402D01*
X0026763Y0037564D01*
X0026688Y0037539D01*
X0025134Y0038066D01*
X0025090Y0038132D01*
X0024731Y0038203D01*
X0024384Y0038321D01*
X0024314Y0038286D01*
X0022704Y0038606D01*
X0022652Y0038665D01*
X0022287Y0038689D01*
X0021928Y0038761D01*
X0021862Y0038717D01*
X0020224Y0038824D01*
X0020165Y0038876D01*
X0019800Y0038852D01*
X0019435Y0038876D01*
X0019376Y0038824D01*
X0017738Y0038717D01*
X0017672Y0038761D01*
X0017313Y0038689D01*
X0016948Y0038665D01*
X0016896Y0038606D01*
X0015286Y0038286D01*
X0015216Y0038321D01*
X0014869Y0038203D01*
X0014510Y0038132D01*
X0014466Y0038066D01*
X0012912Y0037539D01*
X0012837Y0037564D01*
X0012509Y0037402D01*
X0012162Y0037284D01*
X0012128Y0037214D01*
X0010655Y0036488D01*
X0010578Y0036503D01*
X0010274Y0036300D01*
X0009946Y0036138D01*
X0009920Y0036063D01*
X0008555Y0035151D01*
X0008477Y0035157D01*
X0008202Y0034915D01*
X0007897Y0034712D01*
X0007882Y0034635D01*
X0006648Y0033552D01*
X0006569Y0033547D01*
X0006328Y0033272D01*
X0006053Y0033031D01*
X0006048Y0032952D01*
X0004965Y0031718D01*
X0004888Y0031703D01*
X0004685Y0031398D01*
X0004443Y0031123D01*
X0004449Y0031045D01*
X0004100Y0030523D01*
X0004100Y0117077D01*
X0004449Y0116555D01*
X0004443Y0116477D01*
X0004685Y0116202D01*
X0004888Y0115897D01*
X0004965Y0115882D01*
X0006048Y0114648D01*
X0006053Y0114569D01*
X0006328Y0114328D01*
X0006569Y0114053D01*
X0006648Y0114048D01*
X0007882Y0112965D01*
X0007897Y0112888D01*
X0008202Y0112685D01*
X0008477Y0112443D01*
X0008555Y0112449D01*
X0009920Y0111537D01*
X0009946Y0111462D01*
X0010274Y0111300D01*
X0010578Y0111097D01*
X0010655Y0111112D01*
X0012128Y0110386D01*
X0012162Y0110316D01*
X0012509Y0110198D01*
X0012837Y0110036D01*
X0012912Y0110061D01*
X0014466Y0109534D01*
X0014510Y0109468D01*
X0014869Y0109397D01*
X0015216Y0109279D01*
X0015286Y0109314D01*
X0016896Y0108994D01*
X0016948Y0108935D01*
X0017313Y0108911D01*
X0022234Y0108900D02*
X0154366Y0108900D01*
X0159234Y0108900D02*
X0172500Y0108900D01*
X0172500Y0110499D02*
X0164701Y0110499D01*
X0167519Y0112097D02*
X0172500Y0112097D01*
X0172500Y0113696D02*
X0169551Y0113696D01*
X0171119Y0115294D02*
X0172500Y0115294D01*
X0172500Y0116893D02*
X0172377Y0116893D01*
X0148899Y0110499D02*
X0027701Y0110499D01*
X0030519Y0112097D02*
X0146081Y0112097D01*
X0144049Y0113696D02*
X0032551Y0113696D01*
X0034119Y0115294D02*
X0142481Y0115294D01*
X0141223Y0116893D02*
X0035377Y0116893D01*
X0036445Y0118491D02*
X0140155Y0118491D01*
X0139405Y0120090D02*
X0037195Y0120090D01*
X0037802Y0121688D02*
X0138798Y0121688D01*
X0138314Y0123287D02*
X0038286Y0123287D01*
X0038604Y0124885D02*
X0137996Y0124885D01*
X0137834Y0126484D02*
X0038766Y0126484D01*
X0038871Y0128082D02*
X0137729Y0128082D01*
X0137871Y0129681D02*
X0038729Y0129681D01*
X0038492Y0131279D02*
X0138108Y0131279D01*
X0138426Y0132878D02*
X0038174Y0132878D01*
X0037611Y0134476D02*
X0126817Y0134476D01*
X0128616Y0134476D02*
X0128984Y0134476D01*
X0128984Y0136075D02*
X0128616Y0136075D01*
X0128616Y0137673D02*
X0128984Y0137673D01*
X0130783Y0134476D02*
X0138989Y0134476D01*
X0139683Y0136075D02*
X0132695Y0136075D01*
X0133431Y0137673D02*
X0140518Y0137673D01*
X0141574Y0139272D02*
X0133537Y0139272D01*
X0133079Y0140870D02*
X0142976Y0140870D01*
X0144693Y0142469D02*
X0131836Y0142469D01*
X0125764Y0142469D02*
X0121055Y0142469D01*
X0121209Y0142405D02*
X0119646Y0143053D01*
X0117954Y0143053D01*
X0116391Y0142405D01*
X0115195Y0141209D01*
X0114547Y0139646D01*
X0114547Y0137954D01*
X0115195Y0136391D01*
X0116391Y0135195D01*
X0117954Y0134547D01*
X0119646Y0134547D01*
X0121209Y0135195D01*
X0122405Y0136391D01*
X0123053Y0137954D01*
X0123053Y0139646D01*
X0122405Y0141209D01*
X0121209Y0142405D01*
X0122546Y0140870D02*
X0124521Y0140870D01*
X0124063Y0139272D02*
X0123053Y0139272D01*
X0122937Y0137673D02*
X0124169Y0137673D01*
X0124905Y0136075D02*
X0122089Y0136075D01*
X0115511Y0136075D02*
X0036917Y0136075D01*
X0036082Y0137673D02*
X0114663Y0137673D01*
X0114547Y0139272D02*
X0035026Y0139272D01*
X0033624Y0140870D02*
X0115054Y0140870D01*
X0116545Y0142469D02*
X0031907Y0142469D01*
X0004223Y0116893D02*
X0004100Y0116893D01*
X0004100Y0115294D02*
X0005481Y0115294D01*
X0004100Y0113696D02*
X0007049Y0113696D01*
X0009081Y0112097D02*
X0004100Y0112097D01*
X0004100Y0110499D02*
X0011899Y0110499D01*
X0007659Y0092915D02*
X0004100Y0092915D01*
X0004100Y0091317D02*
X0007547Y0091317D01*
X0008059Y0089718D02*
X0004100Y0089718D01*
X0004100Y0088120D02*
X0009572Y0088120D01*
X0014692Y0084923D02*
X0153908Y0084923D01*
X0152828Y0083324D02*
X0015772Y0083324D01*
X0016053Y0081726D02*
X0152547Y0081726D01*
X0152890Y0080127D02*
X0015710Y0080127D01*
X0014543Y0078529D02*
X0154057Y0078529D01*
X0154317Y0075332D02*
X0014283Y0075332D01*
X0015602Y0073733D02*
X0152998Y0073733D01*
X0152547Y0072134D02*
X0016053Y0072134D01*
X0015880Y0070536D02*
X0152720Y0070536D01*
X0153648Y0068937D02*
X0014952Y0068937D01*
X0013624Y0066205D02*
X0012913Y0066436D01*
X0012174Y0066553D01*
X0011984Y0066553D01*
X0011984Y0061984D01*
X0016553Y0061984D01*
X0016553Y0062174D01*
X0016436Y0062913D01*
X0016205Y0063624D01*
X0015865Y0064291D01*
X0015425Y0064896D01*
X0014896Y0065425D01*
X0014291Y0065865D01*
X0013624Y0066205D01*
X0014462Y0065740D02*
X0155200Y0065740D01*
X0155954Y0066053D02*
X0154391Y0065405D01*
X0153195Y0064209D01*
X0152547Y0062646D01*
X0152547Y0060954D01*
X0153195Y0059391D01*
X0154391Y0058195D01*
X0155954Y0057547D01*
X0157646Y0057547D01*
X0159209Y0058195D01*
X0160405Y0059391D01*
X0161053Y0060954D01*
X0161053Y0062646D01*
X0160405Y0064209D01*
X0159209Y0065405D01*
X0157646Y0066053D01*
X0155954Y0066053D01*
X0158400Y0065740D02*
X0172500Y0065740D01*
X0172500Y0064142D02*
X0160433Y0064142D01*
X0161053Y0062543D02*
X0172500Y0062543D01*
X0172500Y0060945D02*
X0161049Y0060945D01*
X0160361Y0059346D02*
X0172500Y0059346D01*
X0172500Y0057748D02*
X0158130Y0057748D01*
X0155470Y0057748D02*
X0014309Y0057748D01*
X0015884Y0059346D02*
X0153239Y0059346D01*
X0152551Y0060945D02*
X0016477Y0060945D01*
X0016494Y0062543D02*
X0152547Y0062543D01*
X0153167Y0064142D02*
X0015941Y0064142D01*
X0011984Y0064142D02*
X0011616Y0064142D01*
X0011616Y0065740D02*
X0011984Y0065740D01*
X0011984Y0062543D02*
X0011616Y0062543D01*
X0011616Y0060945D02*
X0011984Y0060945D01*
X0011984Y0059346D02*
X0011616Y0059346D01*
X0011616Y0057748D02*
X0011984Y0057748D01*
X0008537Y0054551D02*
X0004100Y0054551D01*
X0004100Y0052952D02*
X0007674Y0052952D01*
X0007547Y0051354D02*
X0004100Y0051354D01*
X0004100Y0049755D02*
X0008044Y0049755D01*
X0009482Y0048157D02*
X0004100Y0048157D01*
X0004100Y0046558D02*
X0172500Y0046558D01*
X0172500Y0044960D02*
X0004100Y0044960D01*
X0004100Y0043361D02*
X0172500Y0043361D01*
X0172500Y0041763D02*
X0004100Y0041763D01*
X0004100Y0040164D02*
X0172500Y0040164D01*
X0172500Y0038566D02*
X0159908Y0038566D01*
X0164973Y0036967D02*
X0172500Y0036967D01*
X0172500Y0035369D02*
X0167719Y0035369D01*
X0169704Y0033770D02*
X0172500Y0033770D01*
X0172500Y0032172D02*
X0171237Y0032172D01*
X0172466Y0030573D02*
X0172500Y0030573D01*
X0153692Y0038566D02*
X0022908Y0038566D01*
X0027973Y0036967D02*
X0148627Y0036967D01*
X0145881Y0035369D02*
X0030719Y0035369D01*
X0032704Y0033770D02*
X0143896Y0033770D01*
X0142363Y0032172D02*
X0034237Y0032172D01*
X0035466Y0030573D02*
X0141134Y0030573D01*
X0140106Y0028975D02*
X0036494Y0028975D01*
X0037305Y0027376D02*
X0139295Y0027376D01*
X0138752Y0025778D02*
X0037848Y0025778D01*
X0038313Y0024179D02*
X0138287Y0024179D01*
X0137930Y0022581D02*
X0038670Y0022581D01*
X0038775Y0020982D02*
X0137825Y0020982D01*
X0137769Y0019384D02*
X0038831Y0019384D01*
X0038720Y0017785D02*
X0137880Y0017785D01*
X0138135Y0016187D02*
X0038465Y0016187D01*
X0038147Y0014588D02*
X0138453Y0014588D01*
X0139035Y0012990D02*
X0037565Y0012990D01*
X0036851Y0011391D02*
X0139749Y0011391D01*
X0140622Y0009793D02*
X0035978Y0009793D01*
X0034910Y0008194D02*
X0141690Y0008194D01*
X0143051Y0006596D02*
X0033549Y0006596D01*
X0031754Y0004997D02*
X0144846Y0004997D01*
X0016692Y0038566D02*
X0004100Y0038566D01*
X0004100Y0036967D02*
X0011627Y0036967D01*
X0008881Y0035369D02*
X0004100Y0035369D01*
X0004100Y0033770D02*
X0006896Y0033770D01*
X0005363Y0032172D02*
X0004100Y0032172D01*
X0004100Y0030573D02*
X0004134Y0030573D01*
X0004100Y0068937D02*
X0008648Y0068937D01*
X0007720Y0070536D02*
X0004100Y0070536D01*
X0004100Y0072134D02*
X0007547Y0072134D01*
X0007998Y0073733D02*
X0004100Y0073733D01*
D14*
X0052800Y0073800D03*
X0052800Y0098800D03*
X0052800Y0107800D03*
X0104800Y0111800D03*
X0104800Y0071800D03*
X0126800Y0069800D03*
X0146800Y0046800D03*
X0126800Y0029800D03*
X0088800Y0053800D03*
X0052800Y0044800D03*
X0052800Y0026800D03*
D15*
X0051800Y0028800D01*
X0052800Y0044800D02*
X0051800Y0046800D01*
X0052800Y0073800D02*
X0052800Y0074800D01*
X0052800Y0098800D02*
X0050800Y0099800D01*
X0051800Y0100800D01*
X0052800Y0107800D02*
X0051800Y0108800D01*
X0102800Y0113800D02*
X0104800Y0111800D01*
X0102800Y0072800D02*
X0104800Y0071800D01*
X0125800Y0069800D02*
X0126800Y0069800D01*
X0145800Y0046800D02*
X0146800Y0046800D01*
X0088800Y0051800D02*
X0088800Y0053800D01*
M02*
