%
M48
M72
T01C0.0236
T02C0.0394
T03C0.1500
%
T01
X12680Y2980
X14680Y4680
X12680Y6980
X10480Y7180
X8880Y5380
X5280Y4480
X5280Y2680
X5280Y7380
X5280Y9880
X5280Y10780
X10480Y11180
T02
X15680Y5180
X15680Y6180
X15680Y7180
X15680Y8180
X12880Y13880
X11880Y13880
X1180Y10180
X1180Y9180
X1180Y8180
X1180Y7180
X1180Y6180
X1180Y5180
T03
X15680Y1980
X15680Y12780
X1980Y12780
X1980Y1980
M30
