G75*
%MOIN*%
%OFA0B0*%
%FSLAX25Y25*%
%IPPOS*%
%LPD*%
%AMOC8*
5,1,8,0,0,1.08239X$1,22.5*
%
%ADD10C,0.01000*%
%ADD11C,0.00500*%
%ADD12C,0.00600*%
%ADD13C,0.00000*%
%ADD14R,0.01190X0.00062*%
%ADD15R,0.01560X0.00063*%
%ADD16R,0.01810X0.00062*%
%ADD17R,0.01940X0.00063*%
%ADD18R,0.02190X0.00062*%
%ADD19R,0.02310X0.00063*%
%ADD20R,0.02560X0.00062*%
%ADD21R,0.02690X0.00063*%
%ADD22R,0.02810X0.00062*%
%ADD23R,0.02940X0.00063*%
%ADD24R,0.03060X0.00062*%
%ADD25R,0.03190X0.00063*%
%ADD26R,0.03310X0.00062*%
%ADD27R,0.03440X0.00063*%
%ADD28R,0.03560X0.00062*%
%ADD29R,0.03690X0.00063*%
%ADD30R,0.03810X0.00062*%
%ADD31R,0.03940X0.00063*%
%ADD32R,0.04060X0.00062*%
%ADD33R,0.04190X0.00063*%
%ADD34R,0.04310X0.00062*%
%ADD35R,0.04440X0.00063*%
%ADD36R,0.04560X0.00062*%
%ADD37R,0.04690X0.00063*%
%ADD38R,0.04810X0.00062*%
%ADD39R,0.04940X0.00063*%
%ADD40R,0.05060X0.00062*%
%ADD41R,0.05190X0.00063*%
%ADD42R,0.05310X0.00062*%
%ADD43R,0.05440X0.00063*%
%ADD44R,0.05560X0.00062*%
%ADD45R,0.05690X0.00063*%
%ADD46R,0.05810X0.00062*%
%ADD47R,0.02620X0.00063*%
%ADD48R,0.02630X0.00063*%
%ADD49R,0.02620X0.00062*%
%ADD50R,0.02560X0.00063*%
%ADD51R,0.02570X0.00063*%
%ADD52R,0.02630X0.00062*%
%ADD53R,0.01440X0.00063*%
%ADD54R,0.02310X0.00063*%
%ADD55R,0.01440X0.00062*%
%ADD56R,0.02310X0.00062*%
%ADD57R,0.02320X0.00063*%
%ADD58R,0.01430X0.00062*%
%ADD59R,0.02250X0.00063*%
%ADD60R,0.02120X0.00062*%
%ADD61R,0.02000X0.00063*%
%ADD62R,0.01880X0.00062*%
%ADD63R,0.01750X0.00063*%
%ADD64R,0.01620X0.00062*%
%ADD65R,0.01630X0.00063*%
%ADD66R,0.01570X0.00062*%
%ADD67R,0.01560X0.00062*%
%ADD68R,0.01630X0.00062*%
%ADD69R,0.01620X0.00063*%
%ADD70R,0.00130X0.00063*%
%ADD71R,0.00250X0.00062*%
%ADD72R,0.00310X0.00063*%
%ADD73R,0.02500X0.00062*%
%ADD74R,0.02000X0.00062*%
%ADD75R,0.00440X0.00062*%
%ADD76R,0.02500X0.00063*%
%ADD77R,0.02070X0.00063*%
%ADD78R,0.00560X0.00063*%
%ADD79R,0.00620X0.00062*%
%ADD80R,0.02440X0.00063*%
%ADD81R,0.02190X0.00063*%
%ADD82R,0.00750X0.00063*%
%ADD83R,0.02430X0.00062*%
%ADD84R,0.02190X0.00062*%
%ADD85R,0.00880X0.00062*%
%ADD86R,0.00940X0.00063*%
%ADD87R,0.02380X0.00062*%
%ADD88R,0.01060X0.00062*%
%ADD89R,0.02380X0.00063*%
%ADD90R,0.02120X0.00063*%
%ADD91R,0.01120X0.00063*%
%ADD92R,0.02130X0.00062*%
%ADD93R,0.00810X0.00063*%
%ADD94R,0.01000X0.00063*%
%ADD95R,0.01310X0.00063*%
%ADD96R,0.02250X0.00062*%
%ADD97R,0.00690X0.00062*%
%ADD98R,0.01370X0.00062*%
%ADD99R,0.00690X0.00063*%
%ADD100R,0.01430X0.00063*%
%ADD101R,0.00690X0.00062*%
%ADD102R,0.00680X0.00062*%
%ADD103R,0.02060X0.00063*%
%ADD104R,0.00620X0.00063*%
%ADD105R,0.00690X0.00063*%
%ADD106R,0.01690X0.00062*%
%ADD107R,0.00560X0.00063*%
%ADD108R,0.01940X0.00062*%
%ADD109R,0.00560X0.00062*%
%ADD110R,0.01820X0.00062*%
%ADD111R,0.01880X0.00063*%
%ADD112R,0.02070X0.00062*%
%ADD113R,0.02130X0.00063*%
%ADD114R,0.00750X0.00062*%
%ADD115R,0.00930X0.00062*%
%ADD116R,0.02320X0.00062*%
%ADD117R,0.02680X0.00063*%
%ADD118R,0.02370X0.00062*%
%ADD119R,0.02690X0.00062*%
%ADD120R,0.02440X0.00062*%
%ADD121R,0.01810X0.00063*%
%ADD122R,0.02690X0.00063*%
%ADD123R,0.02430X0.00063*%
%ADD124R,0.02560X0.00063*%
%ADD125R,0.01440X0.00062*%
%ADD126R,0.02560X0.00062*%
%ADD127R,0.01120X0.00062*%
%ADD128R,0.01380X0.00062*%
%ADD129R,0.00880X0.00063*%
%ADD130R,0.00870X0.00063*%
%ADD131R,0.02680X0.00062*%
%ADD132R,0.00810X0.00062*%
%ADD133R,0.01000X0.00062*%
%ADD134R,0.00940X0.00063*%
%ADD135R,0.02750X0.00063*%
%ADD136R,0.02750X0.00062*%
%ADD137R,0.00810X0.00063*%
%ADD138R,0.02810X0.00063*%
%ADD139R,0.00630X0.00063*%
%ADD140R,0.00630X0.00062*%
%ADD141R,0.02820X0.00063*%
%ADD142R,0.00680X0.00063*%
%ADD143R,0.00820X0.00062*%
%ADD144R,0.00870X0.00062*%
%ADD145R,0.01070X0.00063*%
%ADD146R,0.02370X0.00063*%
%ADD147R,0.01870X0.00063*%
%ADD148R,0.01750X0.00062*%
%ADD149R,0.01500X0.00063*%
%ADD150R,0.01310X0.00062*%
%ADD151R,0.00500X0.00062*%
%ADD152R,0.02810X0.00062*%
%ADD153R,0.05630X0.00063*%
%ADD154R,0.05500X0.00062*%
%ADD155R,0.05370X0.00063*%
%ADD156R,0.05250X0.00062*%
%ADD157R,0.05130X0.00063*%
%ADD158R,0.05000X0.00062*%
%ADD159R,0.04870X0.00063*%
%ADD160R,0.04750X0.00062*%
%ADD161R,0.04630X0.00063*%
%ADD162R,0.04500X0.00062*%
%ADD163R,0.04370X0.00063*%
%ADD164R,0.04250X0.00062*%
%ADD165R,0.01130X0.00062*%
D10*
X0019300Y0001800D02*
X0157300Y0001800D01*
X0157723Y0001805D01*
X0158145Y0001820D01*
X0158568Y0001846D01*
X0158989Y0001882D01*
X0159409Y0001928D01*
X0159829Y0001984D01*
X0160246Y0002050D01*
X0160662Y0002126D01*
X0161076Y0002212D01*
X0161488Y0002309D01*
X0161897Y0002415D01*
X0162304Y0002531D01*
X0162708Y0002657D01*
X0163108Y0002792D01*
X0163506Y0002937D01*
X0163899Y0003092D01*
X0164289Y0003256D01*
X0164675Y0003430D01*
X0165056Y0003613D01*
X0165433Y0003805D01*
X0165805Y0004006D01*
X0166172Y0004216D01*
X0166534Y0004434D01*
X0166890Y0004662D01*
X0167241Y0004898D01*
X0167586Y0005142D01*
X0167925Y0005395D01*
X0168258Y0005656D01*
X0168585Y0005924D01*
X0168905Y0006201D01*
X0169218Y0006485D01*
X0169524Y0006777D01*
X0169823Y0007076D01*
X0170115Y0007382D01*
X0170399Y0007695D01*
X0170676Y0008015D01*
X0170944Y0008342D01*
X0171205Y0008675D01*
X0171458Y0009014D01*
X0171702Y0009359D01*
X0171938Y0009710D01*
X0172166Y0010066D01*
X0172384Y0010428D01*
X0172594Y0010795D01*
X0172795Y0011167D01*
X0172987Y0011544D01*
X0173170Y0011925D01*
X0173344Y0012311D01*
X0173508Y0012701D01*
X0173663Y0013094D01*
X0173808Y0013492D01*
X0173943Y0013892D01*
X0174069Y0014296D01*
X0174185Y0014703D01*
X0174291Y0015112D01*
X0174388Y0015524D01*
X0174474Y0015938D01*
X0174550Y0016354D01*
X0174616Y0016771D01*
X0174672Y0017191D01*
X0174718Y0017611D01*
X0174754Y0018032D01*
X0174780Y0018455D01*
X0174795Y0018877D01*
X0174800Y0019300D01*
X0174800Y0128300D01*
X0174795Y0128723D01*
X0174780Y0129145D01*
X0174754Y0129568D01*
X0174718Y0129989D01*
X0174672Y0130409D01*
X0174616Y0130829D01*
X0174550Y0131246D01*
X0174474Y0131662D01*
X0174388Y0132076D01*
X0174291Y0132488D01*
X0174185Y0132897D01*
X0174069Y0133304D01*
X0173943Y0133708D01*
X0173808Y0134108D01*
X0173663Y0134506D01*
X0173508Y0134899D01*
X0173344Y0135289D01*
X0173170Y0135675D01*
X0172987Y0136056D01*
X0172795Y0136433D01*
X0172594Y0136805D01*
X0172384Y0137172D01*
X0172166Y0137534D01*
X0171938Y0137890D01*
X0171702Y0138241D01*
X0171458Y0138586D01*
X0171205Y0138925D01*
X0170944Y0139258D01*
X0170676Y0139585D01*
X0170399Y0139905D01*
X0170115Y0140218D01*
X0169823Y0140524D01*
X0169524Y0140823D01*
X0169218Y0141115D01*
X0168905Y0141399D01*
X0168585Y0141676D01*
X0168258Y0141944D01*
X0167925Y0142205D01*
X0167586Y0142458D01*
X0167241Y0142702D01*
X0166890Y0142938D01*
X0166534Y0143166D01*
X0166172Y0143384D01*
X0165805Y0143594D01*
X0165433Y0143795D01*
X0165056Y0143987D01*
X0164675Y0144170D01*
X0164289Y0144344D01*
X0163899Y0144508D01*
X0163506Y0144663D01*
X0163108Y0144808D01*
X0162708Y0144943D01*
X0162304Y0145069D01*
X0161897Y0145185D01*
X0161488Y0145291D01*
X0161076Y0145388D01*
X0160662Y0145474D01*
X0160246Y0145550D01*
X0159829Y0145616D01*
X0159409Y0145672D01*
X0158989Y0145718D01*
X0158568Y0145754D01*
X0158145Y0145780D01*
X0157723Y0145795D01*
X0157300Y0145800D01*
X0019300Y0145800D01*
X0018877Y0145795D01*
X0018455Y0145780D01*
X0018032Y0145754D01*
X0017611Y0145718D01*
X0017191Y0145672D01*
X0016771Y0145616D01*
X0016354Y0145550D01*
X0015938Y0145474D01*
X0015524Y0145388D01*
X0015112Y0145291D01*
X0014703Y0145185D01*
X0014296Y0145069D01*
X0013892Y0144943D01*
X0013492Y0144808D01*
X0013094Y0144663D01*
X0012701Y0144508D01*
X0012311Y0144344D01*
X0011925Y0144170D01*
X0011544Y0143987D01*
X0011167Y0143795D01*
X0010795Y0143594D01*
X0010428Y0143384D01*
X0010066Y0143166D01*
X0009710Y0142938D01*
X0009359Y0142702D01*
X0009014Y0142458D01*
X0008675Y0142205D01*
X0008342Y0141944D01*
X0008015Y0141676D01*
X0007695Y0141399D01*
X0007382Y0141115D01*
X0007076Y0140823D01*
X0006777Y0140524D01*
X0006485Y0140218D01*
X0006201Y0139905D01*
X0005924Y0139585D01*
X0005656Y0139258D01*
X0005395Y0138925D01*
X0005142Y0138586D01*
X0004898Y0138241D01*
X0004662Y0137890D01*
X0004434Y0137534D01*
X0004216Y0137172D01*
X0004006Y0136805D01*
X0003805Y0136433D01*
X0003613Y0136056D01*
X0003430Y0135675D01*
X0003256Y0135289D01*
X0003092Y0134899D01*
X0002937Y0134506D01*
X0002792Y0134108D01*
X0002657Y0133708D01*
X0002531Y0133304D01*
X0002415Y0132897D01*
X0002309Y0132488D01*
X0002212Y0132076D01*
X0002126Y0131662D01*
X0002050Y0131246D01*
X0001984Y0130829D01*
X0001928Y0130409D01*
X0001882Y0129989D01*
X0001846Y0129568D01*
X0001820Y0129145D01*
X0001805Y0128723D01*
X0001800Y0128300D01*
X0001800Y0019300D01*
X0001805Y0018877D01*
X0001820Y0018455D01*
X0001846Y0018032D01*
X0001882Y0017611D01*
X0001928Y0017191D01*
X0001984Y0016771D01*
X0002050Y0016354D01*
X0002126Y0015938D01*
X0002212Y0015524D01*
X0002309Y0015112D01*
X0002415Y0014703D01*
X0002531Y0014296D01*
X0002657Y0013892D01*
X0002792Y0013492D01*
X0002937Y0013094D01*
X0003092Y0012701D01*
X0003256Y0012311D01*
X0003430Y0011925D01*
X0003613Y0011544D01*
X0003805Y0011167D01*
X0004006Y0010795D01*
X0004216Y0010428D01*
X0004434Y0010066D01*
X0004662Y0009710D01*
X0004898Y0009359D01*
X0005142Y0009014D01*
X0005395Y0008675D01*
X0005656Y0008342D01*
X0005924Y0008015D01*
X0006201Y0007695D01*
X0006485Y0007382D01*
X0006777Y0007076D01*
X0007076Y0006777D01*
X0007382Y0006485D01*
X0007695Y0006201D01*
X0008015Y0005924D01*
X0008342Y0005656D01*
X0008675Y0005395D01*
X0009014Y0005142D01*
X0009359Y0004898D01*
X0009710Y0004662D01*
X0010066Y0004434D01*
X0010428Y0004216D01*
X0010795Y0004006D01*
X0011167Y0003805D01*
X0011544Y0003613D01*
X0011925Y0003430D01*
X0012311Y0003256D01*
X0012701Y0003092D01*
X0013094Y0002937D01*
X0013492Y0002792D01*
X0013892Y0002657D01*
X0014296Y0002531D01*
X0014703Y0002415D01*
X0015112Y0002309D01*
X0015524Y0002212D01*
X0015938Y0002126D01*
X0016354Y0002050D01*
X0016771Y0001984D01*
X0017191Y0001928D01*
X0017611Y0001882D01*
X0018032Y0001846D01*
X0018455Y0001820D01*
X0018877Y0001805D01*
X0019300Y0001800D01*
X0051800Y0088800D02*
X0051800Y0091800D01*
X0051800Y0088800D02*
X0051802Y0088693D01*
X0051808Y0088586D01*
X0051817Y0088479D01*
X0051831Y0088373D01*
X0051848Y0088267D01*
X0051869Y0088162D01*
X0051893Y0088058D01*
X0051922Y0087955D01*
X0051954Y0087853D01*
X0051989Y0087752D01*
X0052028Y0087652D01*
X0052071Y0087554D01*
X0052117Y0087457D01*
X0052167Y0087362D01*
X0052220Y0087269D01*
X0052276Y0087178D01*
X0052336Y0087089D01*
X0052398Y0087002D01*
X0052464Y0086918D01*
X0052533Y0086835D01*
X0052604Y0086756D01*
X0052679Y0086679D01*
X0052756Y0086604D01*
X0052835Y0086533D01*
X0052918Y0086464D01*
X0053002Y0086398D01*
X0053089Y0086336D01*
X0053178Y0086276D01*
X0053269Y0086220D01*
X0053362Y0086167D01*
X0053457Y0086117D01*
X0053554Y0086071D01*
X0053652Y0086028D01*
X0053752Y0085989D01*
X0053853Y0085954D01*
X0053955Y0085922D01*
X0054058Y0085893D01*
X0054162Y0085869D01*
X0054267Y0085848D01*
X0054373Y0085831D01*
X0054479Y0085817D01*
X0054586Y0085808D01*
X0054693Y0085802D01*
X0054800Y0085800D01*
D11*
X0054713Y0085343D02*
X0068887Y0085343D01*
X0068887Y0078257D01*
X0054713Y0078257D01*
X0054713Y0085343D01*
X0054713Y0087257D02*
X0068887Y0087257D01*
X0068887Y0094343D01*
X0054713Y0094343D01*
X0054713Y0087257D01*
X0050461Y0087956D02*
X0050461Y0086524D01*
X0050461Y0087956D02*
X0047956Y0090461D01*
X0033139Y0090461D01*
X0033139Y0086524D01*
X0033139Y0077076D02*
X0033139Y0073139D01*
X0047956Y0073139D01*
X0050461Y0075644D01*
X0050461Y0077469D01*
X0054713Y0077343D02*
X0054713Y0070257D01*
X0068887Y0070257D01*
X0068887Y0077343D01*
X0054713Y0077343D01*
X0047956Y0070461D02*
X0050461Y0067956D01*
X0050461Y0066524D01*
X0047706Y0067706D02*
X0043769Y0067706D01*
X0045737Y0069674D02*
X0045737Y0065737D01*
X0047956Y0070461D02*
X0033139Y0070461D01*
X0033139Y0066524D01*
X0033139Y0057076D02*
X0033139Y0053139D01*
X0047956Y0053139D01*
X0050461Y0055644D01*
X0050461Y0057469D01*
X0054713Y0058257D02*
X0068887Y0058257D01*
X0068887Y0065343D01*
X0054713Y0065343D01*
X0054713Y0058257D01*
X0054713Y0056343D02*
X0068887Y0056343D01*
X0068887Y0049257D01*
X0054713Y0049257D01*
X0054713Y0056343D01*
X0054713Y0048343D02*
X0054713Y0041257D01*
X0068887Y0041257D01*
X0068887Y0048343D01*
X0054713Y0048343D01*
X0054713Y0039343D02*
X0068887Y0039343D01*
X0068887Y0032257D01*
X0054713Y0032257D01*
X0054713Y0039343D01*
X0054713Y0030343D02*
X0054713Y0023257D01*
X0068887Y0023257D01*
X0068887Y0030343D01*
X0054713Y0030343D01*
X0072271Y0052073D02*
X0072508Y0051924D01*
X0072772Y0051831D01*
X0073050Y0051800D01*
X0073328Y0051831D01*
X0073592Y0051924D01*
X0073829Y0052073D01*
X0074027Y0052271D01*
X0074176Y0052508D01*
X0074269Y0052772D01*
X0074300Y0053050D01*
X0074269Y0053328D01*
X0074176Y0053592D01*
X0074027Y0053829D01*
X0073829Y0054027D01*
X0073592Y0054176D01*
X0073328Y0054269D01*
X0073050Y0054300D01*
X0072772Y0054269D01*
X0072508Y0054176D01*
X0072271Y0054027D01*
X0072073Y0053829D01*
X0071924Y0053592D01*
X0071831Y0053328D01*
X0071800Y0053050D01*
X0071831Y0052772D01*
X0071924Y0052508D01*
X0072073Y0052271D01*
X0072271Y0052073D01*
X0072194Y0052150D02*
X0073906Y0052150D01*
X0074225Y0052648D02*
X0071875Y0052648D01*
X0071811Y0053147D02*
X0074289Y0053147D01*
X0074143Y0053645D02*
X0071957Y0053645D01*
X0072456Y0054144D02*
X0073644Y0054144D01*
X0071957Y0056052D02*
X0091643Y0056052D01*
X0091643Y0087548D01*
X0071957Y0087548D01*
X0071957Y0075737D01*
X0075894Y0075737D01*
X0075894Y0067863D01*
X0071957Y0067863D01*
X0071957Y0056052D01*
X0071957Y0067863D02*
X0071957Y0075737D01*
X0068887Y0095257D02*
X0054713Y0095257D01*
X0054713Y0102343D01*
X0068887Y0102343D01*
X0068887Y0095257D01*
X0068887Y0104257D02*
X0054713Y0104257D01*
X0054713Y0111343D01*
X0068887Y0111343D01*
X0068887Y0104257D01*
X0068887Y0113257D02*
X0068887Y0120343D01*
X0054713Y0120343D01*
X0054713Y0113257D01*
X0068887Y0113257D01*
X0068843Y0121050D02*
X0068843Y0122401D01*
X0068393Y0122852D01*
X0067943Y0122401D01*
X0067943Y0121050D01*
X0067042Y0121050D02*
X0067042Y0122852D01*
X0067492Y0122852D01*
X0067943Y0122401D01*
X0069988Y0121500D02*
X0070439Y0121951D01*
X0071790Y0121951D01*
X0071790Y0122401D02*
X0071790Y0121050D01*
X0070439Y0121050D01*
X0069988Y0121500D01*
X0070439Y0122852D02*
X0071340Y0122852D01*
X0071790Y0122401D01*
X0072935Y0122852D02*
X0074286Y0122852D01*
X0074736Y0122401D01*
X0074736Y0121050D01*
X0075881Y0121050D02*
X0075881Y0122852D01*
X0077233Y0122852D01*
X0077683Y0122401D01*
X0077683Y0121050D01*
X0072935Y0121050D02*
X0072935Y0122852D01*
X0065978Y0121050D02*
X0065078Y0121050D01*
X0065528Y0121050D02*
X0065528Y0123752D01*
X0065078Y0123752D01*
X0063564Y0123752D02*
X0063564Y0121050D01*
X0064014Y0121050D02*
X0063113Y0121050D01*
X0062050Y0121050D02*
X0061149Y0121050D01*
X0061599Y0121050D02*
X0061599Y0122852D01*
X0061149Y0122852D01*
X0061599Y0123752D02*
X0061599Y0124203D01*
X0063113Y0123752D02*
X0063564Y0123752D01*
X0060004Y0123302D02*
X0060004Y0121500D01*
X0059553Y0121050D01*
X0058202Y0121050D01*
X0058202Y0123752D01*
X0059553Y0123752D01*
X0060004Y0123302D01*
X0054152Y0122852D02*
X0053701Y0122852D01*
X0052800Y0121951D01*
X0052800Y0121050D02*
X0052800Y0122852D01*
X0051655Y0122401D02*
X0051655Y0121951D01*
X0049854Y0121951D01*
X0049854Y0122401D02*
X0050304Y0122852D01*
X0051205Y0122852D01*
X0051655Y0122401D01*
X0051205Y0121050D02*
X0050304Y0121050D01*
X0049854Y0121500D01*
X0049854Y0122401D01*
X0048750Y0122852D02*
X0047398Y0121951D01*
X0048750Y0121050D01*
X0047398Y0121050D02*
X0047398Y0123752D01*
X0046294Y0122852D02*
X0045844Y0122852D01*
X0044943Y0121951D01*
X0044943Y0121050D02*
X0044943Y0122852D01*
X0043798Y0122401D02*
X0043798Y0121050D01*
X0042447Y0121050D01*
X0041997Y0121500D01*
X0042447Y0121951D01*
X0043798Y0121951D01*
X0043798Y0122401D02*
X0043348Y0122852D01*
X0042447Y0122852D01*
X0040852Y0123302D02*
X0040852Y0122401D01*
X0040401Y0121951D01*
X0039050Y0121951D01*
X0039050Y0121050D02*
X0039050Y0123752D01*
X0040401Y0123752D01*
X0040852Y0123302D01*
X0040852Y0126050D02*
X0039951Y0126951D01*
X0040401Y0126951D02*
X0039050Y0126951D01*
X0039050Y0126050D02*
X0039050Y0128752D01*
X0040401Y0128752D01*
X0040852Y0128302D01*
X0040852Y0127401D01*
X0040401Y0126951D01*
X0041997Y0127401D02*
X0042897Y0127401D01*
X0041997Y0126050D02*
X0043798Y0126050D01*
X0044943Y0126951D02*
X0045844Y0126050D01*
X0046745Y0126951D01*
X0046745Y0128752D01*
X0047890Y0127852D02*
X0047890Y0127401D01*
X0048340Y0127401D01*
X0048340Y0127852D01*
X0047890Y0127852D01*
X0047890Y0126500D02*
X0047890Y0126050D01*
X0048340Y0126050D01*
X0048340Y0126500D01*
X0047890Y0126500D01*
X0044943Y0126951D02*
X0044943Y0128752D01*
X0043798Y0128752D02*
X0041997Y0128752D01*
X0041997Y0126050D01*
X0042447Y0131050D02*
X0041997Y0131500D01*
X0041997Y0132401D01*
X0042447Y0132852D01*
X0043348Y0132852D01*
X0043798Y0132401D01*
X0043798Y0131951D01*
X0041997Y0131951D01*
X0042447Y0131050D02*
X0043348Y0131050D01*
X0044943Y0131500D02*
X0044943Y0132401D01*
X0045393Y0132852D01*
X0046294Y0132852D01*
X0046745Y0132401D01*
X0046745Y0131951D01*
X0044943Y0131951D01*
X0044943Y0131500D02*
X0045393Y0131050D01*
X0046294Y0131050D01*
X0047890Y0131050D02*
X0049241Y0131050D01*
X0049691Y0131500D01*
X0049691Y0132401D01*
X0049241Y0132852D01*
X0047890Y0132852D01*
X0047890Y0130149D01*
X0050836Y0130600D02*
X0052638Y0130600D01*
X0053783Y0131050D02*
X0055134Y0131050D01*
X0055584Y0131500D01*
X0055584Y0131951D01*
X0055134Y0132401D01*
X0053783Y0132401D01*
X0055134Y0132401D02*
X0055584Y0132852D01*
X0055584Y0133302D01*
X0055134Y0133752D01*
X0053783Y0133752D01*
X0053783Y0131050D01*
X0053660Y0128752D02*
X0052760Y0128752D01*
X0052309Y0128302D01*
X0053660Y0128752D02*
X0054111Y0128302D01*
X0054111Y0127852D01*
X0052309Y0126050D01*
X0054111Y0126050D01*
X0057630Y0131050D02*
X0057630Y0133752D01*
X0056729Y0133752D02*
X0058531Y0133752D01*
X0058202Y0136050D02*
X0058202Y0137852D01*
X0059554Y0137852D01*
X0060004Y0137401D01*
X0060004Y0136050D01*
X0061149Y0136500D02*
X0061149Y0137401D01*
X0061599Y0137852D01*
X0062500Y0137852D01*
X0062950Y0137401D01*
X0062950Y0136951D01*
X0061149Y0136951D01*
X0061149Y0136500D02*
X0061599Y0136050D01*
X0062500Y0136050D01*
X0064095Y0136050D02*
X0064095Y0137852D01*
X0065447Y0137852D01*
X0065897Y0137401D01*
X0065897Y0136050D01*
X0067042Y0136500D02*
X0067492Y0136050D01*
X0068843Y0136050D01*
X0068843Y0135600D02*
X0068843Y0137852D01*
X0067492Y0137852D01*
X0067042Y0137401D01*
X0067042Y0136500D01*
X0067943Y0135149D02*
X0068393Y0135149D01*
X0068843Y0135600D01*
X0069988Y0136050D02*
X0070889Y0136050D01*
X0070439Y0136050D02*
X0070439Y0137852D01*
X0069988Y0137852D01*
X0070439Y0138752D02*
X0070439Y0139203D01*
X0071953Y0137852D02*
X0073304Y0137852D01*
X0073754Y0137401D01*
X0073754Y0136050D01*
X0074899Y0136500D02*
X0074899Y0137401D01*
X0075350Y0137852D01*
X0076250Y0137852D01*
X0076701Y0137401D01*
X0076701Y0136951D01*
X0074899Y0136951D01*
X0074899Y0136500D02*
X0075350Y0136050D01*
X0076250Y0136050D01*
X0077846Y0136500D02*
X0077846Y0137401D01*
X0078296Y0137852D01*
X0079197Y0137852D01*
X0079647Y0137401D01*
X0079647Y0136951D01*
X0077846Y0136951D01*
X0077846Y0136500D02*
X0078296Y0136050D01*
X0079197Y0136050D01*
X0080792Y0136050D02*
X0080792Y0137852D01*
X0080792Y0136951D02*
X0081693Y0137852D01*
X0082143Y0137852D01*
X0083248Y0136500D02*
X0083698Y0136500D01*
X0083698Y0136050D01*
X0083248Y0136050D01*
X0083248Y0136500D01*
X0084721Y0136500D02*
X0085171Y0136050D01*
X0086523Y0136050D01*
X0087668Y0136500D02*
X0087668Y0137401D01*
X0088118Y0137852D01*
X0089019Y0137852D01*
X0089469Y0137401D01*
X0089469Y0136500D01*
X0089019Y0136050D01*
X0088118Y0136050D01*
X0087668Y0136500D01*
X0086523Y0137852D02*
X0085171Y0137852D01*
X0084721Y0137401D01*
X0084721Y0136500D01*
X0082635Y0132852D02*
X0082184Y0132852D01*
X0081283Y0131951D01*
X0081283Y0131050D02*
X0081283Y0132852D01*
X0080138Y0132401D02*
X0080138Y0131951D01*
X0078337Y0131951D01*
X0078337Y0132401D02*
X0078787Y0132852D01*
X0079688Y0132852D01*
X0080138Y0132401D01*
X0079688Y0131050D02*
X0078787Y0131050D01*
X0078337Y0131500D01*
X0078337Y0132401D01*
X0077192Y0132401D02*
X0077192Y0131050D01*
X0077192Y0132401D02*
X0076742Y0132852D01*
X0075841Y0132852D01*
X0075390Y0132401D01*
X0074245Y0132852D02*
X0072894Y0132852D01*
X0072444Y0132401D01*
X0072444Y0131500D01*
X0072894Y0131050D01*
X0074245Y0131050D01*
X0075390Y0131050D02*
X0075390Y0133752D01*
X0071380Y0132852D02*
X0070480Y0132852D01*
X0070930Y0133302D02*
X0070930Y0131500D01*
X0071380Y0131050D01*
X0069416Y0131050D02*
X0068515Y0131050D01*
X0068966Y0131050D02*
X0068966Y0132852D01*
X0068515Y0132852D01*
X0068966Y0133752D02*
X0068966Y0134203D01*
X0067370Y0132852D02*
X0067370Y0131500D01*
X0066920Y0131050D01*
X0066469Y0131500D01*
X0066019Y0131050D01*
X0065569Y0131500D01*
X0065569Y0132852D01*
X0064424Y0133302D02*
X0063973Y0133752D01*
X0063073Y0133752D01*
X0062622Y0133302D01*
X0062622Y0132852D01*
X0063073Y0132401D01*
X0063973Y0132401D01*
X0064424Y0131951D01*
X0064424Y0131500D01*
X0063973Y0131050D01*
X0063073Y0131050D01*
X0062622Y0131500D01*
X0061477Y0130600D02*
X0059676Y0130600D01*
X0055747Y0136050D02*
X0055747Y0137852D01*
X0055747Y0136951D02*
X0056648Y0137852D01*
X0057098Y0137852D01*
X0054602Y0137401D02*
X0054602Y0136500D01*
X0054152Y0136050D01*
X0053251Y0136050D01*
X0052800Y0136500D01*
X0052800Y0137401D01*
X0053251Y0137852D01*
X0054152Y0137852D01*
X0054602Y0137401D01*
X0051655Y0137401D02*
X0051655Y0136050D01*
X0051655Y0137401D02*
X0051205Y0137852D01*
X0050304Y0137852D01*
X0049854Y0137401D01*
X0048709Y0137852D02*
X0047358Y0137852D01*
X0046907Y0137401D01*
X0046907Y0136500D01*
X0047358Y0136050D01*
X0048709Y0136050D01*
X0048709Y0135600D02*
X0048709Y0137852D01*
X0049854Y0138752D02*
X0049854Y0136050D01*
X0048709Y0135600D02*
X0048259Y0135149D01*
X0047808Y0135149D01*
X0045762Y0136050D02*
X0045762Y0137401D01*
X0045312Y0137852D01*
X0043961Y0137852D01*
X0043961Y0136050D01*
X0042816Y0136500D02*
X0042816Y0137401D01*
X0042365Y0137852D01*
X0041465Y0137852D01*
X0041014Y0137401D01*
X0041014Y0136500D01*
X0041465Y0136050D01*
X0042365Y0136050D01*
X0042816Y0136500D01*
X0039951Y0136050D02*
X0039050Y0136050D01*
X0039500Y0136050D02*
X0039500Y0138752D01*
X0039050Y0138752D01*
X0039951Y0141050D02*
X0039050Y0141951D01*
X0039050Y0142852D01*
X0039951Y0143752D01*
X0041014Y0142401D02*
X0041014Y0141500D01*
X0041465Y0141050D01*
X0042816Y0141050D01*
X0043961Y0141050D02*
X0044862Y0141951D01*
X0044862Y0142852D01*
X0043961Y0143752D01*
X0042816Y0142852D02*
X0041465Y0142852D01*
X0041014Y0142401D01*
X0048872Y0143302D02*
X0049322Y0143752D01*
X0050223Y0143752D01*
X0050673Y0143302D01*
X0050673Y0142852D01*
X0048872Y0141050D01*
X0050673Y0141050D01*
X0051818Y0141500D02*
X0053620Y0143302D01*
X0053620Y0141500D01*
X0053169Y0141050D01*
X0052269Y0141050D01*
X0051818Y0141500D01*
X0051818Y0143302D01*
X0052269Y0143752D01*
X0053169Y0143752D01*
X0053620Y0143302D01*
X0054765Y0142852D02*
X0055666Y0143752D01*
X0055666Y0141050D01*
X0056566Y0141050D02*
X0054765Y0141050D01*
X0057711Y0141500D02*
X0057711Y0142401D01*
X0059062Y0142401D01*
X0059513Y0141951D01*
X0059513Y0141500D01*
X0059062Y0141050D01*
X0058162Y0141050D01*
X0057711Y0141500D01*
X0057711Y0142401D02*
X0058612Y0143302D01*
X0059513Y0143752D01*
X0063604Y0143752D02*
X0063604Y0141050D01*
X0065406Y0141050D01*
X0066551Y0141500D02*
X0067001Y0141050D01*
X0067902Y0141050D01*
X0068352Y0141500D01*
X0068352Y0142401D01*
X0067902Y0142852D01*
X0067001Y0142852D01*
X0066551Y0142401D01*
X0066551Y0141500D01*
X0069497Y0141050D02*
X0069497Y0142852D01*
X0070848Y0142852D01*
X0071299Y0142401D01*
X0071299Y0141050D01*
X0072444Y0141500D02*
X0072444Y0142401D01*
X0072894Y0142852D01*
X0074245Y0142852D01*
X0074245Y0140600D01*
X0073795Y0140149D01*
X0073345Y0140149D01*
X0072894Y0141050D02*
X0074245Y0141050D01*
X0075390Y0141050D02*
X0075390Y0143752D01*
X0075841Y0142852D02*
X0076742Y0142852D01*
X0077192Y0142401D01*
X0077192Y0141050D01*
X0078337Y0141500D02*
X0078337Y0142401D01*
X0078787Y0142852D01*
X0079688Y0142852D01*
X0080138Y0142401D01*
X0080138Y0141500D01*
X0079688Y0141050D01*
X0078787Y0141050D01*
X0078337Y0141500D01*
X0075841Y0142852D02*
X0075390Y0142401D01*
X0072894Y0141050D02*
X0072444Y0141500D01*
X0071953Y0137852D02*
X0071953Y0136050D01*
X0081283Y0141050D02*
X0081283Y0142852D01*
X0082184Y0142852D02*
X0082635Y0142852D01*
X0082184Y0142852D02*
X0081283Y0141951D01*
X0083739Y0141050D02*
X0083739Y0142852D01*
X0085090Y0142852D01*
X0085540Y0142401D01*
X0085540Y0141050D01*
X0089632Y0141050D02*
X0089632Y0143752D01*
X0091433Y0143752D01*
X0092578Y0142852D02*
X0093930Y0142852D01*
X0094380Y0142401D01*
X0094380Y0141050D01*
X0095525Y0141500D02*
X0095525Y0142401D01*
X0095975Y0142852D01*
X0097326Y0142852D01*
X0097326Y0140600D01*
X0096876Y0140149D01*
X0096426Y0140149D01*
X0095975Y0141050D02*
X0097326Y0141050D01*
X0098471Y0141050D02*
X0099372Y0141050D01*
X0098922Y0141050D02*
X0098922Y0142852D01*
X0098471Y0142852D01*
X0098922Y0143752D02*
X0098922Y0144203D01*
X0100436Y0142852D02*
X0101787Y0142852D01*
X0102237Y0142401D01*
X0102237Y0141050D01*
X0103382Y0141500D02*
X0103382Y0142401D01*
X0103833Y0142852D01*
X0104733Y0142852D01*
X0105184Y0142401D01*
X0105184Y0141951D01*
X0103382Y0141951D01*
X0103382Y0141500D02*
X0103833Y0141050D01*
X0104733Y0141050D01*
X0106329Y0141500D02*
X0106329Y0142401D01*
X0106779Y0142852D01*
X0107680Y0142852D01*
X0108130Y0142401D01*
X0108130Y0141951D01*
X0106329Y0141951D01*
X0106329Y0141500D02*
X0106779Y0141050D01*
X0107680Y0141050D01*
X0109275Y0141050D02*
X0109275Y0142852D01*
X0109275Y0141951D02*
X0110176Y0142852D01*
X0110626Y0142852D01*
X0113879Y0143721D02*
X0113879Y0133879D01*
X0133721Y0133879D01*
X0133721Y0143721D01*
X0113879Y0143721D01*
X0113800Y0136300D02*
X0111300Y0133800D01*
X0111300Y0131300D01*
X0113800Y0131300D01*
X0116300Y0133800D01*
X0113800Y0136300D01*
X0113400Y0135900D02*
X0114200Y0135900D01*
X0114699Y0135401D02*
X0112901Y0135401D01*
X0112403Y0134903D02*
X0115197Y0134903D01*
X0115696Y0134404D02*
X0111904Y0134404D01*
X0111405Y0133905D02*
X0116195Y0133905D01*
X0115907Y0133407D02*
X0111300Y0133407D01*
X0111300Y0132908D02*
X0115408Y0132908D01*
X0114910Y0132410D02*
X0111300Y0132410D01*
X0111300Y0131911D02*
X0114411Y0131911D01*
X0113913Y0131413D02*
X0111300Y0131413D01*
X0100436Y0141050D02*
X0100436Y0142852D01*
X0095975Y0141050D02*
X0095525Y0141500D01*
X0092578Y0141050D02*
X0092578Y0142852D01*
X0090533Y0142401D02*
X0089632Y0142401D01*
X0089632Y0141050D02*
X0091433Y0141050D01*
X0091064Y0137852D02*
X0091515Y0137401D01*
X0091965Y0137852D01*
X0092416Y0137401D01*
X0092416Y0136050D01*
X0091515Y0136050D02*
X0091515Y0137401D01*
X0091064Y0137852D02*
X0090614Y0137852D01*
X0090614Y0136050D01*
X0101257Y0109887D02*
X0101257Y0095713D01*
X0108343Y0095713D01*
X0108343Y0109887D01*
X0101257Y0109887D01*
X0109957Y0103548D02*
X0129643Y0103548D01*
X0129643Y0072052D01*
X0109957Y0072052D01*
X0109957Y0083863D01*
X0113894Y0083863D01*
X0113894Y0091737D01*
X0109957Y0091737D01*
X0109957Y0083863D01*
X0109957Y0091737D02*
X0109957Y0103548D01*
X0111050Y0070300D02*
X0111328Y0070269D01*
X0111592Y0070176D01*
X0111829Y0070027D01*
X0112027Y0069829D01*
X0112176Y0069592D01*
X0112269Y0069328D01*
X0112300Y0069050D01*
X0112269Y0068772D01*
X0112176Y0068508D01*
X0112027Y0068271D01*
X0111829Y0068073D01*
X0111592Y0067924D01*
X0111328Y0067831D01*
X0111050Y0067800D01*
X0110772Y0067831D01*
X0110508Y0067924D01*
X0110271Y0068073D01*
X0110073Y0068271D01*
X0109924Y0068508D01*
X0109831Y0068772D01*
X0109800Y0069050D01*
X0109831Y0069328D01*
X0109924Y0069592D01*
X0110073Y0069829D01*
X0110271Y0070027D01*
X0110508Y0070176D01*
X0110772Y0070269D01*
X0111050Y0070300D01*
X0110380Y0070096D02*
X0111720Y0070096D01*
X0112173Y0069598D02*
X0109927Y0069598D01*
X0109806Y0069099D02*
X0112294Y0069099D01*
X0112209Y0068601D02*
X0109891Y0068601D01*
X0110241Y0068102D02*
X0111859Y0068102D01*
X0108343Y0069887D02*
X0101257Y0069887D01*
X0101257Y0055713D01*
X0108343Y0055713D01*
X0108343Y0069887D01*
X0109957Y0063548D02*
X0129643Y0063548D01*
X0129643Y0032052D01*
X0109957Y0032052D01*
X0109957Y0043863D01*
X0113894Y0043863D01*
X0113894Y0051737D01*
X0109957Y0051737D01*
X0109957Y0043863D01*
X0109957Y0051737D02*
X0109957Y0063548D01*
X0136713Y0065343D02*
X0136713Y0058257D01*
X0150887Y0058257D01*
X0150887Y0065343D01*
X0136713Y0065343D01*
X0136713Y0056343D02*
X0150887Y0056343D01*
X0150887Y0049257D01*
X0136713Y0049257D01*
X0136713Y0056343D01*
X0151879Y0046879D02*
X0161721Y0046879D01*
X0161721Y0086721D01*
X0151879Y0086721D01*
X0151879Y0046879D01*
X0159300Y0046800D02*
X0161800Y0044300D01*
X0164300Y0044300D01*
X0164300Y0046800D01*
X0161800Y0049300D01*
X0159300Y0046800D01*
X0159434Y0046666D02*
X0164300Y0046666D01*
X0164300Y0046168D02*
X0159932Y0046168D01*
X0160431Y0045669D02*
X0164300Y0045669D01*
X0164300Y0045170D02*
X0160930Y0045170D01*
X0161428Y0044672D02*
X0164300Y0044672D01*
X0163935Y0047165D02*
X0159665Y0047165D01*
X0160163Y0047663D02*
X0163437Y0047663D01*
X0162938Y0048162D02*
X0160662Y0048162D01*
X0161160Y0048660D02*
X0162440Y0048660D01*
X0161941Y0049159D02*
X0161659Y0049159D01*
X0138800Y0019800D02*
X0138805Y0020242D01*
X0138822Y0020683D01*
X0138849Y0021124D01*
X0138887Y0021564D01*
X0138935Y0022003D01*
X0138995Y0022441D01*
X0139065Y0022877D01*
X0139146Y0023312D01*
X0139237Y0023744D01*
X0139339Y0024174D01*
X0139452Y0024601D01*
X0139575Y0025025D01*
X0139708Y0025446D01*
X0139852Y0025864D01*
X0140006Y0026278D01*
X0140170Y0026688D01*
X0140344Y0027094D01*
X0140528Y0027496D01*
X0140722Y0027893D01*
X0140925Y0028285D01*
X0141138Y0028672D01*
X0141361Y0029054D01*
X0141593Y0029430D01*
X0141834Y0029800D01*
X0142083Y0030165D01*
X0142342Y0030523D01*
X0142610Y0030874D01*
X0142886Y0031219D01*
X0143170Y0031557D01*
X0143463Y0031888D01*
X0143764Y0032212D01*
X0144072Y0032528D01*
X0144388Y0032836D01*
X0144712Y0033137D01*
X0145043Y0033430D01*
X0145381Y0033714D01*
X0145726Y0033990D01*
X0146077Y0034258D01*
X0146435Y0034517D01*
X0146800Y0034766D01*
X0147170Y0035007D01*
X0147546Y0035239D01*
X0147928Y0035462D01*
X0148315Y0035675D01*
X0148707Y0035878D01*
X0149104Y0036072D01*
X0149506Y0036256D01*
X0149912Y0036430D01*
X0150322Y0036594D01*
X0150736Y0036748D01*
X0151154Y0036892D01*
X0151575Y0037025D01*
X0151999Y0037148D01*
X0152426Y0037261D01*
X0152856Y0037363D01*
X0153288Y0037454D01*
X0153723Y0037535D01*
X0154159Y0037605D01*
X0154597Y0037665D01*
X0155036Y0037713D01*
X0155476Y0037751D01*
X0155917Y0037778D01*
X0156358Y0037795D01*
X0156800Y0037800D01*
X0157242Y0037795D01*
X0157683Y0037778D01*
X0158124Y0037751D01*
X0158564Y0037713D01*
X0159003Y0037665D01*
X0159441Y0037605D01*
X0159877Y0037535D01*
X0160312Y0037454D01*
X0160744Y0037363D01*
X0161174Y0037261D01*
X0161601Y0037148D01*
X0162025Y0037025D01*
X0162446Y0036892D01*
X0162864Y0036748D01*
X0163278Y0036594D01*
X0163688Y0036430D01*
X0164094Y0036256D01*
X0164496Y0036072D01*
X0164893Y0035878D01*
X0165285Y0035675D01*
X0165672Y0035462D01*
X0166054Y0035239D01*
X0166430Y0035007D01*
X0166800Y0034766D01*
X0167165Y0034517D01*
X0167523Y0034258D01*
X0167874Y0033990D01*
X0168219Y0033714D01*
X0168557Y0033430D01*
X0168888Y0033137D01*
X0169212Y0032836D01*
X0169528Y0032528D01*
X0169836Y0032212D01*
X0170137Y0031888D01*
X0170430Y0031557D01*
X0170714Y0031219D01*
X0170990Y0030874D01*
X0171258Y0030523D01*
X0171517Y0030165D01*
X0171766Y0029800D01*
X0172007Y0029430D01*
X0172239Y0029054D01*
X0172462Y0028672D01*
X0172675Y0028285D01*
X0172878Y0027893D01*
X0173072Y0027496D01*
X0173256Y0027094D01*
X0173430Y0026688D01*
X0173594Y0026278D01*
X0173748Y0025864D01*
X0173892Y0025446D01*
X0174025Y0025025D01*
X0174148Y0024601D01*
X0174261Y0024174D01*
X0174363Y0023744D01*
X0174454Y0023312D01*
X0174535Y0022877D01*
X0174605Y0022441D01*
X0174665Y0022003D01*
X0174713Y0021564D01*
X0174751Y0021124D01*
X0174778Y0020683D01*
X0174795Y0020242D01*
X0174800Y0019800D01*
X0174795Y0019358D01*
X0174778Y0018917D01*
X0174751Y0018476D01*
X0174713Y0018036D01*
X0174665Y0017597D01*
X0174605Y0017159D01*
X0174535Y0016723D01*
X0174454Y0016288D01*
X0174363Y0015856D01*
X0174261Y0015426D01*
X0174148Y0014999D01*
X0174025Y0014575D01*
X0173892Y0014154D01*
X0173748Y0013736D01*
X0173594Y0013322D01*
X0173430Y0012912D01*
X0173256Y0012506D01*
X0173072Y0012104D01*
X0172878Y0011707D01*
X0172675Y0011315D01*
X0172462Y0010928D01*
X0172239Y0010546D01*
X0172007Y0010170D01*
X0171766Y0009800D01*
X0171517Y0009435D01*
X0171258Y0009077D01*
X0170990Y0008726D01*
X0170714Y0008381D01*
X0170430Y0008043D01*
X0170137Y0007712D01*
X0169836Y0007388D01*
X0169528Y0007072D01*
X0169212Y0006764D01*
X0168888Y0006463D01*
X0168557Y0006170D01*
X0168219Y0005886D01*
X0167874Y0005610D01*
X0167523Y0005342D01*
X0167165Y0005083D01*
X0166800Y0004834D01*
X0166430Y0004593D01*
X0166054Y0004361D01*
X0165672Y0004138D01*
X0165285Y0003925D01*
X0164893Y0003722D01*
X0164496Y0003528D01*
X0164094Y0003344D01*
X0163688Y0003170D01*
X0163278Y0003006D01*
X0162864Y0002852D01*
X0162446Y0002708D01*
X0162025Y0002575D01*
X0161601Y0002452D01*
X0161174Y0002339D01*
X0160744Y0002237D01*
X0160312Y0002146D01*
X0159877Y0002065D01*
X0159441Y0001995D01*
X0159003Y0001935D01*
X0158564Y0001887D01*
X0158124Y0001849D01*
X0157683Y0001822D01*
X0157242Y0001805D01*
X0156800Y0001800D01*
X0156358Y0001805D01*
X0155917Y0001822D01*
X0155476Y0001849D01*
X0155036Y0001887D01*
X0154597Y0001935D01*
X0154159Y0001995D01*
X0153723Y0002065D01*
X0153288Y0002146D01*
X0152856Y0002237D01*
X0152426Y0002339D01*
X0151999Y0002452D01*
X0151575Y0002575D01*
X0151154Y0002708D01*
X0150736Y0002852D01*
X0150322Y0003006D01*
X0149912Y0003170D01*
X0149506Y0003344D01*
X0149104Y0003528D01*
X0148707Y0003722D01*
X0148315Y0003925D01*
X0147928Y0004138D01*
X0147546Y0004361D01*
X0147170Y0004593D01*
X0146800Y0004834D01*
X0146435Y0005083D01*
X0146077Y0005342D01*
X0145726Y0005610D01*
X0145381Y0005886D01*
X0145043Y0006170D01*
X0144712Y0006463D01*
X0144388Y0006764D01*
X0144072Y0007072D01*
X0143764Y0007388D01*
X0143463Y0007712D01*
X0143170Y0008043D01*
X0142886Y0008381D01*
X0142610Y0008726D01*
X0142342Y0009077D01*
X0142083Y0009435D01*
X0141834Y0009800D01*
X0141593Y0010170D01*
X0141361Y0010546D01*
X0141138Y0010928D01*
X0140925Y0011315D01*
X0140722Y0011707D01*
X0140528Y0012104D01*
X0140344Y0012506D01*
X0140170Y0012912D01*
X0140006Y0013322D01*
X0139852Y0013736D01*
X0139708Y0014154D01*
X0139575Y0014575D01*
X0139452Y0014999D01*
X0139339Y0015426D01*
X0139237Y0015856D01*
X0139146Y0016288D01*
X0139065Y0016723D01*
X0138995Y0017159D01*
X0138935Y0017597D01*
X0138887Y0018036D01*
X0138849Y0018476D01*
X0138822Y0018917D01*
X0138805Y0019358D01*
X0138800Y0019800D01*
X0112269Y0028772D02*
X0112300Y0029050D01*
X0112269Y0029328D01*
X0112176Y0029592D01*
X0112027Y0029829D01*
X0111829Y0030027D01*
X0111592Y0030176D01*
X0111328Y0030269D01*
X0111050Y0030300D01*
X0110772Y0030269D01*
X0110508Y0030176D01*
X0110271Y0030027D01*
X0110073Y0029829D01*
X0109924Y0029592D01*
X0109831Y0029328D01*
X0109800Y0029050D01*
X0109831Y0028772D01*
X0109924Y0028508D01*
X0110073Y0028271D01*
X0110271Y0028073D01*
X0110508Y0027924D01*
X0110772Y0027831D01*
X0111050Y0027800D01*
X0111328Y0027831D01*
X0111592Y0027924D01*
X0111829Y0028073D01*
X0112027Y0028271D01*
X0112176Y0028508D01*
X0112269Y0028772D01*
X0112250Y0028720D02*
X0109850Y0028720D01*
X0109819Y0029218D02*
X0112281Y0029218D01*
X0112098Y0029717D02*
X0110002Y0029717D01*
X0110619Y0030215D02*
X0111481Y0030215D01*
X0111978Y0028221D02*
X0110122Y0028221D01*
X0045737Y0085737D02*
X0045737Y0089674D01*
X0043769Y0087706D02*
X0047706Y0087706D01*
X0016721Y0106721D02*
X0016721Y0046879D01*
X0006879Y0046879D01*
X0006879Y0106721D01*
X0016721Y0106721D01*
X0001800Y0127800D02*
X0001805Y0128242D01*
X0001822Y0128683D01*
X0001849Y0129124D01*
X0001887Y0129564D01*
X0001935Y0130003D01*
X0001995Y0130441D01*
X0002065Y0130877D01*
X0002146Y0131312D01*
X0002237Y0131744D01*
X0002339Y0132174D01*
X0002452Y0132601D01*
X0002575Y0133025D01*
X0002708Y0133446D01*
X0002852Y0133864D01*
X0003006Y0134278D01*
X0003170Y0134688D01*
X0003344Y0135094D01*
X0003528Y0135496D01*
X0003722Y0135893D01*
X0003925Y0136285D01*
X0004138Y0136672D01*
X0004361Y0137054D01*
X0004593Y0137430D01*
X0004834Y0137800D01*
X0005083Y0138165D01*
X0005342Y0138523D01*
X0005610Y0138874D01*
X0005886Y0139219D01*
X0006170Y0139557D01*
X0006463Y0139888D01*
X0006764Y0140212D01*
X0007072Y0140528D01*
X0007388Y0140836D01*
X0007712Y0141137D01*
X0008043Y0141430D01*
X0008381Y0141714D01*
X0008726Y0141990D01*
X0009077Y0142258D01*
X0009435Y0142517D01*
X0009800Y0142766D01*
X0010170Y0143007D01*
X0010546Y0143239D01*
X0010928Y0143462D01*
X0011315Y0143675D01*
X0011707Y0143878D01*
X0012104Y0144072D01*
X0012506Y0144256D01*
X0012912Y0144430D01*
X0013322Y0144594D01*
X0013736Y0144748D01*
X0014154Y0144892D01*
X0014575Y0145025D01*
X0014999Y0145148D01*
X0015426Y0145261D01*
X0015856Y0145363D01*
X0016288Y0145454D01*
X0016723Y0145535D01*
X0017159Y0145605D01*
X0017597Y0145665D01*
X0018036Y0145713D01*
X0018476Y0145751D01*
X0018917Y0145778D01*
X0019358Y0145795D01*
X0019800Y0145800D01*
X0020242Y0145795D01*
X0020683Y0145778D01*
X0021124Y0145751D01*
X0021564Y0145713D01*
X0022003Y0145665D01*
X0022441Y0145605D01*
X0022877Y0145535D01*
X0023312Y0145454D01*
X0023744Y0145363D01*
X0024174Y0145261D01*
X0024601Y0145148D01*
X0025025Y0145025D01*
X0025446Y0144892D01*
X0025864Y0144748D01*
X0026278Y0144594D01*
X0026688Y0144430D01*
X0027094Y0144256D01*
X0027496Y0144072D01*
X0027893Y0143878D01*
X0028285Y0143675D01*
X0028672Y0143462D01*
X0029054Y0143239D01*
X0029430Y0143007D01*
X0029800Y0142766D01*
X0030165Y0142517D01*
X0030523Y0142258D01*
X0030874Y0141990D01*
X0031219Y0141714D01*
X0031557Y0141430D01*
X0031888Y0141137D01*
X0032212Y0140836D01*
X0032528Y0140528D01*
X0032836Y0140212D01*
X0033137Y0139888D01*
X0033430Y0139557D01*
X0033714Y0139219D01*
X0033990Y0138874D01*
X0034258Y0138523D01*
X0034517Y0138165D01*
X0034766Y0137800D01*
X0035007Y0137430D01*
X0035239Y0137054D01*
X0035462Y0136672D01*
X0035675Y0136285D01*
X0035878Y0135893D01*
X0036072Y0135496D01*
X0036256Y0135094D01*
X0036430Y0134688D01*
X0036594Y0134278D01*
X0036748Y0133864D01*
X0036892Y0133446D01*
X0037025Y0133025D01*
X0037148Y0132601D01*
X0037261Y0132174D01*
X0037363Y0131744D01*
X0037454Y0131312D01*
X0037535Y0130877D01*
X0037605Y0130441D01*
X0037665Y0130003D01*
X0037713Y0129564D01*
X0037751Y0129124D01*
X0037778Y0128683D01*
X0037795Y0128242D01*
X0037800Y0127800D01*
X0037795Y0127358D01*
X0037778Y0126917D01*
X0037751Y0126476D01*
X0037713Y0126036D01*
X0037665Y0125597D01*
X0037605Y0125159D01*
X0037535Y0124723D01*
X0037454Y0124288D01*
X0037363Y0123856D01*
X0037261Y0123426D01*
X0037148Y0122999D01*
X0037025Y0122575D01*
X0036892Y0122154D01*
X0036748Y0121736D01*
X0036594Y0121322D01*
X0036430Y0120912D01*
X0036256Y0120506D01*
X0036072Y0120104D01*
X0035878Y0119707D01*
X0035675Y0119315D01*
X0035462Y0118928D01*
X0035239Y0118546D01*
X0035007Y0118170D01*
X0034766Y0117800D01*
X0034517Y0117435D01*
X0034258Y0117077D01*
X0033990Y0116726D01*
X0033714Y0116381D01*
X0033430Y0116043D01*
X0033137Y0115712D01*
X0032836Y0115388D01*
X0032528Y0115072D01*
X0032212Y0114764D01*
X0031888Y0114463D01*
X0031557Y0114170D01*
X0031219Y0113886D01*
X0030874Y0113610D01*
X0030523Y0113342D01*
X0030165Y0113083D01*
X0029800Y0112834D01*
X0029430Y0112593D01*
X0029054Y0112361D01*
X0028672Y0112138D01*
X0028285Y0111925D01*
X0027893Y0111722D01*
X0027496Y0111528D01*
X0027094Y0111344D01*
X0026688Y0111170D01*
X0026278Y0111006D01*
X0025864Y0110852D01*
X0025446Y0110708D01*
X0025025Y0110575D01*
X0024601Y0110452D01*
X0024174Y0110339D01*
X0023744Y0110237D01*
X0023312Y0110146D01*
X0022877Y0110065D01*
X0022441Y0109995D01*
X0022003Y0109935D01*
X0021564Y0109887D01*
X0021124Y0109849D01*
X0020683Y0109822D01*
X0020242Y0109805D01*
X0019800Y0109800D01*
X0019358Y0109805D01*
X0018917Y0109822D01*
X0018476Y0109849D01*
X0018036Y0109887D01*
X0017597Y0109935D01*
X0017159Y0109995D01*
X0016723Y0110065D01*
X0016288Y0110146D01*
X0015856Y0110237D01*
X0015426Y0110339D01*
X0014999Y0110452D01*
X0014575Y0110575D01*
X0014154Y0110708D01*
X0013736Y0110852D01*
X0013322Y0111006D01*
X0012912Y0111170D01*
X0012506Y0111344D01*
X0012104Y0111528D01*
X0011707Y0111722D01*
X0011315Y0111925D01*
X0010928Y0112138D01*
X0010546Y0112361D01*
X0010170Y0112593D01*
X0009800Y0112834D01*
X0009435Y0113083D01*
X0009077Y0113342D01*
X0008726Y0113610D01*
X0008381Y0113886D01*
X0008043Y0114170D01*
X0007712Y0114463D01*
X0007388Y0114764D01*
X0007072Y0115072D01*
X0006764Y0115388D01*
X0006463Y0115712D01*
X0006170Y0116043D01*
X0005886Y0116381D01*
X0005610Y0116726D01*
X0005342Y0117077D01*
X0005083Y0117435D01*
X0004834Y0117800D01*
X0004593Y0118170D01*
X0004361Y0118546D01*
X0004138Y0118928D01*
X0003925Y0119315D01*
X0003722Y0119707D01*
X0003528Y0120104D01*
X0003344Y0120506D01*
X0003170Y0120912D01*
X0003006Y0121322D01*
X0002852Y0121736D01*
X0002708Y0122154D01*
X0002575Y0122575D01*
X0002452Y0122999D01*
X0002339Y0123426D01*
X0002237Y0123856D01*
X0002146Y0124288D01*
X0002065Y0124723D01*
X0001995Y0125159D01*
X0001935Y0125597D01*
X0001887Y0126036D01*
X0001849Y0126476D01*
X0001822Y0126917D01*
X0001805Y0127358D01*
X0001800Y0127800D01*
X0039050Y0131500D02*
X0039500Y0131050D01*
X0039951Y0131050D01*
X0040401Y0131500D01*
X0040401Y0133752D01*
X0039951Y0133752D02*
X0040852Y0133752D01*
X0016800Y0049300D02*
X0014300Y0046800D01*
X0016800Y0044300D01*
X0019300Y0044300D01*
X0019300Y0046800D01*
X0016800Y0049300D01*
X0016659Y0049159D02*
X0016941Y0049159D01*
X0017440Y0048660D02*
X0016160Y0048660D01*
X0015662Y0048162D02*
X0017938Y0048162D01*
X0018437Y0047663D02*
X0015163Y0047663D01*
X0014665Y0047165D02*
X0018935Y0047165D01*
X0019300Y0046666D02*
X0014434Y0046666D01*
X0014932Y0046168D02*
X0019300Y0046168D01*
X0019300Y0045669D02*
X0015431Y0045669D01*
X0015930Y0045170D02*
X0019300Y0045170D01*
X0019300Y0044672D02*
X0016428Y0044672D01*
X0001800Y0019800D02*
X0001805Y0020242D01*
X0001822Y0020683D01*
X0001849Y0021124D01*
X0001887Y0021564D01*
X0001935Y0022003D01*
X0001995Y0022441D01*
X0002065Y0022877D01*
X0002146Y0023312D01*
X0002237Y0023744D01*
X0002339Y0024174D01*
X0002452Y0024601D01*
X0002575Y0025025D01*
X0002708Y0025446D01*
X0002852Y0025864D01*
X0003006Y0026278D01*
X0003170Y0026688D01*
X0003344Y0027094D01*
X0003528Y0027496D01*
X0003722Y0027893D01*
X0003925Y0028285D01*
X0004138Y0028672D01*
X0004361Y0029054D01*
X0004593Y0029430D01*
X0004834Y0029800D01*
X0005083Y0030165D01*
X0005342Y0030523D01*
X0005610Y0030874D01*
X0005886Y0031219D01*
X0006170Y0031557D01*
X0006463Y0031888D01*
X0006764Y0032212D01*
X0007072Y0032528D01*
X0007388Y0032836D01*
X0007712Y0033137D01*
X0008043Y0033430D01*
X0008381Y0033714D01*
X0008726Y0033990D01*
X0009077Y0034258D01*
X0009435Y0034517D01*
X0009800Y0034766D01*
X0010170Y0035007D01*
X0010546Y0035239D01*
X0010928Y0035462D01*
X0011315Y0035675D01*
X0011707Y0035878D01*
X0012104Y0036072D01*
X0012506Y0036256D01*
X0012912Y0036430D01*
X0013322Y0036594D01*
X0013736Y0036748D01*
X0014154Y0036892D01*
X0014575Y0037025D01*
X0014999Y0037148D01*
X0015426Y0037261D01*
X0015856Y0037363D01*
X0016288Y0037454D01*
X0016723Y0037535D01*
X0017159Y0037605D01*
X0017597Y0037665D01*
X0018036Y0037713D01*
X0018476Y0037751D01*
X0018917Y0037778D01*
X0019358Y0037795D01*
X0019800Y0037800D01*
X0020242Y0037795D01*
X0020683Y0037778D01*
X0021124Y0037751D01*
X0021564Y0037713D01*
X0022003Y0037665D01*
X0022441Y0037605D01*
X0022877Y0037535D01*
X0023312Y0037454D01*
X0023744Y0037363D01*
X0024174Y0037261D01*
X0024601Y0037148D01*
X0025025Y0037025D01*
X0025446Y0036892D01*
X0025864Y0036748D01*
X0026278Y0036594D01*
X0026688Y0036430D01*
X0027094Y0036256D01*
X0027496Y0036072D01*
X0027893Y0035878D01*
X0028285Y0035675D01*
X0028672Y0035462D01*
X0029054Y0035239D01*
X0029430Y0035007D01*
X0029800Y0034766D01*
X0030165Y0034517D01*
X0030523Y0034258D01*
X0030874Y0033990D01*
X0031219Y0033714D01*
X0031557Y0033430D01*
X0031888Y0033137D01*
X0032212Y0032836D01*
X0032528Y0032528D01*
X0032836Y0032212D01*
X0033137Y0031888D01*
X0033430Y0031557D01*
X0033714Y0031219D01*
X0033990Y0030874D01*
X0034258Y0030523D01*
X0034517Y0030165D01*
X0034766Y0029800D01*
X0035007Y0029430D01*
X0035239Y0029054D01*
X0035462Y0028672D01*
X0035675Y0028285D01*
X0035878Y0027893D01*
X0036072Y0027496D01*
X0036256Y0027094D01*
X0036430Y0026688D01*
X0036594Y0026278D01*
X0036748Y0025864D01*
X0036892Y0025446D01*
X0037025Y0025025D01*
X0037148Y0024601D01*
X0037261Y0024174D01*
X0037363Y0023744D01*
X0037454Y0023312D01*
X0037535Y0022877D01*
X0037605Y0022441D01*
X0037665Y0022003D01*
X0037713Y0021564D01*
X0037751Y0021124D01*
X0037778Y0020683D01*
X0037795Y0020242D01*
X0037800Y0019800D01*
X0037795Y0019358D01*
X0037778Y0018917D01*
X0037751Y0018476D01*
X0037713Y0018036D01*
X0037665Y0017597D01*
X0037605Y0017159D01*
X0037535Y0016723D01*
X0037454Y0016288D01*
X0037363Y0015856D01*
X0037261Y0015426D01*
X0037148Y0014999D01*
X0037025Y0014575D01*
X0036892Y0014154D01*
X0036748Y0013736D01*
X0036594Y0013322D01*
X0036430Y0012912D01*
X0036256Y0012506D01*
X0036072Y0012104D01*
X0035878Y0011707D01*
X0035675Y0011315D01*
X0035462Y0010928D01*
X0035239Y0010546D01*
X0035007Y0010170D01*
X0034766Y0009800D01*
X0034517Y0009435D01*
X0034258Y0009077D01*
X0033990Y0008726D01*
X0033714Y0008381D01*
X0033430Y0008043D01*
X0033137Y0007712D01*
X0032836Y0007388D01*
X0032528Y0007072D01*
X0032212Y0006764D01*
X0031888Y0006463D01*
X0031557Y0006170D01*
X0031219Y0005886D01*
X0030874Y0005610D01*
X0030523Y0005342D01*
X0030165Y0005083D01*
X0029800Y0004834D01*
X0029430Y0004593D01*
X0029054Y0004361D01*
X0028672Y0004138D01*
X0028285Y0003925D01*
X0027893Y0003722D01*
X0027496Y0003528D01*
X0027094Y0003344D01*
X0026688Y0003170D01*
X0026278Y0003006D01*
X0025864Y0002852D01*
X0025446Y0002708D01*
X0025025Y0002575D01*
X0024601Y0002452D01*
X0024174Y0002339D01*
X0023744Y0002237D01*
X0023312Y0002146D01*
X0022877Y0002065D01*
X0022441Y0001995D01*
X0022003Y0001935D01*
X0021564Y0001887D01*
X0021124Y0001849D01*
X0020683Y0001822D01*
X0020242Y0001805D01*
X0019800Y0001800D01*
X0019358Y0001805D01*
X0018917Y0001822D01*
X0018476Y0001849D01*
X0018036Y0001887D01*
X0017597Y0001935D01*
X0017159Y0001995D01*
X0016723Y0002065D01*
X0016288Y0002146D01*
X0015856Y0002237D01*
X0015426Y0002339D01*
X0014999Y0002452D01*
X0014575Y0002575D01*
X0014154Y0002708D01*
X0013736Y0002852D01*
X0013322Y0003006D01*
X0012912Y0003170D01*
X0012506Y0003344D01*
X0012104Y0003528D01*
X0011707Y0003722D01*
X0011315Y0003925D01*
X0010928Y0004138D01*
X0010546Y0004361D01*
X0010170Y0004593D01*
X0009800Y0004834D01*
X0009435Y0005083D01*
X0009077Y0005342D01*
X0008726Y0005610D01*
X0008381Y0005886D01*
X0008043Y0006170D01*
X0007712Y0006463D01*
X0007388Y0006764D01*
X0007072Y0007072D01*
X0006764Y0007388D01*
X0006463Y0007712D01*
X0006170Y0008043D01*
X0005886Y0008381D01*
X0005610Y0008726D01*
X0005342Y0009077D01*
X0005083Y0009435D01*
X0004834Y0009800D01*
X0004593Y0010170D01*
X0004361Y0010546D01*
X0004138Y0010928D01*
X0003925Y0011315D01*
X0003722Y0011707D01*
X0003528Y0012104D01*
X0003344Y0012506D01*
X0003170Y0012912D01*
X0003006Y0013322D01*
X0002852Y0013736D01*
X0002708Y0014154D01*
X0002575Y0014575D01*
X0002452Y0014999D01*
X0002339Y0015426D01*
X0002237Y0015856D01*
X0002146Y0016288D01*
X0002065Y0016723D01*
X0001995Y0017159D01*
X0001935Y0017597D01*
X0001887Y0018036D01*
X0001849Y0018476D01*
X0001822Y0018917D01*
X0001805Y0019358D01*
X0001800Y0019800D01*
X0138800Y0127800D02*
X0138805Y0128242D01*
X0138822Y0128683D01*
X0138849Y0129124D01*
X0138887Y0129564D01*
X0138935Y0130003D01*
X0138995Y0130441D01*
X0139065Y0130877D01*
X0139146Y0131312D01*
X0139237Y0131744D01*
X0139339Y0132174D01*
X0139452Y0132601D01*
X0139575Y0133025D01*
X0139708Y0133446D01*
X0139852Y0133864D01*
X0140006Y0134278D01*
X0140170Y0134688D01*
X0140344Y0135094D01*
X0140528Y0135496D01*
X0140722Y0135893D01*
X0140925Y0136285D01*
X0141138Y0136672D01*
X0141361Y0137054D01*
X0141593Y0137430D01*
X0141834Y0137800D01*
X0142083Y0138165D01*
X0142342Y0138523D01*
X0142610Y0138874D01*
X0142886Y0139219D01*
X0143170Y0139557D01*
X0143463Y0139888D01*
X0143764Y0140212D01*
X0144072Y0140528D01*
X0144388Y0140836D01*
X0144712Y0141137D01*
X0145043Y0141430D01*
X0145381Y0141714D01*
X0145726Y0141990D01*
X0146077Y0142258D01*
X0146435Y0142517D01*
X0146800Y0142766D01*
X0147170Y0143007D01*
X0147546Y0143239D01*
X0147928Y0143462D01*
X0148315Y0143675D01*
X0148707Y0143878D01*
X0149104Y0144072D01*
X0149506Y0144256D01*
X0149912Y0144430D01*
X0150322Y0144594D01*
X0150736Y0144748D01*
X0151154Y0144892D01*
X0151575Y0145025D01*
X0151999Y0145148D01*
X0152426Y0145261D01*
X0152856Y0145363D01*
X0153288Y0145454D01*
X0153723Y0145535D01*
X0154159Y0145605D01*
X0154597Y0145665D01*
X0155036Y0145713D01*
X0155476Y0145751D01*
X0155917Y0145778D01*
X0156358Y0145795D01*
X0156800Y0145800D01*
X0157242Y0145795D01*
X0157683Y0145778D01*
X0158124Y0145751D01*
X0158564Y0145713D01*
X0159003Y0145665D01*
X0159441Y0145605D01*
X0159877Y0145535D01*
X0160312Y0145454D01*
X0160744Y0145363D01*
X0161174Y0145261D01*
X0161601Y0145148D01*
X0162025Y0145025D01*
X0162446Y0144892D01*
X0162864Y0144748D01*
X0163278Y0144594D01*
X0163688Y0144430D01*
X0164094Y0144256D01*
X0164496Y0144072D01*
X0164893Y0143878D01*
X0165285Y0143675D01*
X0165672Y0143462D01*
X0166054Y0143239D01*
X0166430Y0143007D01*
X0166800Y0142766D01*
X0167165Y0142517D01*
X0167523Y0142258D01*
X0167874Y0141990D01*
X0168219Y0141714D01*
X0168557Y0141430D01*
X0168888Y0141137D01*
X0169212Y0140836D01*
X0169528Y0140528D01*
X0169836Y0140212D01*
X0170137Y0139888D01*
X0170430Y0139557D01*
X0170714Y0139219D01*
X0170990Y0138874D01*
X0171258Y0138523D01*
X0171517Y0138165D01*
X0171766Y0137800D01*
X0172007Y0137430D01*
X0172239Y0137054D01*
X0172462Y0136672D01*
X0172675Y0136285D01*
X0172878Y0135893D01*
X0173072Y0135496D01*
X0173256Y0135094D01*
X0173430Y0134688D01*
X0173594Y0134278D01*
X0173748Y0133864D01*
X0173892Y0133446D01*
X0174025Y0133025D01*
X0174148Y0132601D01*
X0174261Y0132174D01*
X0174363Y0131744D01*
X0174454Y0131312D01*
X0174535Y0130877D01*
X0174605Y0130441D01*
X0174665Y0130003D01*
X0174713Y0129564D01*
X0174751Y0129124D01*
X0174778Y0128683D01*
X0174795Y0128242D01*
X0174800Y0127800D01*
X0174795Y0127358D01*
X0174778Y0126917D01*
X0174751Y0126476D01*
X0174713Y0126036D01*
X0174665Y0125597D01*
X0174605Y0125159D01*
X0174535Y0124723D01*
X0174454Y0124288D01*
X0174363Y0123856D01*
X0174261Y0123426D01*
X0174148Y0122999D01*
X0174025Y0122575D01*
X0173892Y0122154D01*
X0173748Y0121736D01*
X0173594Y0121322D01*
X0173430Y0120912D01*
X0173256Y0120506D01*
X0173072Y0120104D01*
X0172878Y0119707D01*
X0172675Y0119315D01*
X0172462Y0118928D01*
X0172239Y0118546D01*
X0172007Y0118170D01*
X0171766Y0117800D01*
X0171517Y0117435D01*
X0171258Y0117077D01*
X0170990Y0116726D01*
X0170714Y0116381D01*
X0170430Y0116043D01*
X0170137Y0115712D01*
X0169836Y0115388D01*
X0169528Y0115072D01*
X0169212Y0114764D01*
X0168888Y0114463D01*
X0168557Y0114170D01*
X0168219Y0113886D01*
X0167874Y0113610D01*
X0167523Y0113342D01*
X0167165Y0113083D01*
X0166800Y0112834D01*
X0166430Y0112593D01*
X0166054Y0112361D01*
X0165672Y0112138D01*
X0165285Y0111925D01*
X0164893Y0111722D01*
X0164496Y0111528D01*
X0164094Y0111344D01*
X0163688Y0111170D01*
X0163278Y0111006D01*
X0162864Y0110852D01*
X0162446Y0110708D01*
X0162025Y0110575D01*
X0161601Y0110452D01*
X0161174Y0110339D01*
X0160744Y0110237D01*
X0160312Y0110146D01*
X0159877Y0110065D01*
X0159441Y0109995D01*
X0159003Y0109935D01*
X0158564Y0109887D01*
X0158124Y0109849D01*
X0157683Y0109822D01*
X0157242Y0109805D01*
X0156800Y0109800D01*
X0156358Y0109805D01*
X0155917Y0109822D01*
X0155476Y0109849D01*
X0155036Y0109887D01*
X0154597Y0109935D01*
X0154159Y0109995D01*
X0153723Y0110065D01*
X0153288Y0110146D01*
X0152856Y0110237D01*
X0152426Y0110339D01*
X0151999Y0110452D01*
X0151575Y0110575D01*
X0151154Y0110708D01*
X0150736Y0110852D01*
X0150322Y0111006D01*
X0149912Y0111170D01*
X0149506Y0111344D01*
X0149104Y0111528D01*
X0148707Y0111722D01*
X0148315Y0111925D01*
X0147928Y0112138D01*
X0147546Y0112361D01*
X0147170Y0112593D01*
X0146800Y0112834D01*
X0146435Y0113083D01*
X0146077Y0113342D01*
X0145726Y0113610D01*
X0145381Y0113886D01*
X0145043Y0114170D01*
X0144712Y0114463D01*
X0144388Y0114764D01*
X0144072Y0115072D01*
X0143764Y0115388D01*
X0143463Y0115712D01*
X0143170Y0116043D01*
X0142886Y0116381D01*
X0142610Y0116726D01*
X0142342Y0117077D01*
X0142083Y0117435D01*
X0141834Y0117800D01*
X0141593Y0118170D01*
X0141361Y0118546D01*
X0141138Y0118928D01*
X0140925Y0119315D01*
X0140722Y0119707D01*
X0140528Y0120104D01*
X0140344Y0120506D01*
X0140170Y0120912D01*
X0140006Y0121322D01*
X0139852Y0121736D01*
X0139708Y0122154D01*
X0139575Y0122575D01*
X0139452Y0122999D01*
X0139339Y0123426D01*
X0139237Y0123856D01*
X0139146Y0124288D01*
X0139065Y0124723D01*
X0138995Y0125159D01*
X0138935Y0125597D01*
X0138887Y0126036D01*
X0138849Y0126476D01*
X0138822Y0126917D01*
X0138805Y0127358D01*
X0138800Y0127800D01*
D12*
X0127130Y0129573D02*
X0126563Y0129006D01*
X0125429Y0129006D01*
X0124862Y0129573D01*
X0125996Y0130707D02*
X0126563Y0130707D01*
X0127130Y0130140D01*
X0127130Y0129573D01*
X0126563Y0130707D02*
X0127130Y0131274D01*
X0127130Y0131841D01*
X0126563Y0132408D01*
X0125429Y0132408D01*
X0124862Y0131841D01*
X0123447Y0132408D02*
X0122313Y0132408D01*
X0122880Y0132408D02*
X0122880Y0129573D01*
X0122313Y0129006D01*
X0121746Y0129006D01*
X0121179Y0129573D01*
X0099965Y0109834D02*
X0098831Y0109266D01*
X0097697Y0108132D01*
X0099398Y0108132D01*
X0099965Y0107565D01*
X0099965Y0106998D01*
X0099398Y0106431D01*
X0098264Y0106431D01*
X0097697Y0106998D01*
X0097697Y0108132D01*
X0096282Y0106998D02*
X0095715Y0106431D01*
X0094581Y0106431D01*
X0094013Y0106998D01*
X0094013Y0109266D01*
X0094581Y0109834D01*
X0095715Y0109834D01*
X0096282Y0109266D01*
X0110352Y0108503D02*
X0110352Y0105667D01*
X0110919Y0105100D01*
X0112053Y0105100D01*
X0112621Y0105667D01*
X0112621Y0108503D01*
X0114035Y0107936D02*
X0114602Y0108503D01*
X0115737Y0108503D01*
X0116304Y0107936D01*
X0116304Y0107369D01*
X0115737Y0106801D01*
X0116304Y0106234D01*
X0116304Y0105667D01*
X0115737Y0105100D01*
X0114602Y0105100D01*
X0114035Y0105667D01*
X0115169Y0106801D02*
X0115737Y0106801D01*
X0076965Y0106998D02*
X0076398Y0106431D01*
X0075264Y0106431D01*
X0074697Y0106998D01*
X0074697Y0107565D01*
X0075264Y0108132D01*
X0076398Y0108132D01*
X0076965Y0107565D01*
X0076965Y0106998D01*
X0076398Y0108132D02*
X0076965Y0108699D01*
X0076965Y0109266D01*
X0076398Y0109834D01*
X0075264Y0109834D01*
X0074697Y0109266D01*
X0074697Y0108699D01*
X0075264Y0108132D01*
X0073282Y0108132D02*
X0072715Y0107565D01*
X0071013Y0107565D01*
X0071013Y0106431D02*
X0071013Y0109834D01*
X0072715Y0109834D01*
X0073282Y0109266D01*
X0073282Y0108132D01*
X0072148Y0107565D02*
X0073282Y0106431D01*
X0072715Y0100834D02*
X0071581Y0100834D01*
X0071013Y0100266D01*
X0071013Y0097998D01*
X0071581Y0097431D01*
X0072715Y0097431D01*
X0073282Y0097998D01*
X0074697Y0099132D02*
X0076965Y0099132D01*
X0076398Y0097431D02*
X0076398Y0100834D01*
X0074697Y0099132D01*
X0073282Y0100266D02*
X0072715Y0100834D01*
X0072715Y0092834D02*
X0071013Y0092834D01*
X0071013Y0089431D01*
X0071013Y0090565D02*
X0072715Y0090565D01*
X0073282Y0091132D01*
X0073282Y0092266D01*
X0072715Y0092834D01*
X0072148Y0090565D02*
X0073282Y0089431D01*
X0074697Y0089998D02*
X0074697Y0091132D01*
X0076398Y0091132D01*
X0076965Y0090565D01*
X0076965Y0089998D01*
X0076398Y0089431D01*
X0075264Y0089431D01*
X0074697Y0089998D01*
X0074697Y0091132D02*
X0075831Y0092266D01*
X0076965Y0092834D01*
X0068331Y0069834D02*
X0068331Y0066431D01*
X0067197Y0066431D02*
X0069465Y0066431D01*
X0067197Y0068699D02*
X0068331Y0069834D01*
X0065782Y0069266D02*
X0065782Y0068132D01*
X0065215Y0067565D01*
X0063513Y0067565D01*
X0063513Y0066431D02*
X0063513Y0069834D01*
X0065215Y0069834D01*
X0065782Y0069266D01*
X0064648Y0067565D02*
X0065782Y0066431D01*
X0060965Y0069266D02*
X0058697Y0066998D01*
X0058697Y0066431D01*
X0057282Y0066998D02*
X0056715Y0066431D01*
X0055581Y0066431D01*
X0055013Y0066998D01*
X0055013Y0069266D01*
X0055581Y0069834D01*
X0056715Y0069834D01*
X0057282Y0069266D01*
X0058697Y0069834D02*
X0060965Y0069834D01*
X0060965Y0069266D01*
X0075852Y0054503D02*
X0075852Y0051667D01*
X0076419Y0051100D01*
X0077553Y0051100D01*
X0078121Y0051667D01*
X0078121Y0054503D01*
X0079535Y0053369D02*
X0080669Y0054503D01*
X0080669Y0051100D01*
X0079535Y0051100D02*
X0081804Y0051100D01*
X0075965Y0046266D02*
X0075398Y0046834D01*
X0074264Y0046834D01*
X0073697Y0046266D01*
X0072282Y0046266D02*
X0071715Y0046834D01*
X0070581Y0046834D01*
X0070013Y0046266D01*
X0070013Y0043998D01*
X0070581Y0043431D01*
X0071715Y0043431D01*
X0072282Y0043998D01*
X0073697Y0043431D02*
X0075965Y0045699D01*
X0075965Y0046266D01*
X0075965Y0043431D02*
X0073697Y0043431D01*
X0072715Y0028834D02*
X0071013Y0028834D01*
X0071013Y0025431D01*
X0071013Y0026565D02*
X0072715Y0026565D01*
X0073282Y0027132D01*
X0073282Y0028266D01*
X0072715Y0028834D01*
X0074697Y0027132D02*
X0076965Y0027132D01*
X0076398Y0025431D02*
X0076398Y0028834D01*
X0074697Y0027132D01*
X0073282Y0025431D02*
X0072148Y0026565D01*
X0052965Y0034998D02*
X0052398Y0034431D01*
X0051264Y0034431D01*
X0050697Y0034998D01*
X0049282Y0034431D02*
X0048148Y0035565D01*
X0048715Y0035565D02*
X0047013Y0035565D01*
X0047013Y0034431D02*
X0047013Y0037834D01*
X0048715Y0037834D01*
X0049282Y0037266D01*
X0049282Y0036132D01*
X0048715Y0035565D01*
X0050697Y0037266D02*
X0051264Y0037834D01*
X0052398Y0037834D01*
X0052965Y0037266D01*
X0052965Y0036699D01*
X0052398Y0036132D01*
X0052965Y0035565D01*
X0052965Y0034998D01*
X0052398Y0036132D02*
X0051831Y0036132D01*
X0051197Y0048931D02*
X0053465Y0051199D01*
X0053465Y0051766D01*
X0052898Y0052334D01*
X0051764Y0052334D01*
X0051197Y0051766D01*
X0049782Y0051766D02*
X0049782Y0050632D01*
X0049215Y0050065D01*
X0047513Y0050065D01*
X0047513Y0048931D02*
X0047513Y0052334D01*
X0049215Y0052334D01*
X0049782Y0051766D01*
X0048648Y0050065D02*
X0049782Y0048931D01*
X0051197Y0048931D02*
X0053465Y0048931D01*
X0031390Y0066880D02*
X0029122Y0066880D01*
X0030256Y0066880D02*
X0030256Y0070282D01*
X0029122Y0069148D01*
X0027707Y0069715D02*
X0027140Y0070282D01*
X0026006Y0070282D01*
X0025439Y0069715D01*
X0025439Y0067447D01*
X0026006Y0066880D01*
X0027140Y0066880D01*
X0027707Y0067447D01*
X0027140Y0086880D02*
X0026006Y0086880D01*
X0025439Y0087447D01*
X0025439Y0089715D01*
X0026006Y0090282D01*
X0027140Y0090282D01*
X0027707Y0089715D01*
X0029122Y0089715D02*
X0029689Y0090282D01*
X0030823Y0090282D01*
X0031390Y0089715D01*
X0031390Y0089148D01*
X0030823Y0088581D01*
X0031390Y0088014D01*
X0031390Y0087447D01*
X0030823Y0086880D01*
X0029689Y0086880D01*
X0029122Y0087447D01*
X0027707Y0087447D02*
X0027140Y0086880D01*
X0030256Y0088581D02*
X0030823Y0088581D01*
X0045013Y0092431D02*
X0045013Y0095834D01*
X0046715Y0095834D01*
X0047282Y0095266D01*
X0047282Y0094132D01*
X0046715Y0093565D01*
X0045013Y0093565D01*
X0046148Y0093565D02*
X0047282Y0092431D01*
X0048697Y0092998D02*
X0049264Y0092431D01*
X0050398Y0092431D01*
X0050965Y0092998D01*
X0050965Y0094132D01*
X0050398Y0094699D01*
X0049831Y0094699D01*
X0048697Y0094132D01*
X0048697Y0095834D01*
X0050965Y0095834D01*
X0071013Y0115431D02*
X0071013Y0118834D01*
X0072715Y0118834D01*
X0073282Y0118266D01*
X0073282Y0117132D01*
X0072715Y0116565D01*
X0071013Y0116565D01*
X0072148Y0116565D02*
X0073282Y0115431D01*
X0074697Y0115431D02*
X0074697Y0115998D01*
X0076965Y0118266D01*
X0076965Y0118834D01*
X0074697Y0118834D01*
X0134013Y0069834D02*
X0135715Y0069834D01*
X0136282Y0069266D01*
X0136282Y0068132D01*
X0135715Y0067565D01*
X0134013Y0067565D01*
X0134013Y0066431D02*
X0134013Y0069834D01*
X0135148Y0067565D02*
X0136282Y0066431D01*
X0137697Y0066998D02*
X0138264Y0066431D01*
X0139398Y0066431D01*
X0139965Y0066998D01*
X0139965Y0069266D01*
X0139398Y0069834D01*
X0138264Y0069834D01*
X0137697Y0069266D01*
X0137697Y0068699D01*
X0138264Y0068132D01*
X0139965Y0068132D01*
X0138831Y0047834D02*
X0138831Y0044431D01*
X0137697Y0044431D02*
X0139965Y0044431D01*
X0141380Y0044998D02*
X0143648Y0047266D01*
X0143648Y0044998D01*
X0143081Y0044431D01*
X0141947Y0044431D01*
X0141380Y0044998D01*
X0141380Y0047266D01*
X0141947Y0047834D01*
X0143081Y0047834D01*
X0143648Y0047266D01*
X0138831Y0047834D02*
X0137697Y0046699D01*
X0136282Y0046132D02*
X0135715Y0045565D01*
X0134013Y0045565D01*
X0134013Y0044431D02*
X0134013Y0047834D01*
X0135715Y0047834D01*
X0136282Y0047266D01*
X0136282Y0046132D01*
X0135148Y0045565D02*
X0136282Y0044431D01*
X0152179Y0042573D02*
X0152746Y0042006D01*
X0153313Y0042006D01*
X0153880Y0042573D01*
X0153880Y0045408D01*
X0153313Y0045408D02*
X0154447Y0045408D01*
X0155862Y0044841D02*
X0156429Y0045408D01*
X0157563Y0045408D01*
X0158130Y0044841D01*
X0158130Y0044274D01*
X0155862Y0042006D01*
X0158130Y0042006D01*
X0119804Y0029936D02*
X0119804Y0029369D01*
X0117535Y0027100D01*
X0119804Y0027100D01*
X0119804Y0029936D02*
X0119237Y0030503D01*
X0118102Y0030503D01*
X0117535Y0029936D01*
X0116121Y0030503D02*
X0116121Y0027667D01*
X0115553Y0027100D01*
X0114419Y0027100D01*
X0113852Y0027667D01*
X0113852Y0030503D01*
X0107398Y0050431D02*
X0106264Y0050431D01*
X0105697Y0050998D01*
X0105697Y0052132D02*
X0106831Y0052699D01*
X0107398Y0052699D01*
X0107965Y0052132D01*
X0107965Y0050998D01*
X0107398Y0050431D01*
X0105697Y0052132D02*
X0105697Y0053834D01*
X0107965Y0053834D01*
X0104282Y0053266D02*
X0103715Y0053834D01*
X0102581Y0053834D01*
X0102013Y0053266D01*
X0102013Y0050998D01*
X0102581Y0050431D01*
X0103715Y0050431D01*
X0104282Y0050998D01*
X0013957Y0042021D02*
X0011689Y0042021D01*
X0012823Y0042021D02*
X0012823Y0045424D01*
X0011689Y0044290D01*
X0010274Y0045424D02*
X0009140Y0045424D01*
X0009707Y0045424D02*
X0009707Y0042588D01*
X0009140Y0042021D01*
X0008573Y0042021D01*
X0008006Y0042588D01*
D13*
X0012300Y0019800D02*
X0012302Y0019984D01*
X0012309Y0020168D01*
X0012320Y0020352D01*
X0012336Y0020535D01*
X0012356Y0020718D01*
X0012381Y0020900D01*
X0012410Y0021082D01*
X0012444Y0021263D01*
X0012482Y0021443D01*
X0012525Y0021622D01*
X0012572Y0021800D01*
X0012623Y0021977D01*
X0012679Y0022153D01*
X0012738Y0022327D01*
X0012803Y0022499D01*
X0012871Y0022670D01*
X0012943Y0022839D01*
X0013020Y0023007D01*
X0013101Y0023172D01*
X0013186Y0023335D01*
X0013274Y0023497D01*
X0013367Y0023656D01*
X0013464Y0023812D01*
X0013564Y0023967D01*
X0013668Y0024119D01*
X0013776Y0024268D01*
X0013887Y0024414D01*
X0014002Y0024558D01*
X0014121Y0024699D01*
X0014243Y0024837D01*
X0014368Y0024972D01*
X0014497Y0025103D01*
X0014628Y0025232D01*
X0014763Y0025357D01*
X0014901Y0025479D01*
X0015042Y0025598D01*
X0015186Y0025713D01*
X0015332Y0025824D01*
X0015481Y0025932D01*
X0015633Y0026036D01*
X0015788Y0026136D01*
X0015944Y0026233D01*
X0016103Y0026326D01*
X0016265Y0026414D01*
X0016428Y0026499D01*
X0016593Y0026580D01*
X0016761Y0026657D01*
X0016930Y0026729D01*
X0017101Y0026797D01*
X0017273Y0026862D01*
X0017447Y0026921D01*
X0017623Y0026977D01*
X0017800Y0027028D01*
X0017978Y0027075D01*
X0018157Y0027118D01*
X0018337Y0027156D01*
X0018518Y0027190D01*
X0018700Y0027219D01*
X0018882Y0027244D01*
X0019065Y0027264D01*
X0019248Y0027280D01*
X0019432Y0027291D01*
X0019616Y0027298D01*
X0019800Y0027300D01*
X0019984Y0027298D01*
X0020168Y0027291D01*
X0020352Y0027280D01*
X0020535Y0027264D01*
X0020718Y0027244D01*
X0020900Y0027219D01*
X0021082Y0027190D01*
X0021263Y0027156D01*
X0021443Y0027118D01*
X0021622Y0027075D01*
X0021800Y0027028D01*
X0021977Y0026977D01*
X0022153Y0026921D01*
X0022327Y0026862D01*
X0022499Y0026797D01*
X0022670Y0026729D01*
X0022839Y0026657D01*
X0023007Y0026580D01*
X0023172Y0026499D01*
X0023335Y0026414D01*
X0023497Y0026326D01*
X0023656Y0026233D01*
X0023812Y0026136D01*
X0023967Y0026036D01*
X0024119Y0025932D01*
X0024268Y0025824D01*
X0024414Y0025713D01*
X0024558Y0025598D01*
X0024699Y0025479D01*
X0024837Y0025357D01*
X0024972Y0025232D01*
X0025103Y0025103D01*
X0025232Y0024972D01*
X0025357Y0024837D01*
X0025479Y0024699D01*
X0025598Y0024558D01*
X0025713Y0024414D01*
X0025824Y0024268D01*
X0025932Y0024119D01*
X0026036Y0023967D01*
X0026136Y0023812D01*
X0026233Y0023656D01*
X0026326Y0023497D01*
X0026414Y0023335D01*
X0026499Y0023172D01*
X0026580Y0023007D01*
X0026657Y0022839D01*
X0026729Y0022670D01*
X0026797Y0022499D01*
X0026862Y0022327D01*
X0026921Y0022153D01*
X0026977Y0021977D01*
X0027028Y0021800D01*
X0027075Y0021622D01*
X0027118Y0021443D01*
X0027156Y0021263D01*
X0027190Y0021082D01*
X0027219Y0020900D01*
X0027244Y0020718D01*
X0027264Y0020535D01*
X0027280Y0020352D01*
X0027291Y0020168D01*
X0027298Y0019984D01*
X0027300Y0019800D01*
X0027298Y0019616D01*
X0027291Y0019432D01*
X0027280Y0019248D01*
X0027264Y0019065D01*
X0027244Y0018882D01*
X0027219Y0018700D01*
X0027190Y0018518D01*
X0027156Y0018337D01*
X0027118Y0018157D01*
X0027075Y0017978D01*
X0027028Y0017800D01*
X0026977Y0017623D01*
X0026921Y0017447D01*
X0026862Y0017273D01*
X0026797Y0017101D01*
X0026729Y0016930D01*
X0026657Y0016761D01*
X0026580Y0016593D01*
X0026499Y0016428D01*
X0026414Y0016265D01*
X0026326Y0016103D01*
X0026233Y0015944D01*
X0026136Y0015788D01*
X0026036Y0015633D01*
X0025932Y0015481D01*
X0025824Y0015332D01*
X0025713Y0015186D01*
X0025598Y0015042D01*
X0025479Y0014901D01*
X0025357Y0014763D01*
X0025232Y0014628D01*
X0025103Y0014497D01*
X0024972Y0014368D01*
X0024837Y0014243D01*
X0024699Y0014121D01*
X0024558Y0014002D01*
X0024414Y0013887D01*
X0024268Y0013776D01*
X0024119Y0013668D01*
X0023967Y0013564D01*
X0023812Y0013464D01*
X0023656Y0013367D01*
X0023497Y0013274D01*
X0023335Y0013186D01*
X0023172Y0013101D01*
X0023007Y0013020D01*
X0022839Y0012943D01*
X0022670Y0012871D01*
X0022499Y0012803D01*
X0022327Y0012738D01*
X0022153Y0012679D01*
X0021977Y0012623D01*
X0021800Y0012572D01*
X0021622Y0012525D01*
X0021443Y0012482D01*
X0021263Y0012444D01*
X0021082Y0012410D01*
X0020900Y0012381D01*
X0020718Y0012356D01*
X0020535Y0012336D01*
X0020352Y0012320D01*
X0020168Y0012309D01*
X0019984Y0012302D01*
X0019800Y0012300D01*
X0019616Y0012302D01*
X0019432Y0012309D01*
X0019248Y0012320D01*
X0019065Y0012336D01*
X0018882Y0012356D01*
X0018700Y0012381D01*
X0018518Y0012410D01*
X0018337Y0012444D01*
X0018157Y0012482D01*
X0017978Y0012525D01*
X0017800Y0012572D01*
X0017623Y0012623D01*
X0017447Y0012679D01*
X0017273Y0012738D01*
X0017101Y0012803D01*
X0016930Y0012871D01*
X0016761Y0012943D01*
X0016593Y0013020D01*
X0016428Y0013101D01*
X0016265Y0013186D01*
X0016103Y0013274D01*
X0015944Y0013367D01*
X0015788Y0013464D01*
X0015633Y0013564D01*
X0015481Y0013668D01*
X0015332Y0013776D01*
X0015186Y0013887D01*
X0015042Y0014002D01*
X0014901Y0014121D01*
X0014763Y0014243D01*
X0014628Y0014368D01*
X0014497Y0014497D01*
X0014368Y0014628D01*
X0014243Y0014763D01*
X0014121Y0014901D01*
X0014002Y0015042D01*
X0013887Y0015186D01*
X0013776Y0015332D01*
X0013668Y0015481D01*
X0013564Y0015633D01*
X0013464Y0015788D01*
X0013367Y0015944D01*
X0013274Y0016103D01*
X0013186Y0016265D01*
X0013101Y0016428D01*
X0013020Y0016593D01*
X0012943Y0016761D01*
X0012871Y0016930D01*
X0012803Y0017101D01*
X0012738Y0017273D01*
X0012679Y0017447D01*
X0012623Y0017623D01*
X0012572Y0017800D01*
X0012525Y0017978D01*
X0012482Y0018157D01*
X0012444Y0018337D01*
X0012410Y0018518D01*
X0012381Y0018700D01*
X0012356Y0018882D01*
X0012336Y0019065D01*
X0012320Y0019248D01*
X0012309Y0019432D01*
X0012302Y0019616D01*
X0012300Y0019800D01*
X0012300Y0127800D02*
X0012302Y0127984D01*
X0012309Y0128168D01*
X0012320Y0128352D01*
X0012336Y0128535D01*
X0012356Y0128718D01*
X0012381Y0128900D01*
X0012410Y0129082D01*
X0012444Y0129263D01*
X0012482Y0129443D01*
X0012525Y0129622D01*
X0012572Y0129800D01*
X0012623Y0129977D01*
X0012679Y0130153D01*
X0012738Y0130327D01*
X0012803Y0130499D01*
X0012871Y0130670D01*
X0012943Y0130839D01*
X0013020Y0131007D01*
X0013101Y0131172D01*
X0013186Y0131335D01*
X0013274Y0131497D01*
X0013367Y0131656D01*
X0013464Y0131812D01*
X0013564Y0131967D01*
X0013668Y0132119D01*
X0013776Y0132268D01*
X0013887Y0132414D01*
X0014002Y0132558D01*
X0014121Y0132699D01*
X0014243Y0132837D01*
X0014368Y0132972D01*
X0014497Y0133103D01*
X0014628Y0133232D01*
X0014763Y0133357D01*
X0014901Y0133479D01*
X0015042Y0133598D01*
X0015186Y0133713D01*
X0015332Y0133824D01*
X0015481Y0133932D01*
X0015633Y0134036D01*
X0015788Y0134136D01*
X0015944Y0134233D01*
X0016103Y0134326D01*
X0016265Y0134414D01*
X0016428Y0134499D01*
X0016593Y0134580D01*
X0016761Y0134657D01*
X0016930Y0134729D01*
X0017101Y0134797D01*
X0017273Y0134862D01*
X0017447Y0134921D01*
X0017623Y0134977D01*
X0017800Y0135028D01*
X0017978Y0135075D01*
X0018157Y0135118D01*
X0018337Y0135156D01*
X0018518Y0135190D01*
X0018700Y0135219D01*
X0018882Y0135244D01*
X0019065Y0135264D01*
X0019248Y0135280D01*
X0019432Y0135291D01*
X0019616Y0135298D01*
X0019800Y0135300D01*
X0019984Y0135298D01*
X0020168Y0135291D01*
X0020352Y0135280D01*
X0020535Y0135264D01*
X0020718Y0135244D01*
X0020900Y0135219D01*
X0021082Y0135190D01*
X0021263Y0135156D01*
X0021443Y0135118D01*
X0021622Y0135075D01*
X0021800Y0135028D01*
X0021977Y0134977D01*
X0022153Y0134921D01*
X0022327Y0134862D01*
X0022499Y0134797D01*
X0022670Y0134729D01*
X0022839Y0134657D01*
X0023007Y0134580D01*
X0023172Y0134499D01*
X0023335Y0134414D01*
X0023497Y0134326D01*
X0023656Y0134233D01*
X0023812Y0134136D01*
X0023967Y0134036D01*
X0024119Y0133932D01*
X0024268Y0133824D01*
X0024414Y0133713D01*
X0024558Y0133598D01*
X0024699Y0133479D01*
X0024837Y0133357D01*
X0024972Y0133232D01*
X0025103Y0133103D01*
X0025232Y0132972D01*
X0025357Y0132837D01*
X0025479Y0132699D01*
X0025598Y0132558D01*
X0025713Y0132414D01*
X0025824Y0132268D01*
X0025932Y0132119D01*
X0026036Y0131967D01*
X0026136Y0131812D01*
X0026233Y0131656D01*
X0026326Y0131497D01*
X0026414Y0131335D01*
X0026499Y0131172D01*
X0026580Y0131007D01*
X0026657Y0130839D01*
X0026729Y0130670D01*
X0026797Y0130499D01*
X0026862Y0130327D01*
X0026921Y0130153D01*
X0026977Y0129977D01*
X0027028Y0129800D01*
X0027075Y0129622D01*
X0027118Y0129443D01*
X0027156Y0129263D01*
X0027190Y0129082D01*
X0027219Y0128900D01*
X0027244Y0128718D01*
X0027264Y0128535D01*
X0027280Y0128352D01*
X0027291Y0128168D01*
X0027298Y0127984D01*
X0027300Y0127800D01*
X0027298Y0127616D01*
X0027291Y0127432D01*
X0027280Y0127248D01*
X0027264Y0127065D01*
X0027244Y0126882D01*
X0027219Y0126700D01*
X0027190Y0126518D01*
X0027156Y0126337D01*
X0027118Y0126157D01*
X0027075Y0125978D01*
X0027028Y0125800D01*
X0026977Y0125623D01*
X0026921Y0125447D01*
X0026862Y0125273D01*
X0026797Y0125101D01*
X0026729Y0124930D01*
X0026657Y0124761D01*
X0026580Y0124593D01*
X0026499Y0124428D01*
X0026414Y0124265D01*
X0026326Y0124103D01*
X0026233Y0123944D01*
X0026136Y0123788D01*
X0026036Y0123633D01*
X0025932Y0123481D01*
X0025824Y0123332D01*
X0025713Y0123186D01*
X0025598Y0123042D01*
X0025479Y0122901D01*
X0025357Y0122763D01*
X0025232Y0122628D01*
X0025103Y0122497D01*
X0024972Y0122368D01*
X0024837Y0122243D01*
X0024699Y0122121D01*
X0024558Y0122002D01*
X0024414Y0121887D01*
X0024268Y0121776D01*
X0024119Y0121668D01*
X0023967Y0121564D01*
X0023812Y0121464D01*
X0023656Y0121367D01*
X0023497Y0121274D01*
X0023335Y0121186D01*
X0023172Y0121101D01*
X0023007Y0121020D01*
X0022839Y0120943D01*
X0022670Y0120871D01*
X0022499Y0120803D01*
X0022327Y0120738D01*
X0022153Y0120679D01*
X0021977Y0120623D01*
X0021800Y0120572D01*
X0021622Y0120525D01*
X0021443Y0120482D01*
X0021263Y0120444D01*
X0021082Y0120410D01*
X0020900Y0120381D01*
X0020718Y0120356D01*
X0020535Y0120336D01*
X0020352Y0120320D01*
X0020168Y0120309D01*
X0019984Y0120302D01*
X0019800Y0120300D01*
X0019616Y0120302D01*
X0019432Y0120309D01*
X0019248Y0120320D01*
X0019065Y0120336D01*
X0018882Y0120356D01*
X0018700Y0120381D01*
X0018518Y0120410D01*
X0018337Y0120444D01*
X0018157Y0120482D01*
X0017978Y0120525D01*
X0017800Y0120572D01*
X0017623Y0120623D01*
X0017447Y0120679D01*
X0017273Y0120738D01*
X0017101Y0120803D01*
X0016930Y0120871D01*
X0016761Y0120943D01*
X0016593Y0121020D01*
X0016428Y0121101D01*
X0016265Y0121186D01*
X0016103Y0121274D01*
X0015944Y0121367D01*
X0015788Y0121464D01*
X0015633Y0121564D01*
X0015481Y0121668D01*
X0015332Y0121776D01*
X0015186Y0121887D01*
X0015042Y0122002D01*
X0014901Y0122121D01*
X0014763Y0122243D01*
X0014628Y0122368D01*
X0014497Y0122497D01*
X0014368Y0122628D01*
X0014243Y0122763D01*
X0014121Y0122901D01*
X0014002Y0123042D01*
X0013887Y0123186D01*
X0013776Y0123332D01*
X0013668Y0123481D01*
X0013564Y0123633D01*
X0013464Y0123788D01*
X0013367Y0123944D01*
X0013274Y0124103D01*
X0013186Y0124265D01*
X0013101Y0124428D01*
X0013020Y0124593D01*
X0012943Y0124761D01*
X0012871Y0124930D01*
X0012803Y0125101D01*
X0012738Y0125273D01*
X0012679Y0125447D01*
X0012623Y0125623D01*
X0012572Y0125800D01*
X0012525Y0125978D01*
X0012482Y0126157D01*
X0012444Y0126337D01*
X0012410Y0126518D01*
X0012381Y0126700D01*
X0012356Y0126882D01*
X0012336Y0127065D01*
X0012320Y0127248D01*
X0012309Y0127432D01*
X0012302Y0127616D01*
X0012300Y0127800D01*
X0149300Y0127800D02*
X0149302Y0127984D01*
X0149309Y0128168D01*
X0149320Y0128352D01*
X0149336Y0128535D01*
X0149356Y0128718D01*
X0149381Y0128900D01*
X0149410Y0129082D01*
X0149444Y0129263D01*
X0149482Y0129443D01*
X0149525Y0129622D01*
X0149572Y0129800D01*
X0149623Y0129977D01*
X0149679Y0130153D01*
X0149738Y0130327D01*
X0149803Y0130499D01*
X0149871Y0130670D01*
X0149943Y0130839D01*
X0150020Y0131007D01*
X0150101Y0131172D01*
X0150186Y0131335D01*
X0150274Y0131497D01*
X0150367Y0131656D01*
X0150464Y0131812D01*
X0150564Y0131967D01*
X0150668Y0132119D01*
X0150776Y0132268D01*
X0150887Y0132414D01*
X0151002Y0132558D01*
X0151121Y0132699D01*
X0151243Y0132837D01*
X0151368Y0132972D01*
X0151497Y0133103D01*
X0151628Y0133232D01*
X0151763Y0133357D01*
X0151901Y0133479D01*
X0152042Y0133598D01*
X0152186Y0133713D01*
X0152332Y0133824D01*
X0152481Y0133932D01*
X0152633Y0134036D01*
X0152788Y0134136D01*
X0152944Y0134233D01*
X0153103Y0134326D01*
X0153265Y0134414D01*
X0153428Y0134499D01*
X0153593Y0134580D01*
X0153761Y0134657D01*
X0153930Y0134729D01*
X0154101Y0134797D01*
X0154273Y0134862D01*
X0154447Y0134921D01*
X0154623Y0134977D01*
X0154800Y0135028D01*
X0154978Y0135075D01*
X0155157Y0135118D01*
X0155337Y0135156D01*
X0155518Y0135190D01*
X0155700Y0135219D01*
X0155882Y0135244D01*
X0156065Y0135264D01*
X0156248Y0135280D01*
X0156432Y0135291D01*
X0156616Y0135298D01*
X0156800Y0135300D01*
X0156984Y0135298D01*
X0157168Y0135291D01*
X0157352Y0135280D01*
X0157535Y0135264D01*
X0157718Y0135244D01*
X0157900Y0135219D01*
X0158082Y0135190D01*
X0158263Y0135156D01*
X0158443Y0135118D01*
X0158622Y0135075D01*
X0158800Y0135028D01*
X0158977Y0134977D01*
X0159153Y0134921D01*
X0159327Y0134862D01*
X0159499Y0134797D01*
X0159670Y0134729D01*
X0159839Y0134657D01*
X0160007Y0134580D01*
X0160172Y0134499D01*
X0160335Y0134414D01*
X0160497Y0134326D01*
X0160656Y0134233D01*
X0160812Y0134136D01*
X0160967Y0134036D01*
X0161119Y0133932D01*
X0161268Y0133824D01*
X0161414Y0133713D01*
X0161558Y0133598D01*
X0161699Y0133479D01*
X0161837Y0133357D01*
X0161972Y0133232D01*
X0162103Y0133103D01*
X0162232Y0132972D01*
X0162357Y0132837D01*
X0162479Y0132699D01*
X0162598Y0132558D01*
X0162713Y0132414D01*
X0162824Y0132268D01*
X0162932Y0132119D01*
X0163036Y0131967D01*
X0163136Y0131812D01*
X0163233Y0131656D01*
X0163326Y0131497D01*
X0163414Y0131335D01*
X0163499Y0131172D01*
X0163580Y0131007D01*
X0163657Y0130839D01*
X0163729Y0130670D01*
X0163797Y0130499D01*
X0163862Y0130327D01*
X0163921Y0130153D01*
X0163977Y0129977D01*
X0164028Y0129800D01*
X0164075Y0129622D01*
X0164118Y0129443D01*
X0164156Y0129263D01*
X0164190Y0129082D01*
X0164219Y0128900D01*
X0164244Y0128718D01*
X0164264Y0128535D01*
X0164280Y0128352D01*
X0164291Y0128168D01*
X0164298Y0127984D01*
X0164300Y0127800D01*
X0164298Y0127616D01*
X0164291Y0127432D01*
X0164280Y0127248D01*
X0164264Y0127065D01*
X0164244Y0126882D01*
X0164219Y0126700D01*
X0164190Y0126518D01*
X0164156Y0126337D01*
X0164118Y0126157D01*
X0164075Y0125978D01*
X0164028Y0125800D01*
X0163977Y0125623D01*
X0163921Y0125447D01*
X0163862Y0125273D01*
X0163797Y0125101D01*
X0163729Y0124930D01*
X0163657Y0124761D01*
X0163580Y0124593D01*
X0163499Y0124428D01*
X0163414Y0124265D01*
X0163326Y0124103D01*
X0163233Y0123944D01*
X0163136Y0123788D01*
X0163036Y0123633D01*
X0162932Y0123481D01*
X0162824Y0123332D01*
X0162713Y0123186D01*
X0162598Y0123042D01*
X0162479Y0122901D01*
X0162357Y0122763D01*
X0162232Y0122628D01*
X0162103Y0122497D01*
X0161972Y0122368D01*
X0161837Y0122243D01*
X0161699Y0122121D01*
X0161558Y0122002D01*
X0161414Y0121887D01*
X0161268Y0121776D01*
X0161119Y0121668D01*
X0160967Y0121564D01*
X0160812Y0121464D01*
X0160656Y0121367D01*
X0160497Y0121274D01*
X0160335Y0121186D01*
X0160172Y0121101D01*
X0160007Y0121020D01*
X0159839Y0120943D01*
X0159670Y0120871D01*
X0159499Y0120803D01*
X0159327Y0120738D01*
X0159153Y0120679D01*
X0158977Y0120623D01*
X0158800Y0120572D01*
X0158622Y0120525D01*
X0158443Y0120482D01*
X0158263Y0120444D01*
X0158082Y0120410D01*
X0157900Y0120381D01*
X0157718Y0120356D01*
X0157535Y0120336D01*
X0157352Y0120320D01*
X0157168Y0120309D01*
X0156984Y0120302D01*
X0156800Y0120300D01*
X0156616Y0120302D01*
X0156432Y0120309D01*
X0156248Y0120320D01*
X0156065Y0120336D01*
X0155882Y0120356D01*
X0155700Y0120381D01*
X0155518Y0120410D01*
X0155337Y0120444D01*
X0155157Y0120482D01*
X0154978Y0120525D01*
X0154800Y0120572D01*
X0154623Y0120623D01*
X0154447Y0120679D01*
X0154273Y0120738D01*
X0154101Y0120803D01*
X0153930Y0120871D01*
X0153761Y0120943D01*
X0153593Y0121020D01*
X0153428Y0121101D01*
X0153265Y0121186D01*
X0153103Y0121274D01*
X0152944Y0121367D01*
X0152788Y0121464D01*
X0152633Y0121564D01*
X0152481Y0121668D01*
X0152332Y0121776D01*
X0152186Y0121887D01*
X0152042Y0122002D01*
X0151901Y0122121D01*
X0151763Y0122243D01*
X0151628Y0122368D01*
X0151497Y0122497D01*
X0151368Y0122628D01*
X0151243Y0122763D01*
X0151121Y0122901D01*
X0151002Y0123042D01*
X0150887Y0123186D01*
X0150776Y0123332D01*
X0150668Y0123481D01*
X0150564Y0123633D01*
X0150464Y0123788D01*
X0150367Y0123944D01*
X0150274Y0124103D01*
X0150186Y0124265D01*
X0150101Y0124428D01*
X0150020Y0124593D01*
X0149943Y0124761D01*
X0149871Y0124930D01*
X0149803Y0125101D01*
X0149738Y0125273D01*
X0149679Y0125447D01*
X0149623Y0125623D01*
X0149572Y0125800D01*
X0149525Y0125978D01*
X0149482Y0126157D01*
X0149444Y0126337D01*
X0149410Y0126518D01*
X0149381Y0126700D01*
X0149356Y0126882D01*
X0149336Y0127065D01*
X0149320Y0127248D01*
X0149309Y0127432D01*
X0149302Y0127616D01*
X0149300Y0127800D01*
X0149300Y0019800D02*
X0149302Y0019984D01*
X0149309Y0020168D01*
X0149320Y0020352D01*
X0149336Y0020535D01*
X0149356Y0020718D01*
X0149381Y0020900D01*
X0149410Y0021082D01*
X0149444Y0021263D01*
X0149482Y0021443D01*
X0149525Y0021622D01*
X0149572Y0021800D01*
X0149623Y0021977D01*
X0149679Y0022153D01*
X0149738Y0022327D01*
X0149803Y0022499D01*
X0149871Y0022670D01*
X0149943Y0022839D01*
X0150020Y0023007D01*
X0150101Y0023172D01*
X0150186Y0023335D01*
X0150274Y0023497D01*
X0150367Y0023656D01*
X0150464Y0023812D01*
X0150564Y0023967D01*
X0150668Y0024119D01*
X0150776Y0024268D01*
X0150887Y0024414D01*
X0151002Y0024558D01*
X0151121Y0024699D01*
X0151243Y0024837D01*
X0151368Y0024972D01*
X0151497Y0025103D01*
X0151628Y0025232D01*
X0151763Y0025357D01*
X0151901Y0025479D01*
X0152042Y0025598D01*
X0152186Y0025713D01*
X0152332Y0025824D01*
X0152481Y0025932D01*
X0152633Y0026036D01*
X0152788Y0026136D01*
X0152944Y0026233D01*
X0153103Y0026326D01*
X0153265Y0026414D01*
X0153428Y0026499D01*
X0153593Y0026580D01*
X0153761Y0026657D01*
X0153930Y0026729D01*
X0154101Y0026797D01*
X0154273Y0026862D01*
X0154447Y0026921D01*
X0154623Y0026977D01*
X0154800Y0027028D01*
X0154978Y0027075D01*
X0155157Y0027118D01*
X0155337Y0027156D01*
X0155518Y0027190D01*
X0155700Y0027219D01*
X0155882Y0027244D01*
X0156065Y0027264D01*
X0156248Y0027280D01*
X0156432Y0027291D01*
X0156616Y0027298D01*
X0156800Y0027300D01*
X0156984Y0027298D01*
X0157168Y0027291D01*
X0157352Y0027280D01*
X0157535Y0027264D01*
X0157718Y0027244D01*
X0157900Y0027219D01*
X0158082Y0027190D01*
X0158263Y0027156D01*
X0158443Y0027118D01*
X0158622Y0027075D01*
X0158800Y0027028D01*
X0158977Y0026977D01*
X0159153Y0026921D01*
X0159327Y0026862D01*
X0159499Y0026797D01*
X0159670Y0026729D01*
X0159839Y0026657D01*
X0160007Y0026580D01*
X0160172Y0026499D01*
X0160335Y0026414D01*
X0160497Y0026326D01*
X0160656Y0026233D01*
X0160812Y0026136D01*
X0160967Y0026036D01*
X0161119Y0025932D01*
X0161268Y0025824D01*
X0161414Y0025713D01*
X0161558Y0025598D01*
X0161699Y0025479D01*
X0161837Y0025357D01*
X0161972Y0025232D01*
X0162103Y0025103D01*
X0162232Y0024972D01*
X0162357Y0024837D01*
X0162479Y0024699D01*
X0162598Y0024558D01*
X0162713Y0024414D01*
X0162824Y0024268D01*
X0162932Y0024119D01*
X0163036Y0023967D01*
X0163136Y0023812D01*
X0163233Y0023656D01*
X0163326Y0023497D01*
X0163414Y0023335D01*
X0163499Y0023172D01*
X0163580Y0023007D01*
X0163657Y0022839D01*
X0163729Y0022670D01*
X0163797Y0022499D01*
X0163862Y0022327D01*
X0163921Y0022153D01*
X0163977Y0021977D01*
X0164028Y0021800D01*
X0164075Y0021622D01*
X0164118Y0021443D01*
X0164156Y0021263D01*
X0164190Y0021082D01*
X0164219Y0020900D01*
X0164244Y0020718D01*
X0164264Y0020535D01*
X0164280Y0020352D01*
X0164291Y0020168D01*
X0164298Y0019984D01*
X0164300Y0019800D01*
X0164298Y0019616D01*
X0164291Y0019432D01*
X0164280Y0019248D01*
X0164264Y0019065D01*
X0164244Y0018882D01*
X0164219Y0018700D01*
X0164190Y0018518D01*
X0164156Y0018337D01*
X0164118Y0018157D01*
X0164075Y0017978D01*
X0164028Y0017800D01*
X0163977Y0017623D01*
X0163921Y0017447D01*
X0163862Y0017273D01*
X0163797Y0017101D01*
X0163729Y0016930D01*
X0163657Y0016761D01*
X0163580Y0016593D01*
X0163499Y0016428D01*
X0163414Y0016265D01*
X0163326Y0016103D01*
X0163233Y0015944D01*
X0163136Y0015788D01*
X0163036Y0015633D01*
X0162932Y0015481D01*
X0162824Y0015332D01*
X0162713Y0015186D01*
X0162598Y0015042D01*
X0162479Y0014901D01*
X0162357Y0014763D01*
X0162232Y0014628D01*
X0162103Y0014497D01*
X0161972Y0014368D01*
X0161837Y0014243D01*
X0161699Y0014121D01*
X0161558Y0014002D01*
X0161414Y0013887D01*
X0161268Y0013776D01*
X0161119Y0013668D01*
X0160967Y0013564D01*
X0160812Y0013464D01*
X0160656Y0013367D01*
X0160497Y0013274D01*
X0160335Y0013186D01*
X0160172Y0013101D01*
X0160007Y0013020D01*
X0159839Y0012943D01*
X0159670Y0012871D01*
X0159499Y0012803D01*
X0159327Y0012738D01*
X0159153Y0012679D01*
X0158977Y0012623D01*
X0158800Y0012572D01*
X0158622Y0012525D01*
X0158443Y0012482D01*
X0158263Y0012444D01*
X0158082Y0012410D01*
X0157900Y0012381D01*
X0157718Y0012356D01*
X0157535Y0012336D01*
X0157352Y0012320D01*
X0157168Y0012309D01*
X0156984Y0012302D01*
X0156800Y0012300D01*
X0156616Y0012302D01*
X0156432Y0012309D01*
X0156248Y0012320D01*
X0156065Y0012336D01*
X0155882Y0012356D01*
X0155700Y0012381D01*
X0155518Y0012410D01*
X0155337Y0012444D01*
X0155157Y0012482D01*
X0154978Y0012525D01*
X0154800Y0012572D01*
X0154623Y0012623D01*
X0154447Y0012679D01*
X0154273Y0012738D01*
X0154101Y0012803D01*
X0153930Y0012871D01*
X0153761Y0012943D01*
X0153593Y0013020D01*
X0153428Y0013101D01*
X0153265Y0013186D01*
X0153103Y0013274D01*
X0152944Y0013367D01*
X0152788Y0013464D01*
X0152633Y0013564D01*
X0152481Y0013668D01*
X0152332Y0013776D01*
X0152186Y0013887D01*
X0152042Y0014002D01*
X0151901Y0014121D01*
X0151763Y0014243D01*
X0151628Y0014368D01*
X0151497Y0014497D01*
X0151368Y0014628D01*
X0151243Y0014763D01*
X0151121Y0014901D01*
X0151002Y0015042D01*
X0150887Y0015186D01*
X0150776Y0015332D01*
X0150668Y0015481D01*
X0150564Y0015633D01*
X0150464Y0015788D01*
X0150367Y0015944D01*
X0150274Y0016103D01*
X0150186Y0016265D01*
X0150101Y0016428D01*
X0150020Y0016593D01*
X0149943Y0016761D01*
X0149871Y0016930D01*
X0149803Y0017101D01*
X0149738Y0017273D01*
X0149679Y0017447D01*
X0149623Y0017623D01*
X0149572Y0017800D01*
X0149525Y0017978D01*
X0149482Y0018157D01*
X0149444Y0018337D01*
X0149410Y0018518D01*
X0149381Y0018700D01*
X0149356Y0018882D01*
X0149336Y0019065D01*
X0149320Y0019248D01*
X0149309Y0019432D01*
X0149302Y0019616D01*
X0149300Y0019800D01*
D14*
X0156235Y0090800D03*
X0162985Y0097550D03*
D15*
X0160610Y0096112D03*
X0159990Y0096737D03*
X0159860Y0096862D03*
X0159240Y0097487D03*
X0159110Y0097612D03*
X0158860Y0097862D03*
X0158740Y0097987D03*
X0158610Y0098112D03*
X0158490Y0098237D03*
X0158360Y0098362D03*
X0154110Y0098862D03*
X0156240Y0090862D03*
D16*
X0156235Y0090925D03*
D17*
X0156240Y0090987D03*
X0154110Y0098612D03*
X0149740Y0098112D03*
X0149740Y0097987D03*
X0156240Y0105487D03*
D18*
X0156235Y0105425D03*
X0162615Y0098425D03*
X0156235Y0091050D03*
D19*
X0156235Y0091112D03*
X0156235Y0105362D03*
D20*
X0150110Y0098925D03*
X0150490Y0096925D03*
X0150610Y0096800D03*
X0150740Y0096675D03*
X0150860Y0096550D03*
X0150990Y0096425D03*
X0151110Y0096300D03*
X0151240Y0096175D03*
X0151360Y0096050D03*
X0151490Y0095925D03*
X0151610Y0095800D03*
X0151740Y0095675D03*
X0151860Y0095550D03*
X0151990Y0095425D03*
X0152110Y0095300D03*
X0152240Y0095175D03*
X0152490Y0094925D03*
X0152610Y0094800D03*
X0152740Y0094675D03*
X0152860Y0094550D03*
X0152990Y0094425D03*
X0153240Y0094175D03*
X0153360Y0094050D03*
X0153490Y0093925D03*
X0153610Y0093800D03*
X0153740Y0093675D03*
X0153990Y0093425D03*
X0154110Y0093300D03*
X0154240Y0093175D03*
X0154360Y0093050D03*
X0156240Y0091175D03*
X0157990Y0092925D03*
X0158110Y0093050D03*
X0158240Y0093175D03*
X0158360Y0093300D03*
X0158490Y0093425D03*
X0158610Y0093550D03*
X0158740Y0093675D03*
D21*
X0158865Y0093862D03*
X0156235Y0091237D03*
X0150365Y0099237D03*
D22*
X0150615Y0099550D03*
X0150735Y0099675D03*
X0150865Y0099800D03*
X0150985Y0099925D03*
X0151115Y0100050D03*
X0151235Y0100175D03*
X0151365Y0100300D03*
X0151485Y0100425D03*
X0151615Y0100550D03*
X0151735Y0100675D03*
X0151865Y0100800D03*
X0151985Y0100925D03*
X0152115Y0101050D03*
X0152235Y0101175D03*
X0152365Y0101300D03*
X0152485Y0101425D03*
X0152615Y0101550D03*
X0152735Y0101675D03*
X0152865Y0101800D03*
X0152985Y0101925D03*
X0153115Y0102050D03*
X0153235Y0102175D03*
X0153365Y0102300D03*
X0153485Y0102425D03*
X0153615Y0102550D03*
X0153735Y0102675D03*
X0153865Y0102800D03*
X0153985Y0102925D03*
X0154115Y0103050D03*
X0154235Y0103175D03*
X0154365Y0103300D03*
X0154485Y0103425D03*
X0154735Y0103675D03*
X0156235Y0105175D03*
X0158865Y0093925D03*
X0156235Y0091300D03*
D23*
X0156240Y0091362D03*
X0158860Y0093987D03*
X0156240Y0105112D03*
D24*
X0156240Y0105050D03*
X0158860Y0094050D03*
X0156240Y0091425D03*
D25*
X0156235Y0091487D03*
X0158865Y0094112D03*
X0156235Y0104987D03*
D26*
X0156235Y0104925D03*
X0158865Y0094175D03*
X0156235Y0091550D03*
D27*
X0156240Y0091612D03*
X0158860Y0094237D03*
X0156240Y0104862D03*
D28*
X0156240Y0104800D03*
X0158860Y0094300D03*
X0156240Y0091675D03*
D29*
X0156235Y0091737D03*
X0158865Y0094362D03*
X0156235Y0104737D03*
D30*
X0156235Y0104675D03*
X0158865Y0094425D03*
X0156235Y0091800D03*
D31*
X0156240Y0091862D03*
X0156240Y0104612D03*
D32*
X0156240Y0104550D03*
X0156240Y0091925D03*
D33*
X0156235Y0091987D03*
X0156235Y0104487D03*
D34*
X0156235Y0092050D03*
D35*
X0156240Y0092112D03*
D36*
X0156240Y0092175D03*
D37*
X0156235Y0092237D03*
D38*
X0156235Y0092300D03*
D39*
X0156240Y0092362D03*
D40*
X0156240Y0092425D03*
D41*
X0156235Y0092487D03*
D42*
X0156235Y0092550D03*
D43*
X0156240Y0092612D03*
D44*
X0156240Y0092675D03*
D45*
X0156235Y0092737D03*
D46*
X0156235Y0092800D03*
D47*
X0154580Y0092862D03*
X0153830Y0093612D03*
X0153080Y0094362D03*
X0150270Y0099112D03*
X0162270Y0098987D03*
D48*
X0156205Y0105237D03*
X0150145Y0098987D03*
X0152455Y0094987D03*
X0153205Y0094237D03*
X0154455Y0092987D03*
X0157895Y0092862D03*
D49*
X0158830Y0093800D03*
X0154520Y0092925D03*
D50*
X0154300Y0093112D03*
X0154050Y0093362D03*
X0153550Y0093862D03*
X0153300Y0094112D03*
X0152800Y0094612D03*
X0152550Y0094862D03*
X0152300Y0095112D03*
X0152050Y0095362D03*
X0151800Y0095612D03*
X0151550Y0095862D03*
X0151300Y0096112D03*
X0151050Y0096362D03*
X0150800Y0096612D03*
X0150550Y0096862D03*
X0158050Y0092987D03*
X0158300Y0093237D03*
X0158550Y0093487D03*
X0158800Y0093737D03*
D51*
X0158675Y0093612D03*
X0158425Y0093362D03*
X0158175Y0093112D03*
X0154175Y0093237D03*
X0153925Y0093487D03*
X0153675Y0093737D03*
X0153425Y0093987D03*
X0152925Y0094487D03*
X0152675Y0094737D03*
X0152175Y0095237D03*
X0151925Y0095487D03*
X0151675Y0095737D03*
X0151425Y0095987D03*
X0151175Y0096237D03*
X0150925Y0096487D03*
X0150675Y0096737D03*
X0150425Y0096987D03*
D52*
X0152395Y0095050D03*
X0153145Y0094300D03*
X0153895Y0093550D03*
X0157645Y0098550D03*
X0162205Y0099050D03*
X0150205Y0099050D03*
D53*
X0155110Y0096987D03*
X0155240Y0096862D03*
X0155360Y0096737D03*
X0155490Y0096612D03*
X0155610Y0096487D03*
X0155740Y0096362D03*
X0155860Y0096237D03*
X0155990Y0096112D03*
X0156110Y0095987D03*
X0156240Y0095862D03*
X0156360Y0095737D03*
X0156490Y0095612D03*
X0156610Y0095487D03*
X0156740Y0095362D03*
X0156860Y0095237D03*
X0156990Y0095112D03*
X0157110Y0094987D03*
X0157240Y0094862D03*
X0157360Y0094737D03*
X0157490Y0094612D03*
X0157610Y0094487D03*
X0156240Y0105612D03*
D54*
X0149925Y0098612D03*
X0159675Y0094487D03*
X0159925Y0094737D03*
X0160175Y0094987D03*
X0160425Y0095237D03*
X0160675Y0095487D03*
D55*
X0157550Y0094550D03*
X0157300Y0094800D03*
X0157050Y0095050D03*
X0156800Y0095300D03*
X0156550Y0095550D03*
X0156300Y0095800D03*
X0156050Y0096050D03*
X0155800Y0096300D03*
X0155550Y0096550D03*
X0155300Y0096800D03*
D56*
X0159735Y0094550D03*
X0159865Y0094675D03*
X0159985Y0094800D03*
X0160115Y0094925D03*
X0160235Y0095050D03*
X0160365Y0095175D03*
X0160485Y0095300D03*
X0160615Y0095425D03*
X0160735Y0095550D03*
X0149985Y0097550D03*
D57*
X0159800Y0094612D03*
X0160050Y0094862D03*
X0160300Y0095112D03*
X0160550Y0095362D03*
D58*
X0157425Y0094675D03*
X0157175Y0094925D03*
X0156925Y0095175D03*
X0156675Y0095425D03*
X0156425Y0095675D03*
X0156175Y0095925D03*
X0155925Y0096175D03*
X0155675Y0096425D03*
X0155425Y0096675D03*
X0155175Y0096925D03*
D59*
X0149955Y0097612D03*
X0160765Y0095612D03*
X0162585Y0098487D03*
D60*
X0160770Y0095675D03*
X0154580Y0097175D03*
X0154330Y0097425D03*
X0149830Y0097800D03*
X0149830Y0098425D03*
D61*
X0149770Y0098237D03*
X0160770Y0095737D03*
X0162710Y0098237D03*
D62*
X0160770Y0095800D03*
D63*
X0160765Y0095862D03*
X0162835Y0097987D03*
D64*
X0160770Y0095925D03*
X0160270Y0096425D03*
X0160020Y0096675D03*
X0159770Y0096925D03*
X0159520Y0097175D03*
X0159020Y0097675D03*
D65*
X0158955Y0097737D03*
X0159455Y0097237D03*
X0159705Y0096987D03*
X0160205Y0096487D03*
X0160455Y0096237D03*
X0160705Y0095987D03*
X0162895Y0097862D03*
D66*
X0162925Y0097800D03*
X0160675Y0096050D03*
X0159925Y0096800D03*
X0159175Y0097550D03*
X0158675Y0098050D03*
X0158425Y0098300D03*
D67*
X0158300Y0098425D03*
X0158550Y0098175D03*
X0158800Y0097925D03*
X0159300Y0097425D03*
X0160550Y0096175D03*
D68*
X0160395Y0096300D03*
X0160145Y0096550D03*
X0159645Y0097050D03*
X0159395Y0097300D03*
X0158895Y0097800D03*
D69*
X0159330Y0097362D03*
X0159580Y0097112D03*
X0160080Y0096612D03*
X0160330Y0096362D03*
D70*
X0163145Y0096862D03*
D71*
X0163145Y0096925D03*
D72*
X0163115Y0096987D03*
D73*
X0162390Y0098800D03*
X0156210Y0105300D03*
X0150020Y0098800D03*
X0150270Y0097175D03*
X0150390Y0097050D03*
D74*
X0149770Y0097925D03*
X0149770Y0098300D03*
X0154770Y0097050D03*
X0156960Y0100800D03*
D75*
X0163110Y0097050D03*
D76*
X0157770Y0098487D03*
X0150330Y0097112D03*
X0150080Y0098862D03*
D77*
X0154675Y0097112D03*
D78*
X0163110Y0097112D03*
D79*
X0163080Y0097175D03*
X0154080Y0099175D03*
X0153330Y0098300D03*
X0153330Y0097925D03*
D80*
X0150240Y0097237D03*
X0150110Y0097362D03*
X0149990Y0098737D03*
D81*
X0149865Y0098487D03*
X0149865Y0097737D03*
X0154365Y0097362D03*
X0154485Y0097237D03*
D82*
X0154765Y0097737D03*
X0154835Y0098362D03*
X0156085Y0099237D03*
X0156015Y0100237D03*
X0157955Y0100112D03*
X0158015Y0099612D03*
X0163085Y0097237D03*
D83*
X0150175Y0097300D03*
D84*
X0154425Y0097300D03*
D85*
X0154770Y0097675D03*
X0153520Y0098550D03*
X0157770Y0100425D03*
X0163080Y0097300D03*
D86*
X0163050Y0097362D03*
D87*
X0150080Y0097425D03*
D88*
X0156300Y0099050D03*
X0163050Y0097425D03*
D89*
X0162520Y0098612D03*
X0150020Y0097487D03*
D90*
X0154270Y0097487D03*
D91*
X0157830Y0099112D03*
X0163020Y0097487D03*
D92*
X0154205Y0097550D03*
D93*
X0153485Y0097612D03*
X0154735Y0098487D03*
D94*
X0154710Y0097612D03*
X0156210Y0100487D03*
X0156960Y0101112D03*
D95*
X0154115Y0098987D03*
X0162985Y0097612D03*
D96*
X0156955Y0100675D03*
X0149895Y0098550D03*
X0149895Y0097675D03*
D97*
X0153425Y0097675D03*
X0155925Y0099550D03*
X0155925Y0100050D03*
D98*
X0162955Y0097675D03*
D99*
X0155925Y0099487D03*
X0155925Y0099987D03*
X0155925Y0100112D03*
X0153425Y0098487D03*
X0153425Y0097737D03*
D100*
X0162925Y0097737D03*
D101*
X0157985Y0099550D03*
X0157985Y0100050D03*
X0155985Y0099425D03*
X0154865Y0098300D03*
X0154865Y0098175D03*
X0154865Y0098050D03*
X0154865Y0097925D03*
X0153365Y0097800D03*
X0153365Y0098425D03*
D102*
X0154800Y0097800D03*
X0158050Y0099675D03*
X0158050Y0099800D03*
D103*
X0149800Y0098362D03*
X0149800Y0097862D03*
D104*
X0153330Y0097862D03*
X0153330Y0098237D03*
D105*
X0153365Y0098362D03*
X0154865Y0098237D03*
X0154865Y0098112D03*
X0154865Y0097987D03*
X0154865Y0097862D03*
X0155985Y0099362D03*
X0157985Y0099487D03*
X0157985Y0099987D03*
D106*
X0154115Y0098800D03*
X0156235Y0105550D03*
X0162865Y0097925D03*
D107*
X0153300Y0097987D03*
X0153300Y0098112D03*
D108*
X0154110Y0098675D03*
X0149740Y0098175D03*
X0149740Y0098050D03*
X0162740Y0098175D03*
D109*
X0153300Y0098175D03*
X0153300Y0098050D03*
D110*
X0162800Y0098050D03*
D111*
X0162770Y0098112D03*
D112*
X0162675Y0098300D03*
D113*
X0162645Y0098362D03*
X0156955Y0100737D03*
D114*
X0155955Y0100175D03*
X0156015Y0099300D03*
X0154765Y0098425D03*
X0157955Y0099425D03*
X0158015Y0099925D03*
X0157955Y0100175D03*
D115*
X0154675Y0098550D03*
D116*
X0162550Y0098550D03*
D117*
X0157550Y0098612D03*
X0157300Y0098862D03*
D118*
X0156955Y0100550D03*
X0149955Y0098675D03*
D119*
X0157235Y0098925D03*
X0157365Y0098800D03*
X0157485Y0098675D03*
X0162115Y0099175D03*
D120*
X0162490Y0098675D03*
D121*
X0154115Y0098737D03*
D122*
X0157175Y0098987D03*
X0157425Y0098737D03*
X0162175Y0099112D03*
D123*
X0162425Y0098737D03*
D124*
X0162360Y0098862D03*
D125*
X0154110Y0098925D03*
D126*
X0162300Y0098925D03*
D127*
X0154080Y0099050D03*
D128*
X0157770Y0099050D03*
D129*
X0157830Y0100362D03*
X0156080Y0100362D03*
X0154080Y0099112D03*
D130*
X0156205Y0099112D03*
D131*
X0162050Y0099300D03*
X0150300Y0099175D03*
D132*
X0156115Y0099175D03*
X0157865Y0099300D03*
X0157865Y0100300D03*
D133*
X0157830Y0099175D03*
D134*
X0157860Y0099237D03*
D135*
X0160015Y0101362D03*
X0159895Y0101487D03*
X0159765Y0101612D03*
X0159645Y0101737D03*
X0159515Y0101862D03*
X0159395Y0101987D03*
X0159265Y0102112D03*
X0159145Y0102237D03*
X0159015Y0102362D03*
X0158895Y0102487D03*
X0158765Y0102612D03*
X0158645Y0102737D03*
X0158515Y0102862D03*
X0158395Y0102987D03*
X0158265Y0103112D03*
X0158145Y0103237D03*
X0158015Y0103362D03*
X0157895Y0103487D03*
X0157765Y0103612D03*
X0154645Y0103612D03*
X0154515Y0103487D03*
X0150585Y0099487D03*
X0150455Y0099362D03*
X0160145Y0101237D03*
X0160265Y0101112D03*
X0160395Y0100987D03*
X0160515Y0100862D03*
X0160645Y0100737D03*
X0160765Y0100612D03*
X0160895Y0100487D03*
X0161015Y0100362D03*
X0161145Y0100237D03*
X0161265Y0100112D03*
X0161395Y0099987D03*
X0161515Y0099862D03*
X0161645Y0099737D03*
X0161765Y0099612D03*
X0161895Y0099487D03*
X0162015Y0099362D03*
X0162085Y0099237D03*
D136*
X0161955Y0099425D03*
X0161835Y0099550D03*
X0161705Y0099675D03*
X0161585Y0099800D03*
X0161455Y0099925D03*
X0161335Y0100050D03*
X0161205Y0100175D03*
X0161085Y0100300D03*
X0160955Y0100425D03*
X0160835Y0100550D03*
X0160705Y0100675D03*
X0160585Y0100800D03*
X0160455Y0100925D03*
X0160335Y0101050D03*
X0160205Y0101175D03*
X0160085Y0101300D03*
X0159955Y0101425D03*
X0159835Y0101550D03*
X0159705Y0101675D03*
X0159585Y0101800D03*
X0159455Y0101925D03*
X0159335Y0102050D03*
X0159205Y0102175D03*
X0159085Y0102300D03*
X0158955Y0102425D03*
X0158835Y0102550D03*
X0158705Y0102675D03*
X0158585Y0102800D03*
X0158455Y0102925D03*
X0158335Y0103050D03*
X0158205Y0103175D03*
X0158085Y0103300D03*
X0157955Y0103425D03*
X0157835Y0103550D03*
X0154585Y0103550D03*
X0150515Y0099425D03*
X0150395Y0099300D03*
D137*
X0157925Y0099362D03*
X0157925Y0100237D03*
D138*
X0154175Y0103112D03*
X0153925Y0102862D03*
X0153675Y0102612D03*
X0153425Y0102362D03*
X0153175Y0102112D03*
X0152925Y0101862D03*
X0152675Y0101612D03*
X0152425Y0101362D03*
X0152175Y0101112D03*
X0151925Y0100862D03*
X0151675Y0100612D03*
X0151425Y0100362D03*
X0151175Y0100112D03*
X0150925Y0099862D03*
X0150675Y0099612D03*
X0154425Y0103362D03*
D139*
X0156205Y0105737D03*
X0155895Y0099862D03*
X0155895Y0099737D03*
X0155895Y0099612D03*
D140*
X0155895Y0099675D03*
X0155895Y0099800D03*
X0155895Y0099925D03*
D141*
X0153550Y0102487D03*
X0153300Y0102237D03*
X0153050Y0101987D03*
X0152800Y0101737D03*
X0152550Y0101487D03*
X0152300Y0101237D03*
X0152050Y0100987D03*
X0151800Y0100737D03*
X0151550Y0100487D03*
X0151300Y0100237D03*
X0151050Y0099987D03*
X0150800Y0099737D03*
X0153800Y0102737D03*
X0154050Y0102987D03*
X0154300Y0103237D03*
D142*
X0158050Y0099862D03*
X0158050Y0099737D03*
D143*
X0156050Y0100300D03*
D144*
X0156145Y0100425D03*
D145*
X0157675Y0100487D03*
D146*
X0156955Y0100612D03*
D147*
X0156955Y0100862D03*
D148*
X0156955Y0100925D03*
D149*
X0156960Y0100987D03*
D150*
X0156985Y0101050D03*
D151*
X0156960Y0101175D03*
D152*
X0157675Y0103675D03*
D153*
X0156205Y0103737D03*
D154*
X0156210Y0103800D03*
D155*
X0156205Y0103862D03*
D156*
X0156205Y0103925D03*
D157*
X0156205Y0103987D03*
D158*
X0156210Y0104050D03*
D159*
X0156205Y0104112D03*
D160*
X0156205Y0104175D03*
D161*
X0156205Y0104237D03*
D162*
X0156210Y0104300D03*
D163*
X0156205Y0104362D03*
D164*
X0156205Y0104425D03*
D165*
X0156205Y0105675D03*
M02*
